<svg xmlns="http://www.w3.org/2000/svg" xmlns:bx="https://boxy-svg.com" shape-rendering="geometricPrecision" viewBox="82.64 286.13 1301.4 331.48">
  <defs>
    <bx:export>
      <bx:file format="svg"/>
      <bx:file format="svg" href="#object-0" path="Untitled 2.svg"/>
      <bx:file format="svg" href="#object-1" path="Untitled 3.svg"/>
      <bx:file format="svg" href="#object-2" path="Untitled 4.svg"/>
      <bx:file format="svg" href="#object-3" path="Untitled 5.svg"/>
      <bx:file format="svg" href="#object-4" path="Untitled 6.svg"/>
      <bx:file format="svg" href="#object-5" path="Untitled 7.svg"/>
      <bx:file format="svg" href="#object-6" path="Untitled 8.svg"/>
      <bx:file format="svg" href="#object-7" path="Untitled 9.svg"/>
      <bx:file format="svg" href="#object-8" path="Untitled 10.svg"/>
      <bx:file format="svg" href="#object-9" path="Untitled 11.svg"/>
      <bx:file format="svg" href="#object-10" path="Untitled 12.svg"/>
      <bx:file format="svg" href="#object-11" path="Untitled 13.svg"/>
      <bx:file format="svg" href="#object-12" path="Untitled 14.svg"/>
      <bx:file format="svg" href="#object-13" path="Untitled 15.svg"/>
      <bx:file format="svg" href="#object-14" path="Untitled 16.svg"/>
      <bx:file format="svg" href="#object-15" path="Untitled 17.svg"/>
      <bx:file format="svg" href="#object-16" path="Untitled 18.svg"/>
      <bx:file format="svg" href="#object-17" path="Untitled 19.svg"/>
      <bx:file format="svg" href="#object-18" path="Untitled 20.svg"/>
      <bx:file format="svg" href="#object-19" path="Untitled 21.svg"/>
      <bx:file format="svg" href="#object-20" path="Untitled 22.svg"/>
      <bx:file format="svg" href="#object-21" path="Untitled 23.svg"/>
      <bx:file format="svg" href="#object-22" path="Untitled 24.svg"/>
      <bx:file format="svg" href="#object-23" path="Untitled 25.svg"/>
      <bx:file format="svg" href="#object-24" path="Untitled 26.svg"/>
      <bx:file format="svg" href="#object-25" path="Untitled 27.svg"/>
      <bx:file format="svg" href="#object-26" path="Untitled 28.svg"/>
      <bx:file format="svg" href="#object-27" path="Untitled 29.svg"/>
      <bx:file format="svg" href="#object-28" path="Untitled 30.svg"/>
      <bx:file format="svg" href="#object-29" path="Untitled 31.svg"/>
      <bx:file format="svg" href="#object-30" path="Untitled 32.svg"/>
      <bx:file format="svg" href="#object-31" path="Untitled 33.svg"/>
      <bx:file format="svg" href="#object-32" path="Untitled 34.svg"/>
      <bx:file format="svg" href="#object-33" path="Untitled 35.svg"/>
      <bx:file format="svg" href="#object-34" path="Untitled 36.svg"/>
      <bx:file format="svg" href="#object-35" path="Untitled 37.svg"/>
      <bx:file format="svg" href="#object-36" path="Untitled 38.svg"/>
      <bx:file format="svg" href="#object-37" path="Untitled 39.svg"/>
      <bx:file format="svg" href="#object-38" path="Untitled 40.svg"/>
      <bx:file format="svg" href="#object-39" path="Untitled 41.svg"/>
      <bx:file format="svg" href="#object-40" path="Untitled 42.svg"/>
      <bx:file format="svg" href="#object-41" path="Untitled 43.svg"/>
      <bx:file format="svg" href="#object-0" path="Untitled 44.svg"/>
      <bx:file format="svg" href="#object-1" path="Untitled 45.svg"/>
      <bx:file format="svg" href="#object-2" path="Untitled 46.svg"/>
      <bx:file format="svg" href="#object-3" path="Untitled 47.svg"/>
      <bx:file format="svg" href="#object-4" path="Untitled 48.svg"/>
      <bx:file format="svg" href="#object-5" path="Untitled 49.svg"/>
      <bx:file format="svg" href="#object-6" path="Untitled 50.svg"/>
      <bx:file format="svg" href="#object-7" path="Untitled 51.svg"/>
      <bx:file format="svg" href="#object-8" path="Untitled 52.svg"/>
      <bx:file format="svg" href="#object-9" path="Untitled 53.svg"/>
      <bx:file format="svg" href="#object-10" path="Untitled 54.svg"/>
      <bx:file format="svg" href="#object-11" path="Untitled 55.svg"/>
      <bx:file format="svg" href="#object-12" path="Untitled 56.svg"/>
      <bx:file format="svg" href="#object-13" path="Untitled 57.svg"/>
      <bx:file format="svg" href="#object-14" path="Untitled 58.svg"/>
      <bx:file format="svg" href="#object-15" path="Untitled 59.svg"/>
      <bx:file format="svg" href="#object-16" path="Untitled 60.svg"/>
      <bx:file format="svg" href="#object-17" path="Untitled 61.svg"/>
      <bx:file format="svg" href="#object-18" path="Untitled 62.svg"/>
      <bx:file format="svg" href="#object-19" path="Untitled 63.svg"/>
      <bx:file format="svg" href="#object-20" path="Untitled 64.svg"/>
      <bx:file format="svg" href="#object-21" path="Untitled 65.svg"/>
      <bx:file format="svg" href="#object-22" path="Untitled 66.svg"/>
      <bx:file format="svg" href="#object-23" path="Untitled 67.svg"/>
      <bx:file format="svg" href="#object-24" path="Untitled 68.svg"/>
      <bx:file format="svg" href="#object-25" path="Untitled 69.svg"/>
      <bx:file format="svg" href="#object-26" path="Untitled 70.svg"/>
      <bx:file format="svg" href="#object-27" path="Untitled 71.svg"/>
      <bx:file format="svg" href="#object-28" path="Untitled 72.svg"/>
      <bx:file format="svg" href="#object-29" path="Untitled 73.svg"/>
      <bx:file format="svg" href="#object-30" path="Untitled 74.svg"/>
      <bx:file format="svg" href="#object-31" path="Untitled 75.svg"/>
      <bx:file format="svg" href="#object-32" path="Untitled 76.svg"/>
      <bx:file format="svg" href="#object-33" path="Untitled 77.svg"/>
      <bx:file format="svg" href="#object-34" path="Untitled 78.svg"/>
      <bx:file format="svg" href="#object-35" path="Untitled 79.svg"/>
      <bx:file format="svg" href="#object-36" path="Untitled 80.svg"/>
      <bx:file format="svg" href="#object-37" path="Untitled 81.svg"/>
      <bx:file format="svg" href="#object-38" path="Untitled 82.svg"/>
      <bx:file format="svg" href="#object-39" path="Untitled 83.svg"/>
      <bx:file format="svg" href="#object-40" path="Untitled 84.svg"/>
      <bx:file format="svg" href="#object-41" path="Untitled 85.svg"/>
    </bx:export>
  </defs>
  <path d="M 148.647 535.172 C 143.048 533.406 137.863 530.486 132.839 527.486 C 119.179 519.329 107.955 508.699 98.079 496.283 C 93.909 491.04 90.491 485.208 87.506 479.228 C 86.526 477.264 85.348 475.293 84.51 473.269 C 84.334 472.846 84.8 472.547 84.589 472.109 C 84.345 471.604 83.281 469.828 82.858 470.823 C 82.222 458.285 82.916 445.633 85.535 433.329 C 91.655 404.583 107.453 378.973 128.585 358.88 C 133.341 354.357 138.391 350.397 143.585 346.401 C 148.504 342.616 153.514 338.674 159.154 336.107 C 159.433 336.625 158.603 337.149 158.254 337.397 C 156.98 338.302 155.741 339.144 154.551 340.171 C 149.321 344.682 144.438 349.377 139.995 354.677 C 128.489 368.401 119.888 385.645 114.917 402.813 C 104.824 437.671 109.315 475.036 126.893 506.754 C 130.744 513.701 135.308 520.424 140.483 526.453 C 142.296 528.565 144.13 530.726 146.088 532.704 C 146.908 533.531 147.968 534.223 148.647 535.172 Z" opacity="1" fill="rgb(54,116,166)" fill-rule="evenodd" id="object-0"/>
  <path d="M 82.858 470.823 C 83.281 469.828 84.345 471.604 84.589 472.109 C 84.8 472.547 84.334 472.846 84.51 473.269 C 85.348 475.293 86.526 477.264 87.506 479.228 C 90.491 485.208 93.909 491.04 98.079 496.283 C 107.955 508.699 119.179 519.329 132.839 527.486 C 137.863 530.486 143.048 533.406 148.647 535.172 C 150.071 536.032 151.233 537.393 152.499 538.471 C 155.082 540.67 157.775 542.862 160.536 544.833 C 163.708 547.369 167.144 549.5 170.724 551.512 C 172.777 552.666 175.315 553.515 176.87 555.364 C 178.494 556.968 181.54 557.983 183.611 558.945 C 188.477 561.204 193.355 563.373 198.413 565.167 C 217.937 572.091 237.839 574.43 258.419 571.85 C 264.501 571.088 270.473 569.932 276.42 568.471 C 279.565 567.698 282.886 566.049 286.105 565.814 C 286.27 566.366 285.368 566.703 285.009 566.956 C 283.983 567.679 283.038 568.539 282.036 569.3 C 277.213 572.961 272.282 576.392 267.108 579.543 C 245.527 592.688 220.018 598.642 194.887 596.26 C 154.786 592.458 116.977 567.651 98.461 531.721 C 91.175 517.582 86.251 502.185 84.134 486.412 C 83.436 481.213 83.226 476.042 82.858 470.823 Z" opacity="1" fill="rgb(47,104,163)" fill-rule="evenodd" id="object-1"/>
  <path d="M 119.532 419.943 C 120.776 416.738 120.88 412.744 121.748 409.369 C 123.867 401.138 126.466 393.295 130.175 385.633 C 139.84 365.663 154.877 346.827 173.994 335.205 C 190.511 325.162 210.518 320.488 229.749 320.628 C 258.162 320.834 286.407 330.301 308.583 348.24 C 313.644 352.334 318.558 356.545 323.144 361.176 C 324.254 362.297 325.412 363.398 326.454 364.583 C 326.73 364.896 327.465 365.6 327.378 366.039 C 315.635 356.292 303.344 347.806 289.18 341.928 C 252.854 326.851 208.91 329.409 175.345 350.239 C 158.182 360.89 142.247 375.834 131.937 393.323 C 128.44 399.255 125.56 405.528 123.178 411.975 C 122.396 414.093 121.694 416.227 120.812 418.307 C 120.628 418.739 119.457 421.526 119.452 420.949 C 119.486 420.212 119.454 420.547 119.532 419.943 Z" opacity="1" fill="rgb(101,169,162)" fill-rule="evenodd" id="object-2"/>
  <path d="M 222.494 444.622 C 222.543 445.014 222.79 445.756 222.61 446.129 C 222.466 446.426 222.081 446.318 222.037 446.745 C 222.033 446.784 222.104 448.278 222.345 448.057 C 222.975 447.48 223.019 445.501 223.441 444.718 C 225.138 441.367 225.921 437.07 226.894 433.435 C 227.416 431.487 228.392 429.129 228.233 427.09 C 228.09 425.263 225.935 424.218 225.84 422.23 C 225.752 420.39 227.348 418.337 229.04 417.703 C 232.245 416.5 235.473 420.108 234.772 423.165 C 234.154 425.864 232.628 425.918 230.425 426.908 C 228.48 430.777 227.854 435.342 226.222 439.363 C 225.676 440.709 224.445 443.125 224.675 444.576 C 224.552 444.851 227.416 445.334 227.899 445.434 C 230.198 445.909 232.476 446.489 234.772 446.984 C 241.27 448.384 247.779 450.176 254.334 451.271 C 255.227 451.603 256.178 451.771 257.092 452.036 C 262.337 453.081 267.245 454.377 272.636 453.312 C 277.859 452.28 282.465 449.831 287.448 448.119 C 292.494 446.385 298.221 445.643 303.544 446.083 C 314.64 447 323.702 454.971 333.598 459.354 C 338.834 461.673 344.503 463.274 350.118 464.374 C 352.969 464.932 356.016 465.142 358.801 465.955 C 359.01 468.024 359.323 470.077 359.342 472.166 C 349.137 472.163 337.87 468.937 328.823 464.287 C 321.224 460.382 313.843 454.969 305.423 452.989 C 292.44 449.936 281.647 458.99 269.003 458.877 C 264.544 458.837 260.2 457.729 255.884 456.734 C 249.307 455.218 242.716 453.76 236.134 452.243 C 231.319 451.133 226.485 449.797 221.516 449.7 C 216.298 449.306 210.773 448.949 205.58 449.777 C 199.108 450.81 192.558 453.782 185.999 453.975 C 184.223 454.027 182.645 453.114 180.906 452.965 C 180.056 453.446 179.435 454.273 178.646 454.857 C 175.774 456.984 171.253 459.096 167.636 457.683 C 166.144 454.732 164.754 452.09 161.461 450.787 C 159.378 449.962 156.701 450.418 155.886 452.774 C 156.043 454.868 158.041 457.559 157.508 459.564 C 154.41 461.785 149.673 462.136 146.048 461.521 C 144.756 461.302 143.313 460.987 142.083 460.537 C 141.78 460.426 141.501 460.046 141.195 460.149 C 140.664 460.329 140.54 463.128 140.435 463.65 C 139.638 467.596 137.911 471.083 136.687 474.868 C 137.989 476.572 140.156 477.77 141.933 478.912 C 148.449 483.098 155.776 485.137 163.506 485.067 C 166.88 485.037 171.285 485.066 173.86 482.489 C 177.707 478.641 176.261 472.288 176.003 467.475 C 180.104 468.405 178.007 475.648 181.996 477.549 C 184.733 475.62 186.929 469.976 190.676 470.034 C 190.505 471.935 188.218 474.316 187.382 476.083 C 185.248 480.596 184.967 487.098 187.556 491.469 C 192.729 500.203 204.26 498.801 212.873 499.805 C 222.428 500.919 232.393 500.496 242.006 500.579 C 256.953 500.706 271.898 500.989 286.837 501.033 C 287.052 500.469 284.476 498.474 284.004 498.091 C 280.564 495.292 276.85 493.121 272.811 491.301 C 265.964 488.217 258.384 486.967 251.077 485.461 C 243.406 483.88 235.822 481.873 228.139 480.34 C 224.659 479.646 221.215 478.684 217.749 477.913 C 216.696 477.679 214.568 477.784 214.732 476.434 C 216.793 475.873 219.019 476.254 221.126 476.384 C 225.342 476.645 229.505 477.113 233.691 477.659 C 248.126 479.544 263.731 480.785 277.117 486.901 C 283.675 489.898 288.561 495.843 295.502 497.958 C 301.645 499.831 308.465 499.744 314.831 500.019 C 329.95 500.671 345.223 499.289 360.306 500.271 C 360.698 501.434 360.588 502.859 360.692 504.086 C 354.382 504.662 347.84 504.108 341.503 504.134 C 328.166 504.19 314.837 504.181 301.5 504.048 C 274.838 503.781 248.166 504.582 221.501 504.532 C 213.214 504.516 204.418 505.111 196.263 503.425 C 192.409 502.629 188.122 501.199 185.299 498.312 C 183.262 496.229 181.743 493.324 180.815 490.587 C 179.742 487.424 180.751 484.58 180.747 481.407 C 180.22 480.532 179.272 479.882 178.284 479.668 C 177.343 481.511 176.818 483.409 175.166 484.791 C 172.302 487.188 168.304 487.43 164.739 487.504 C 156.887 487.666 149.572 486.636 142.631 482.761 C 139.699 481.124 137.391 478.744 134.622 476.929 C 133.235 477.333 132.035 478.406 130.527 478.377 C 129.506 478.358 128.469 478.118 127.508 477.789 C 120.9 475.528 121.8 467.635 122.746 462.256 C 124.958 449.677 126.38 435.46 139.727 429.775 C 150.742 425.084 163.91 428.906 172.094 437.148 C 174.441 439.512 176.587 442.083 178.613 444.724 C 179.718 446.166 180.95 448.149 182.741 448.802 C 184.612 449.484 187.546 448.211 189.375 447.685 C 193.264 446.568 197.129 445.556 201.098 444.76 C 202.687 444.441 204.735 444.756 206.212 444.188 C 206.693 442.786 206.386 440.908 206.424 439.422 C 206.494 436.717 206.574 434.012 206.61 431.297 C 206.624 430.251 206.863 429.152 206.566 428.132 C 202.677 426.366 201.192 419.41 206.856 419.06 C 210.31 418.847 212.748 422.27 211.567 425.505 C 210.997 427.07 209.896 427.715 208.496 428.427 C 208.045 432.126 208.127 435.902 207.57 439.605 C 207.378 440.882 206.682 443.157 207.36 444.306 C 210.583 443.636 214.558 444.093 217.85 444.173 C 219.381 444.21 221.073 443.954 222.494 444.622 Z M 126.395 464.911 C 126.039 467.446 126.021 470.186 127.014 472.586 C 127.694 474.23 128.947 475.444 130.642 474.239 C 131.139 473.886 131.588 473.477 132.009 473.038 C 132.528 472.495 132.989 471.909 133.403 471.284 C 136.783 466.189 137.512 460.489 138.311 454.629 C 140.19 455.135 141.755 456.507 143.543 457.262 C 146.135 458.356 148.949 458.018 151.58 457.275 C 152.164 457.11 152.976 457.138 153.479 456.797 C 152.938 455.274 152.474 453.813 152.732 452.167 C 153.431 447.706 158.125 444.868 162.369 446.494 C 164.366 447.259 166.442 448.856 167.734 450.556 C 168.653 451.765 169.163 453.394 170.219 454.471 C 172.564 454.424 176.265 452.73 177.436 450.637 C 177.331 449.708 176.466 448.969 175.927 448.252 C 174.509 446.364 172.983 444.532 171.38 442.798 C 165.124 436.029 157.298 432.077 147.963 432.855 C 144.641 433.132 141.306 433.831 138.49 435.722 C 129.596 441.693 128.441 455.343 126.395 464.911 Z" opacity="1" fill="rgb(77,140,108)" fill-rule="evenodd" id="object-3"/>
  <path d="M 130.381 494.391 C 131.556 489.813 135.098 489.121 139.295 489.26 C 146.812 489.51 154.482 489.758 161.996 489.413 C 165.525 489.25 169.121 489.014 172.655 489.35 C 174.057 489.483 175.658 489.39 176.99 489.908 C 178.305 490.42 178.923 491.845 179.236 493.112 C 179.959 496.037 180.49 500.617 178.564 503.228 C 177.581 503.691 176.065 503.421 174.997 503.418 C 172.496 503.41 169.996 503.469 167.495 503.489 C 160.029 503.55 152.564 503.407 145.098 503.429 C 141.882 503.438 137.276 504.262 134.235 503.078 C 130.798 501.739 129.889 497.643 130.381 494.391 Z" opacity="1" fill="rgb(62,130,121)" fill-rule="evenodd" id="object-4"/>
  <path d="M 176.87 555.364 C 175.315 553.515 172.777 552.666 170.724 551.512 C 167.144 549.5 163.708 547.369 160.536 544.833 C 161.117 545.015 160.861 543.312 160.864 542.85 C 160.875 541.053 160.846 539.254 160.837 537.457 C 160.811 532.545 161.091 527.662 160.874 522.754 C 160.291 522.17 157.837 522.558 157 522.549 C 154.333 522.52 151.665 522.548 148.998 522.525 C 147.918 522.516 146.376 522.826 145.393 522.338 C 142.007 517.961 138.899 513.176 135.969 508.482 C 188.47 508.068 240.997 508.433 293.504 508.549 C 309.17 508.583 324.837 508.583 340.503 508.545 C 345.171 508.534 349.838 508.47 354.506 508.472 C 356.57 508.473 359.245 508.042 361.195 508.703 C 360.958 513.034 361.14 518.26 361.855 522.55 C 354.455 522.618 346.86 522.078 339.49 522.797 C 338.713 527.532 339.148 532.661 339.198 537.444 C 339.226 540.078 338.81 543.169 339.373 545.738 C 344.221 544.395 348.654 542.383 353.781 542.127 C 353.596 543.253 352.805 544.276 352.259 545.252 C 350.942 547.606 349.641 549.949 348.212 552.237 C 342.769 560.95 336.182 568.965 328.883 576.19 C 314.101 590.82 296.57 602.677 276.943 609.781 C 264.435 614.307 251.185 616.391 237.984 617.36 C 226.089 618.232 214.206 616.705 202.554 614.533 C 189.952 612.185 177.026 607.516 165.709 601.493 C 162.906 600.002 160.208 598.363 157.45 596.8 C 156.178 596.079 154.989 595.552 154.122 594.343 C 158.761 595.688 163.158 597.992 167.776 599.494 C 177.433 602.635 187.565 604.741 197.727 605.125 C 222.088 606.043 246.072 599.246 267.212 587.342 C 278.409 581.037 288.117 572.843 298.872 565.917 C 303.982 562.626 309.051 559.326 314.395 556.417 C 317.197 554.892 320.783 553.93 323.361 552.141 C 323.663 549.447 323.321 546.527 323.323 543.808 C 323.329 536.811 323.13 529.797 323.203 522.806 C 317.709 521.899 311.562 522.62 305.997 522.601 C 294.497 522.562 282.997 522.577 271.497 522.549 C 251.499 522.5 231.5 522.496 211.502 522.481 C 199.935 522.472 188.311 522.17 176.753 522.642 C 176.529 529.691 176.715 536.758 176.731 543.811 C 176.739 547.565 176.2 551.669 176.87 555.364 Z" opacity="1" fill="rgb(77,132,98)" fill-rule="evenodd" id="object-5"/>
  <path d="M 203.402 456.383 C 204.124 453.866 208.124 452.951 209.308 455.706 C 210.847 459.287 205.996 461.435 203.681 458.878 C 203.326 458.062 203.332 457.261 203.402 456.383 Z" opacity="1" fill="rgb(67,141,106)" fill-rule="evenodd" id="object-6"/>
  <path d="M 214.76 455.29 C 215.394 454.177 216.174 453.327 217.479 453.128 C 218.146 453.213 218.728 453.36 219.294 453.746 C 222.947 456.235 216.718 461.372 214.884 457.02 C 214.619 456.391 214.647 455.957 214.76 455.29 Z" opacity="1" fill="rgb(76,147,112)" fill-rule="evenodd" id="object-7"/>
  <path d="M 222.494 444.622 C 223.131 444.657 222.815 444.625 223.441 444.718 C 223.019 445.501 222.975 447.48 222.345 448.057 C 222.104 448.278 222.033 446.784 222.037 446.745 C 222.081 446.318 222.466 446.426 222.61 446.129 C 222.79 445.756 222.543 445.014 222.494 444.622 Z" opacity="1" fill="rgb(101,140,128)" fill-rule="evenodd" id="object-8"/>
  <path d="M 225.79 455.82 C 226.281 454.83 227.276 453.692 228.426 453.483 C 229.816 453.23 231.718 454.934 231.613 456.363 C 231.328 460.243 226.631 459.657 225.764 456.429 C 225.772 456.226 225.781 456.023 225.79 455.82 Z" opacity="1" fill="rgb(87,151,114)" fill-rule="evenodd" id="object-9"/>
  <path d="M 237.301 457.827 C 238.347 455.237 242.424 455.588 242.984 458.411 C 242.979 461.292 238.662 462.984 237.299 460.043 C 236.973 459.339 237.16 458.549 237.301 457.827 Z" opacity="1" fill="rgb(70,138,99)" fill-rule="evenodd" id="object-10"/>
  <path d="M 240.547 445.918 C 241.929 443.596 242.913 440.721 243.916 438.201 C 245.062 435.321 247.101 432.381 247.743 429.349 C 247.503 428 246.295 427.047 246.498 425.549 C 246.612 424.708 246.96 423.9 247.404 423.185 C 251.24 416.997 259.036 426.275 252.725 429.682 C 251.802 430.181 250.612 429.93 249.61 429.976 C 246.618 433.894 245.004 439.073 242.598 443.377 C 242.132 444.212 241.44 446.899 240.596 447.294 C 240.293 447.436 240.519 446.008 240.547 445.918 Z" opacity="1" fill="rgb(96,151,119)" fill-rule="evenodd" id="object-11"/>
  <path d="M 247.379 460.343 C 247.48 460.186 247.581 460.03 247.681 459.874 C 248.546 459.088 249.475 458.57 250.595 458.236 C 251.1 458.295 251.504 458.555 251.928 458.834 C 256.401 461.776 249.105 467.599 247.51 462.231 C 247.329 461.622 247.27 460.964 247.379 460.343 Z" opacity="1" fill="rgb(76,138,100)" fill-rule="evenodd" id="object-12"/>
  <path d="M 254.334 451.271 C 255.44 450.86 256.067 448.863 256.747 447.943 C 258.852 445.094 260.864 442.184 262.929 439.298 C 263.512 438.484 265.324 436.936 265.181 435.92 C 264.942 435.386 264.632 434.894 264.402 434.357 C 263.673 429.92 268.97 426.363 272.491 429.575 C 274.732 431.62 274.373 436.251 271.25 437.376 C 269.883 437.869 268.181 437.299 266.862 436.919 C 265.799 437.79 265.12 439.15 264.252 440.211 C 261.955 443.021 259.813 446.051 257.265 448.638 C 256.152 449.767 255.629 450.997 257.092 452.036 C 256.178 451.771 255.227 451.603 254.334 451.271 Z" opacity="1" fill="rgb(99,154,118)" fill-rule="evenodd" id="object-13"/>
  <path d="M 284.88 378.715 C 286.45 377.433 288.391 378.536 290.077 379.082 C 293.673 380.247 297.05 382.174 300.401 383.896 C 301.511 384.467 303.55 385.869 304.807 385.704 C 304.96 384.147 305.51 382.609 305.885 381.093 C 307.124 381.209 308.031 382.13 309.037 382.792 C 311.038 384.109 313.116 385.274 315.239 386.381 C 321.703 389.751 329.82 390.71 336.723 388.102 C 345.214 384.893 351.151 378.203 356.821 371.419 C 360.573 366.93 363.742 362.258 368.582 358.81 C 376.014 353.515 385.568 351.75 394.462 350.893 C 403.64 350.008 413.115 350.345 422.15 352.277 C 429.72 353.896 436.661 356.405 442.335 361.926 C 445.426 364.934 447.713 368.906 449.491 372.802 C 451.337 376.848 452.654 381.413 453.114 385.845 C 453.466 389.228 453.475 392.656 452.688 395.978 C 452.086 398.523 451.284 400.848 449.991 403.127 C 446.839 408.68 441.161 411.844 435.216 413.686 C 423.63 417.275 410.603 415.288 399.067 412.576 C 395.288 411.688 391.498 410.777 387.825 409.515 C 381.451 407.325 372.606 405.501 367.801 400.456 C 366.311 398.892 363.791 395.599 364.339 393.271 C 366.224 392.005 368.77 392.425 370.92 392.572 C 375.994 392.917 380.957 394.097 385.985 394.778 C 386.676 393.931 386.378 391.132 386.625 389.985 C 390.686 389.935 394.765 392.348 398.634 393.397 C 408.581 396.094 420.572 395.12 425.561 384.79 C 426.672 382.49 428.267 379.509 428.107 376.879 C 425.62 380.147 423.928 383.851 420.661 386.521 C 414.192 391.809 404.615 391.192 397.106 388.903 C 393.05 387.667 388.616 385.599 384.301 386.063 C 383.951 387.295 383.742 389.798 382.932 390.749 C 381.306 390.828 379.439 389.964 377.872 389.557 C 373.888 388.522 368.847 387.812 364.779 388.715 C 361.301 389.488 359.633 392.395 360.286 395.814 C 360.667 397.811 362.208 399.047 362.903 400.833 C 362.38 402.498 360.675 403.818 359.313 404.807 C 355.942 407.256 352.237 408.989 348.237 410.125 C 336.156 413.557 323.544 410.144 312.331 405.328 C 308.441 403.658 304.488 401.968 300.936 399.641 C 300.645 398.853 301.535 397.859 301.111 397.159 C 295.176 395.18 289.551 391.309 286.432 385.833 C 285.258 383.772 283.865 381.095 284.88 378.715 Z" opacity="1" fill="rgb(125,166,89)" fill-rule="evenodd" id="object-14"/>
  <path d="M 323.387 589.892 C 323.476 589.308 323.394 589.587 323.63 589.053 C 326.469 586.31 329.549 583.812 332.359 581.037 C 334.671 578.753 336.664 576.138 339.173 574.067 C 339.907 577.355 339.305 581.436 339.285 584.808 C 339.245 591.809 339.26 598.81 339.255 605.81 C 339.253 608.31 339.257 610.81 339.26 613.309 C 339.261 614.147 338.991 615.676 339.294 616.422 C 334.211 616.59 328.482 617.128 323.456 616.301 C 322.935 607.607 323.01 598.595 323.387 589.892 Z" opacity="1" fill="rgb(53,118,106)" fill-rule="evenodd" id="object-15"/>
  <path d="M 364.968 446.928 C 365.511 442.743 365.198 438.3 365.31 434.078 C 365.559 424.693 365.772 414.995 367.048 405.691 C 372.776 407.66 378.153 410.532 383.955 412.416 C 397.746 416.897 412.684 419.942 427.243 419.232 C 431.088 419.044 434.876 418.072 438.666 417.471 C 439.032 418.877 438.9 420.317 438.974 421.754 C 439.179 425.742 439.243 429.77 439.275 433.766 C 439.351 443.285 439.848 452.803 439.959 462.324 C 440.377 498.172 439.176 533.888 436.788 569.637 C 436.002 581.392 435.477 593.697 432.877 605.22 C 432.049 608.889 430.726 615.008 426.705 616.466 C 423.742 617.54 421.1 615.86 419.563 613.362 C 417.092 609.346 416.227 604.578 415.299 600.026 C 413.8 592.673 413.075 585.219 411.994 577.802 C 409.982 563.994 408.237 550.125 406.488 536.277 C 405.708 530.095 405.06 523.88 404.19 517.708 C 403.911 515.733 403.694 513.754 403.6 511.759 C 403.579 511.33 403.352 508.334 403.097 508.715 C 401.033 521.749 400.381 535.17 399.156 548.312 C 397.827 562.565 395.937 576.798 394.762 591.07 C 394.225 597.59 393.583 604.511 391.178 610.653 C 390.163 613.245 388.594 616.222 385.546 616.663 C 380.827 617.346 378.362 612.195 377.151 608.504 C 374.028 598.979 373.47 588.528 372.446 578.62 C 370.046 555.378 368.984 532.107 367.098 508.839 C 365.44 488.391 363.713 467.469 364.968 446.928 Z" opacity="1" fill="rgb(104,149,88)" fill-rule="evenodd" id="object-16"/>
  <path d="M 376.455 311.922 C 376.773 303.753 380.29 295.688 386.998 290.767 C 398.836 282.085 416.408 285.956 422.91 299.278 C 425.185 303.94 426.022 309.405 425.806 314.548 C 425.597 319.529 424.582 324.461 422.474 329.004 C 420.888 332.42 418.798 335.816 416.167 338.528 C 414.225 340.529 412.068 342.094 409.608 343.394 C 402.113 347.354 392.831 344.997 386.991 339.13 C 379.987 332.092 376.069 321.844 376.455 311.922 Z" opacity="1" fill="rgb(138,174,90)" fill-rule="evenodd" id="object-17"/>
  <path d="M 484.242 327.227 C 493.086 326.805 502.068 327.197 510.919 327.252 C 511.06 328.117 511.109 328.884 511.066 329.757 C 508.752 330.895 505.675 330.245 504.657 333.426 C 504.218 334.789 504.784 336.357 505.173 337.67 C 506.135 340.917 507.254 344.137 508.357 347.343 C 512.458 359.252 517.529 371.022 520.967 383.123 C 521.866 382.54 521.858 381.117 522.144 380.18 C 523.053 377.212 524.234 374.36 525.287 371.445 C 527.013 366.677 528.815 361.906 530.693 357.2 C 531.353 355.552 533.136 353.076 533.04 351.309 C 532.784 346.492 529.742 340.518 527.995 336.031 C 527.311 334.284 526.305 332.314 524.582 331.376 C 521.924 329.928 519.316 331.234 519.239 327.426 C 520.585 326.498 524.114 327.314 525.786 327.272 C 530.744 327.15 535.7 327.209 540.658 327.16 C 542.53 327.14 545.598 326.549 547.206 327.488 C 547.285 328.359 547.435 329.26 547.303 330.131 C 544.683 329.922 540.524 330.761 540.275 334.031 C 539.948 338.344 542.477 343.392 543.931 347.355 C 546.927 355.535 549.62 363.842 552.7 371.991 C 553.675 374.572 554.615 377.181 555.528 379.781 C 555.89 380.815 556.045 382.763 556.871 383.481 C 557.409 382.903 557.426 381.173 557.722 380.357 C 558.785 377.408 559.794 374.427 560.782 371.452 C 563.822 362.263 567.431 353.225 570.196 343.953 C 571.038 341.126 573.285 336.89 572.537 333.895 C 571.477 329.649 567.801 330.375 564.428 329.973 C 564.339 328.908 564.314 327.86 564.398 326.793 C 569.56 326.757 574.761 326.951 579.922 326.726 C 581.263 326.669 584.732 325.998 585.732 326.914 C 585.947 327.79 586.118 328.671 586.271 329.561 C 577.771 329.227 575.776 340.38 573.925 346.582 C 570.223 358.996 565.49 371.159 561.401 383.457 C 560.018 387.615 558.55 391.745 556.975 395.836 C 556.408 397.299 556.262 399.101 555.234 400.327 C 553.88 400.638 552.349 400.889 551.072 400.26 C 547.397 390.791 544.088 381.131 540.597 371.587 C 539.283 367.998 537.981 364.411 536.595 360.849 C 536.368 360.264 536.002 357.438 535.418 357.242 C 535.11 357.137 535.064 357.789 534.885 358.059 C 529.886 372.13 524.177 385.944 519.621 400.176 C 518.395 400.702 516.616 400.442 515.303 400.375 C 513.936 398.328 513.33 395.261 512.502 392.934 C 510.842 388.264 509.157 383.613 507.546 378.925 C 503.27 366.458 498.817 354.04 494.48 341.592 C 493.477 338.716 492.551 334.919 490.528 332.595 C 488.969 330.804 485.736 331.46 484.323 329.93 C 483.753 329.319 484.204 327.942 484.242 327.227 Z" opacity="1" fill="rgb(54,100,156)" fill-rule="evenodd" style="" id="object-18"/>
  <path d="M 484.037 597.588 C 484.186 597.19 484.337 596.794 484.485 596.392 C 486.888 595.297 489.974 594.503 491.887 592.597 C 496.928 587.581 499.169 578.255 501.778 571.793 C 508.69 554.656 514.531 536.261 522.712 519.722 C 523.615 519.686 525.557 519.164 526.241 520.04 C 529.198 523.828 530.838 530.538 532.539 535.077 C 538.676 551.462 545.336 567.696 551.901 583.911 C 553.54 587.958 555.158 591.911 559.14 594.14 C 560.544 594.93 564.03 595.944 563.508 597.977 C 555.626 599.62 547.008 597.596 538.985 598.424 C 537.365 598.59 531.612 599.604 532.9 596.616 C 535.366 595.525 538.424 594.596 540.447 592.749 C 541.477 588.304 537.788 581.347 536.257 577.186 C 535.657 575.56 535.125 573.345 533.842 572.155 C 525.21 573.676 515.964 571.534 507.23 572.518 C 503.834 575.493 502.523 583.578 500.995 587.767 C 500.448 589.265 499.22 591.221 500.127 592.675 C 502.145 593.565 509.509 595.486 507.234 598.645 C 502.102 599.487 496.431 598.798 491.229 598.906 C 488.695 598.96 485.952 599.405 484.037 597.588 Z M 508.88 566.835 C 508.818 567.235 508.762 567.634 508.704 568.033 C 514.608 567.939 520.506 567.871 526.411 567.796 C 528.133 567.773 531.536 568.499 533.004 567.764 C 530.628 561.074 527.563 554.575 525.078 547.907 C 523.801 544.483 522.937 540.297 520.898 537.272 C 519.195 539.618 518.485 543.326 517.411 546.073 C 514.711 552.976 512.379 560.301 508.88 566.835 Z" opacity="1" fill="rgb(90,137,88)" fill-rule="evenodd" style="" id="object-19"/>
  <path d="M 484.203 421.376 C 491.513 420.732 499.092 421.449 506.442 421.415 C 509.001 421.405 513.47 420.493 515.813 421.501 C 515.969 422.315 515.819 423.777 515.43 424.498 C 512.483 424.934 509.895 424.407 507.684 426.921 C 505.753 429.117 506.209 432.936 506.203 435.653 C 506.188 442.705 506.154 449.762 506.325 456.811 C 509.415 457.474 513.774 456.621 516.998 456.608 C 525.784 456.571 534.607 456.367 543.391 456.543 C 543.76 456.373 543.561 454.962 543.569 454.589 C 543.597 452.866 543.554 451.138 543.554 449.413 C 543.556 444.376 543.628 439.339 543.564 434.3 C 543.535 432.024 543.895 429.182 542.459 427.234 C 540.023 423.925 536.908 425.895 533.956 424.571 C 533.92 423.52 533.883 422.471 533.831 421.42 C 540.523 421.236 547.242 421.396 553.946 421.39 C 557.449 421.385 561.169 420.922 564.645 421.357 C 564.744 422.411 564.796 423.459 564.838 424.517 C 563.989 424.412 563.013 424.548 562.16 424.626 C 555.044 425.263 555.835 432.613 555.755 437.878 C 555.528 452.496 555.626 467.127 555.751 481.746 C 555.798 487.232 554.679 494.727 561.719 496.071 C 562.961 496.309 564.193 496.449 565.457 496.416 C 565.475 497.381 565.385 498.331 565.359 499.293 C 555.062 499.227 544.465 498.597 534.196 499.27 C 533.569 498.86 533.883 497.335 533.858 496.621 C 536.772 496.125 540.176 496.035 542.243 493.607 C 544.218 491.291 543.522 487.184 543.543 484.377 C 543.6 476.73 543.241 468.986 543.713 461.352 C 543.298 460.89 542.03 461.161 541.413 461.163 C 538.993 461.171 536.573 461.161 534.153 461.16 C 524.918 461.155 515.664 461.298 506.438 461.246 C 505.846 463.796 506.132 466.591 506.124 469.198 C 506.111 473.818 506.116 478.435 506.125 483.056 C 506.132 485.698 505.401 489.731 506.526 492.16 C 508.095 495.552 511.533 496.223 514.883 496.314 C 515.116 497.117 515.638 498.612 515.205 499.424 C 507.478 498.415 499.061 499.288 491.266 499.316 C 489.479 499.321 487.69 499.337 485.901 499.293 C 485.672 499.288 484.425 499.372 484.245 499.113 C 483.848 498.542 484.13 497.196 484.187 496.558 C 487.544 495.943 491.194 495.747 493.061 492.403 C 493.966 490.783 493.754 488.631 493.74 486.845 C 493.718 483.822 493.765 480.798 493.77 477.775 C 493.785 465.491 493.736 453.205 493.799 440.921 C 493.823 436.263 495.579 426.507 489.292 424.911 C 487.862 424.547 486.184 424.356 484.711 424.398 C 484.115 423.562 484.248 422.359 484.203 421.376 Z" opacity="1" fill="rgb(96,138,83)" fill-rule="evenodd" style="" id="object-20"/>
  <path d="M 571.413 558.01 C 572.141 553.043 572.523 548.203 574.6 543.546 C 582.504 525.85 601.47 517.881 620.011 519.524 C 626.165 520.07 635.55 521.794 640.381 525.977 C 640.028 531.017 641.624 539.076 639.743 543.671 C 638.669 544.079 637.553 544.091 636.437 544.3 C 634.029 539.252 634.066 533.892 629.489 529.832 C 617.917 519.567 597.953 523.294 590.523 536.593 C 578.245 558.573 588.704 599.252 619.663 594.532 C 627.707 593.303 632.204 588.645 638.655 584.501 C 640.82 584.764 642.275 586.944 641.332 589.045 C 619.548 608.378 580.501 601.813 572.878 571.317 C 571.775 566.913 571.095 562.559 571.413 558.01 Z" opacity="1" fill="rgb(92,136,85)" fill-rule="evenodd" style="" id="object-21"/>
  <path d="M 582.021 396.219 C 584.264 395.811 586.585 395.454 588.474 394.079 C 593.293 390.573 595.098 381.667 597.027 376.3 C 601.589 363.607 607.169 351.237 612.155 338.705 C 613.699 334.83 614.781 328.345 617.768 325.364 C 618.775 325.318 619.632 325.178 620.54 325.645 C 626.785 339.991 632.703 354.6 638.505 369.139 C 640.52 374.191 642.525 379.244 644.51 384.304 C 645.796 387.586 647.053 391.389 649.734 393.827 C 651.605 395.526 654.132 395.535 656.183 396.84 C 656.617 397.546 656.503 397.971 656.443 398.758 C 648.782 399.035 641.105 398.783 633.439 398.952 C 630.92 399.005 625.895 400.302 626.747 396.348 C 629.613 396.068 632 395.703 633.823 393.267 C 634.148 391.383 633.312 389.344 632.795 387.537 C 631.592 383.329 629.957 379.275 628.491 375.157 C 626.412 374.315 622.959 374.893 620.696 374.879 C 614.582 374.845 608.362 374.567 602.273 375.036 C 599.985 378.782 598.812 383.889 597.394 388.039 C 596.829 389.696 596.297 391.245 597.246 392.885 C 599.016 395.948 601.509 395.817 604.585 396.181 C 604.922 396.612 604.922 398.668 604.451 399.051 C 597.153 399.448 589.766 398.971 582.457 399.07 C 581.841 398.298 581.928 397.17 582.021 396.219 Z M 604.327 369.642 C 604.248 369.935 604.163 370.228 604.086 370.522 C 606.342 371.131 609.145 370.746 611.48 370.765 C 616.585 370.805 621.705 370.624 626.797 370.663 C 626.709 368.657 625.059 366.32 624.34 364.456 C 622.709 360.237 621.008 356.046 619.452 351.798 C 618.484 349.156 617.542 346.437 616.451 343.853 C 616.228 343.321 615.705 341.692 615.32 341.515 C 615.048 341.391 615.057 342.051 614.927 342.319 C 611.678 351.513 608.091 360.641 604.327 369.642 Z" opacity="1" fill="rgb(54,102,156)" fill-rule="evenodd" style="" id="object-22"/>
  <path d="M 573.035 497.725 C 573.03 497.416 573.027 497.106 573.021 496.795 C 575.585 495.539 578.467 495.589 580.726 493.606 C 583.178 491.454 584.535 487.826 585.797 484.894 C 588.112 479.526 590.217 474.077 592.396 468.652 C 596.47 458.514 600.604 448.402 604.63 438.241 C 607.026 432.194 610.065 426.175 611.909 419.935 C 613.041 419.681 614.116 419.66 615.273 419.703 C 617.878 424.972 619.649 430.707 621.829 436.159 C 626.189 447.059 630.865 457.83 635.163 468.754 C 636.972 473.351 638.916 477.9 640.674 482.519 C 642.075 486.202 643.543 490.5 646.395 493.339 C 648.486 495.42 651.169 495.427 653.542 496.867 C 653.59 497.631 653.724 498.578 653.431 499.29 C 643.579 498.747 633.102 498.796 623.247 499.376 C 622.685 498.757 622.635 497.569 622.786 496.772 C 625.069 496.319 629.001 495.848 630.001 493.285 C 630.748 491.368 629.576 488.875 629.029 487.056 C 627.574 482.202 625.688 477.446 623.686 472.792 C 622.081 471.623 617.97 472.306 615.966 472.294 C 609.361 472.252 602.756 472.353 596.153 472.348 C 593.527 477.704 590.317 484.496 589.387 490.416 C 589.078 492.376 590.698 494.909 592.476 495.719 C 593.839 496.34 595.775 496.074 597.243 496.279 C 597.513 497.313 597.479 498.278 597.293 499.321 C 589.424 499.788 581.143 499.831 573.28 499.326 C 573.063 498.77 573.041 498.327 573.035 497.725 Z M 598.1 467.435 C 598.065 467.634 598.027 467.835 597.99 468.036 C 603.513 467.846 609.108 467.995 614.639 468.017 C 616.568 468.023 620.16 468.729 621.872 467.901 C 620.043 462.066 617.335 456.409 615.121 450.704 C 613.455 446.408 612.107 441.802 610.029 437.693 C 608.001 439.937 607.111 444.287 606.039 447.123 C 603.496 453.852 601.129 460.912 598.1 467.435 Z" opacity="1" fill="rgb(95,139,83)" fill-rule="evenodd" style="" id="object-23"/>
  <path d="M 651.708 521.963 C 661.146 520.056 672.593 520.992 682.194 521.535 C 685.188 524.787 677.284 525.623 675.233 526.863 C 672.386 530.879 673.492 538.167 673.481 542.912 C 673.462 551.838 673.131 560.799 673.398 569.721 C 673.6 576.554 674.255 583.558 679.447 588.631 C 691.077 599.996 712.511 593.475 714.754 577.209 C 715.876 569.042 715.258 560.485 715.229 552.262 C 715.208 546.941 715.377 541.624 715.393 536.308 C 715.401 533.424 715.54 530.271 713.838 527.813 C 710.986 525.234 707.176 525.769 705.496 522.172 C 707.864 521.277 709.784 521.69 712.258 521.569 C 717.998 521.286 724.258 520.886 729.962 521.705 C 731.438 524.192 722.931 527.085 721.474 528.851 C 719.904 541.182 720.81 554.12 720.652 566.535 C 720.565 573.447 721.086 580.631 717.894 587 C 708.771 605.201 674.962 604.857 664.781 588.019 C 661.324 582.31 661.098 575.74 660.995 569.25 C 660.858 560.288 661.041 551.331 661.145 542.37 C 661.193 538.388 662 533.44 660.863 529.585 C 659.441 524.763 653.646 525.861 651.708 521.963 Z" opacity="1" fill="rgb(93,140,88)" fill-rule="evenodd" style="" id="object-24"/>
  <path d="M 741.514 597.318 C 743.601 594.809 748.229 595.504 750.499 592.758 C 751.619 587.829 751.035 582.324 751.039 577.302 C 751.049 568.587 751.15 559.881 751.308 551.169 C 751.442 543.894 752.885 534.839 750.517 527.863 C 748.096 525.456 742.817 525.528 742.135 522.057 C 745.81 519.421 755.099 521.177 759.593 521.128 C 770.849 521.006 782.458 520.04 792.743 525.501 C 803.855 531.404 804.773 548.8 796.793 557.67 C 791.18 563.907 781.693 566.698 773.535 566.894 C 770.529 566.967 766.882 565.619 764.083 566.604 C 763.595 574.072 762.043 583.907 764.083 591.155 C 766.475 594.58 769.969 595.177 773.729 596.339 C 775.241 600.127 769.532 598.896 767.226 598.88 C 760.994 598.842 754.776 598.721 748.543 598.839 C 746.087 598.883 742.876 599.511 741.514 597.318 Z M 763.707 527.085 C 763.277 534.705 763.653 542.439 763.707 550.074 C 763.73 553.653 763.142 558.493 764.246 561.888 C 770.554 562.109 777.807 562.153 782.841 557.737 C 791.099 550.494 790.447 534.246 781.319 528.046 C 776.527 524.8 769.804 525.226 764.341 525.903 C 764.131 526.298 763.918 526.691 763.707 527.085 Z" opacity="1" fill="rgb(90,135,86)" fill-rule="evenodd" style="" id="object-25"/>
  <path d="M 661.394 326.819 C 665.202 326.838 669.015 326.924 672.829 326.869 C 674.963 326.84 677.601 326.575 679.633 327.279 C 693.245 345.832 709.142 362.743 723.501 380.712 C 724.633 377.516 723.681 372.212 723.698 368.799 C 723.739 361.012 723.696 353.222 723.698 345.434 C 723.701 342.132 724.51 337.381 723.271 334.259 C 722.295 331.8 719.676 330.579 717.253 330.232 C 716.475 330.12 714.784 330.254 714.132 329.815 C 713.451 329.365 713.685 327.789 713.669 327.165 C 715.337 326.163 718.536 326.748 720.458 326.79 C 725.713 326.9 731.01 326.407 736.253 326.741 C 736.879 327.497 736.808 328.777 736.771 329.719 C 735.696 329.628 734.6 329.672 733.54 329.891 C 726.807 331.284 728.058 339.598 728.041 344.71 C 728.002 356.512 728.112 368.317 728.09 380.122 C 728.081 386.594 727.579 393.371 728.196 399.81 C 726.9 399.8 725.664 399.912 724.375 399.703 C 722.886 398.775 721.803 396.541 720.757 395.136 C 718.661 392.329 716.452 389.602 714.273 386.859 C 707.001 377.723 699.485 368.797 692.116 359.737 C 688.752 355.605 685.378 351.482 682.044 347.327 C 680.915 345.918 679.967 344.39 678.841 342.985 C 678.445 342.488 678.082 341.89 677.608 341.463 C 677.461 341.331 677.323 340.884 677.202 341.04 C 677.002 341.292 677.046 341.664 676.969 341.977 C 677.652 353.652 676.98 365.588 676.957 377.289 C 676.954 380.68 676.955 384.074 677.02 387.467 C 677.046 388.904 676.871 390.627 677.566 391.949 C 679.347 395.347 683.16 395.831 686.523 396.29 C 686.676 396.843 687.139 398.702 686.608 399.108 C 680.114 398.931 673.6 398.87 667.108 398.925 C 665.647 398.938 660.773 399.364 662.921 396.278 C 666.342 395.987 670.349 395.918 672.037 392.298 C 672.872 390.498 672.609 388.272 672.6 386.349 C 672.578 383.098 672.559 379.848 672.553 376.596 C 672.536 367.863 672.579 359.131 672.622 350.395 C 672.642 346.008 673.274 340.814 672.365 336.519 C 671.852 334.098 668.338 331.188 666.056 330.478 C 665.277 330.237 661.642 330.031 661.322 329.308 C 661.046 328.684 661.27 327.472 661.394 326.819 Z" opacity="1" fill="rgb(55,102,158)" fill-rule="evenodd" style="" id="object-26"/>
  <path d="M 661.411 421.532 C 662.708 420.764 664.7 421.07 666.165 421.091 C 669.305 421.135 672.435 420.947 675.576 420.956 C 688.538 420.99 704.915 418.33 715.484 427.76 C 722.696 434.195 722.792 445.837 716.76 453.05 C 713.427 457.038 708.651 459.066 703.824 460.593 C 705.806 464.134 708.945 467.19 711.119 470.681 C 715.734 478.091 720.61 487.926 727.703 493.267 C 730.193 495.142 733.173 495.832 736.024 496.922 C 736.028 497.71 735.934 498.491 735.783 499.263 C 731.317 499.368 726.844 499.432 722.369 499.417 C 720.449 499.411 717.791 499.747 716.005 498.961 C 713.435 497.002 711.53 493.096 709.836 490.373 C 706.472 484.956 702.988 479.615 699.658 474.177 C 697.389 470.474 695.216 466.237 691.715 463.524 C 690.039 462.943 684.987 462.24 683.615 463.408 C 683.185 470.141 683.395 476.963 683.412 483.712 C 683.418 486.206 682.827 489.91 684.08 492.143 C 686.178 495.875 689.546 496.197 693.419 496.404 C 693.582 497.16 693.967 498.489 693.37 499.127 C 686.068 498.925 678.68 499.172 671.37 499.212 C 668.304 499.227 664.685 499.797 661.699 499.065 C 661.518 498.168 661.263 497.398 661.825 496.637 C 665.245 495.907 669.177 495.578 670.675 491.867 C 671.461 489.92 671.211 487.558 671.192 485.508 C 671.156 481.83 671.181 478.153 671.171 474.475 C 671.14 464.359 671.133 454.243 671.158 444.126 C 671.171 439.557 672.137 433.687 670.777 429.284 C 669.495 425.139 665.286 424.515 661.537 424.37 C 661.348 423.419 661.393 422.5 661.411 421.532 Z M 683.634 425.465 C 682.958 429.125 683.334 433.144 683.321 436.861 C 683.293 444.237 683.363 451.615 683.447 458.987 C 689.691 459.526 696.7 459.059 701.841 455.083 C 709.044 449.515 709.839 434.852 702.467 428.987 C 697.286 424.862 689.908 424.615 683.634 425.465 Z" opacity="1" fill="rgb(95,138,82)" fill-rule="evenodd" style="" id="object-27"/>
  <path d="M 811.46 521.863 C 818.659 520.326 826.979 521.258 834.332 521.234 C 836.781 521.225 840.316 520.537 842.515 521.624 C 843.265 525.679 837.48 524.933 834.612 526.976 C 833.317 529.746 833.687 533.384 833.648 536.4 C 833.574 542.351 833.748 548.301 833.639 554.253 C 833.509 561.339 833.09 568.505 833.904 575.56 C 835.978 593.556 859.823 601.63 871.586 586.816 C 879.349 577.042 875.875 559.169 875.88 547.544 C 875.884 538.13 879.137 525.911 866.392 524.392 C 863.735 521.121 869.534 521.331 871.384 521.225 C 877.214 520.893 885.223 520.61 890.878 522.057 C 891.513 524.861 884.07 526.264 882.301 528.21 C 880.312 532.558 881.522 539.089 881.685 543.789 C 882.096 555.818 883.955 570.963 880.419 582.562 C 873.225 606.147 833.38 606.723 823.532 585.029 C 821.667 580.918 821.516 576.487 821.233 572.071 C 820.655 563.051 820.76 553.955 821.112 544.916 C 821.319 539.663 822.494 532.824 820.247 527.923 C 817.824 524.817 812.238 525.72 811.46 521.863 Z" opacity="1" fill="rgb(91,140,87)" fill-rule="evenodd" style="" id="object-28"/>
  <path d="M 748.752 358.318 C 749.626 353.364 750.797 348.514 753.291 344.088 C 762.144 328.406 780.416 322.762 797.451 325.931 C 802.672 326.902 808.958 327.797 813.218 331.261 C 812.69 336.74 813.339 342.327 813.594 347.795 C 812.65 347.695 811.52 347.857 810.571 347.977 C 809.94 347.458 809.882 346.296 809.662 345.521 C 809.16 343.767 808.4 342.103 807.608 340.46 C 805.306 335.672 801.146 332.404 796.268 330.469 C 793.297 329.293 789.639 328.884 786.463 328.918 C 758.513 329.213 755.159 369.03 768.943 386.575 C 774.946 394.223 783.192 397.408 792.764 396.33 C 795.972 395.968 799.619 395.296 802.122 393.104 C 802.835 391.699 802.368 389.457 802.354 387.92 C 802.317 384.301 802.362 380.682 802.351 377.064 C 802.344 375.225 802.672 373.078 801.309 371.626 C 799.217 369.39 796.202 369.642 793.385 369.228 C 792.844 368.315 793.048 367.233 793.038 366.194 C 796.4 365.652 799.99 366.197 803.39 366.187 C 809.267 366.173 815.207 365.946 821.074 366.264 C 821.375 367.121 821.488 368.104 821.241 368.99 C 818.907 369.237 815.866 370.066 814.808 372.419 C 813.976 374.268 814.383 377.137 814.357 379.13 C 814.288 384.498 814.507 389.879 814.408 395.241 C 809.883 398.116 802.909 398.932 797.697 399.783 C 780.431 402.599 760.795 398.731 752.367 381.706 C 750.918 378.779 749.752 375.614 749.155 372.398 C 748.288 367.737 748.153 363.019 748.752 358.318 Z" opacity="1" fill="rgb(54,102,159)" fill-rule="evenodd" style="" id="object-29"/>
  <path d="M 900.705 522.752 C 901.842 521.065 902.938 521.398 904.853 521.234 C 908.993 520.879 916.07 520.137 919.85 521.82 C 928.834 533.999 939.135 545.421 948.732 557.125 C 954.394 564.022 959.229 571.873 965.104 578.521 C 966.618 576.253 965.546 569.408 965.603 566.61 C 965.758 557.307 966.086 547.961 965.857 538.657 C 965.775 535.429 966.348 530.642 964.539 527.848 C 962.322 525.626 954.508 524.52 955.94 521.231 C 961.299 521.017 966.658 521.288 972.034 521.229 C 974.808 521.201 977.696 520.763 980.388 521.632 C 980.469 524.422 973.368 526.029 971.518 528.051 C 969.53 532.332 970.913 539.844 970.929 544.554 C 970.987 557.019 970.995 569.485 971.011 581.948 C 971.028 586.349 971.011 590.752 971.019 595.153 C 971.019 596.147 971.404 598.721 970.668 599.428 C 963.967 599.698 959.295 589.555 955.49 584.821 C 942.833 569.078 930.724 552.825 917.731 537.359 C 915.898 538.745 916.717 547.467 916.717 550.053 C 916.684 559.824 916.749 569.593 916.659 579.361 C 916.627 583.441 915.808 589.111 918.312 592.602 C 920.546 594.83 923.638 595.163 926.404 596.476 C 927.132 599.612 923.794 598.896 921.544 598.913 C 916.725 598.947 911.922 598.955 907.103 599.073 C 904.902 599.127 902.66 599.689 901.695 597.482 C 903.945 594.851 908.265 594.785 910.867 592.083 C 913.182 588.114 911.881 580.923 911.881 576.46 C 911.881 565.862 911.832 555.264 911.93 544.67 C 911.971 540.519 913.117 534.591 911.488 530.681 C 909.631 526.194 904.517 524.881 900.705 522.752 Z" opacity="1" fill="rgb(89,137,87)" fill-rule="evenodd" style="" id="object-30"/>
  <path d="M 741.26 422.518 C 741.295 422.2 741.329 421.883 741.361 421.564 C 743.366 420.534 745.722 420.995 747.92 420.99 C 752.808 420.983 758.694 420.005 763.47 421.033 C 766.502 427.457 768.967 434.165 771.802 440.688 C 777.703 454.259 783.819 467.769 789.407 481.46 C 790.558 480.541 790.924 477.999 791.457 476.676 C 792.944 472.986 794.652 469.382 796.166 465.702 C 800.145 456.016 804.416 446.459 808.216 436.697 C 809.53 433.32 810.771 429.919 812.068 426.537 C 812.749 424.772 813.11 422.701 814.142 421.111 C 819.594 420.601 825.199 420.961 830.675 420.885 C 831.691 420.871 835.396 420.355 835.987 421.115 C 836.17 422.11 836.032 422.996 835.994 423.987 C 832.776 424.363 828.639 424.761 827.126 428.201 C 826.41 429.828 826.72 432.163 826.722 433.903 C 826.725 437.534 826.745 441.161 826.753 444.792 C 826.777 455.503 826.874 466.209 826.999 476.921 C 827.049 481.297 826.147 487.457 827.707 491.588 C 829.573 496.525 833.582 494.723 837.164 496.535 C 837.183 497.448 837.348 498.329 837.4 499.241 C 834.024 498.661 829.875 499.254 826.423 499.266 C 819.44 499.29 812.454 499.163 805.474 499.317 C 804.696 498.767 804.868 497.438 804.935 496.546 C 807.929 495.882 811.847 495.917 813.773 493.064 C 815.519 490.482 814.764 485.171 814.816 482.19 C 814.978 472.806 814.664 463.41 814.69 454.024 C 814.703 449.093 814.867 444.163 814.831 439.232 C 814.817 437.264 815.033 435.363 815.189 433.412 C 815.22 433.006 815.148 431.386 814.661 432.406 C 811.607 438.87 809.291 445.876 806.65 452.533 C 802.547 462.883 797.69 472.935 793.484 483.24 C 791.788 487.395 790.306 491.709 788.343 495.747 C 787.429 497.623 787.232 499.414 784.826 499.379 C 783.388 498.276 782.858 495.808 782.184 494.184 C 780.372 489.825 778.556 485.46 776.802 481.076 C 772.767 470.99 768.005 461.185 763.787 451.178 C 762.041 447.039 760.373 442.869 758.598 438.744 C 757.788 436.866 757.413 435.109 756.172 433.43 C 755.043 446.926 756.112 460.92 756.112 474.475 C 756.112 478.314 756.097 482.15 756.103 485.987 C 756.107 487.904 755.852 490.276 756.724 492.048 C 758.67 496.011 762.332 495.56 765.92 496.375 C 765.999 497.35 766.02 498.316 766.075 499.291 C 757.946 499.179 749.414 498.686 741.312 499.391 C 740.86 498.542 740.886 497.305 741.485 496.562 C 744.546 495.374 749.333 495.829 750.832 491.994 C 752.488 487.762 751.543 481.581 751.565 477.128 C 751.615 466.569 751.657 456.007 751.657 445.449 C 751.657 441.628 751.621 437.806 751.578 433.986 C 751.559 432.475 751.847 430.523 751.281 429.089 C 749.801 425.34 745.048 424.69 741.659 424.189 C 741.316 423.585 741.26 423.206 741.26 422.518 Z" opacity="1" fill="rgb(97,140,83)" fill-rule="evenodd" style="" id="object-31"/>
  <path d="M 992.477 554.667 C 993.847 548.12 995.557 541.529 999.727 536.112 C 1013.76 517.91 1040.53 514.674 1060.06 525.606 C 1060.74 526.464 1060.35 528.557 1060.35 529.635 C 1060.34 533.071 1061.69 540.937 1060.01 543.756 C 1058.99 544.24 1058.08 544.259 1056.98 544.042 C 1054.21 538.596 1053.59 533.288 1048.57 529.041 C 1037.52 519.68 1018.82 523.972 1011.57 535.801 C 1000.4 554.003 1005.43 590.109 1030.28 594.127 C 1037.54 595.299 1044.33 593.928 1050.72 590.332 C 1053.81 588.591 1056.28 585.169 1059.78 584.453 C 1061.05 585.241 1061.82 585.947 1062.39 587.324 C 1061.08 590.095 1058.04 591.888 1055.55 593.438 C 1048.99 597.502 1041.82 599.764 1034.11 600.088 C 1008.67 601.151 988.447 580.355 992.477 554.667 Z" opacity="1" fill="rgb(89,135,85)" fill-rule="evenodd" style="" id="object-32"/>
  <path d="M 833.57 323.491 C 836.247 317.797 843.749 317.982 846.548 323.691 C 849.851 330.427 846.542 339.369 840.855 343.734 C 839.257 344.964 836.099 347.349 833.958 346.725 C 833.536 345.797 833.439 344.931 833.435 343.915 C 836.794 341.071 840.484 339.734 841.215 334.844 C 841.349 333.948 841.639 332.445 841.045 331.71 C 839.515 331.527 837.596 331.554 836.139 331.018 C 833.259 329.962 832.821 325.983 833.57 323.491 Z" opacity="1" fill="rgb(54,100,156)" fill-rule="evenodd" style="" id="object-33"/>
  <path d="M 860.417 377.754 C 861.409 377.597 862.685 377.247 863.586 377.723 C 865.82 384.645 866.804 391.58 874.067 395.197 C 884.258 400.271 897.8 394.438 896.164 381.974 C 895.067 373.676 886.65 370.284 879.956 367.297 C 870.535 363.089 862.166 356.818 862.19 345.585 C 862.238 326.013 888.812 319.37 902.627 329.895 C 902.906 334.838 903.2 340.229 902.832 345.172 C 902.014 345.321 901.138 345.258 900.312 345.265 C 899.117 344.37 898.995 341.704 898.569 340.311 C 897.62 337.258 896.139 334.327 893.611 332.291 C 885.845 326.04 872.496 328.83 871.681 339.852 C 871.555 341.562 871.695 343.273 872.21 344.915 C 873.904 350.35 879.344 353.019 884.069 355.409 C 892.615 359.733 903.429 364.188 905.876 374.48 C 906.448 376.861 906.547 379.375 906.195 381.798 C 903.863 397.971 886.721 403.015 872.606 400.106 C 868.782 399.318 863.672 398.143 860.822 395.274 C 860.228 393.533 860.544 391.323 860.527 389.49 C 860.494 385.577 860.315 381.667 860.417 377.754 Z" opacity="1" fill="rgb(56,102,159)" fill-rule="evenodd" style="" id="object-34"/>
  <path d="M 1071.81 530.523 C 1072.08 527.581 1071.74 524.377 1072.79 521.6 C 1081.22 520.026 1090.8 521.295 1099.37 521.328 C 1113.21 521.383 1127.35 520.252 1141.11 521.333 C 1141.28 527.189 1142.63 533.97 1141.73 539.727 C 1140.45 540.001 1139.1 540.428 1137.81 540.225 C 1136.67 537.098 1136.01 533.961 1133.95 531.259 C 1129.37 525.204 1120.15 525.222 1113.35 526.609 C 1112.65 538.044 1113.08 549.61 1113.09 561.064 C 1113.11 569.874 1112.54 578.897 1113.21 587.682 C 1113.45 591.185 1114.71 593.189 1118.02 594.482 C 1119.53 595.063 1123.39 595.768 1122.88 597.703 C 1120.91 598.817 1118.02 598.219 1115.85 598.204 C 1110.06 598.158 1104.23 598.14 1098.46 598.438 C 1095.97 598.566 1092.29 599.387 1090.72 597.262 C 1092.64 593.664 1099.04 595.656 1100.51 590.511 C 1102.02 585.149 1101.01 578.674 1101.02 573.162 C 1101.02 562.532 1101.02 551.9 1101.08 541.27 C 1101.08 536.407 1100.47 531.001 1101.19 526.213 C 1094.71 526.253 1086.08 524.705 1080.57 529.023 C 1076.36 532.345 1077.88 536.73 1075.56 540.765 C 1075.13 541.494 1072.65 541.077 1071.99 541.047 C 1070.66 538.034 1071.55 533.722 1071.81 530.523 Z" opacity="1" fill="rgb(92,135,85)" fill-rule="evenodd" style="" id="object-35"/>
  <path d="M 850.745 453.496 C 851.344 448.726 852.947 444.202 855.128 439.94 C 865.615 419.438 893.667 413.399 912.756 425.542 C 920.561 430.51 926.206 438.94 928.784 447.722 C 930.469 453.478 930.952 459.891 930.101 465.829 C 928.767 475.199 924.357 484.766 917.174 491.082 C 902.021 504.413 876.491 504.259 861.973 489.942 C 852.557 480.657 849.134 466.314 850.745 453.496 Z M 864.602 450.204 C 863.092 463.806 865.489 481.032 876.198 490.689 C 885.19 498.799 900.581 498.946 908.82 489.726 C 913.59 484.393 915.701 476.57 916.421 469.62 C 917.853 455.712 915.374 438.583 904.222 428.929 C 895.737 421.582 880.872 421.19 872.892 429.573 C 867.717 435.009 865.412 442.91 864.602 450.204 Z" opacity="1" fill="rgb(96,139,83)" fill-rule="evenodd" style="" id="object-36"/>
  <path d="M 1150.65 521.415 C 1157.75 521.195 1164.87 521.124 1171.93 521.181 C 1174.83 521.202 1178.6 520.61 1181.14 522.107 C 1181.32 522.547 1182.03 523.62 1181.3 523.987 C 1177.68 525.78 1172.56 524.775 1171.85 530.347 C 1170.53 540.566 1171.57 551.592 1171.54 561.894 C 1171.51 568.873 1170.89 576.364 1174 582.836 C 1181.05 597.47 1204.31 598.499 1211.8 583.546 C 1214.64 577.833 1214.28 571.108 1214.47 564.902 C 1214.79 552.976 1215.41 540.341 1213.96 528.489 C 1211.59 525.114 1205.05 525.754 1204.53 521.576 C 1210.02 519.933 1216.99 521.121 1222.71 521.078 C 1224.72 521.065 1228.19 520.594 1229.81 521.792 C 1229.42 524.34 1223.18 525.749 1221.18 527.124 C 1218.53 531.324 1220.01 539.678 1220.04 544.541 C 1220.12 557.772 1222.97 575.112 1216.71 587.274 C 1207.17 605.893 1171.86 605.108 1162.53 586.774 C 1159.24 580.314 1159.23 573.085 1159.21 565.995 C 1159.21 553.639 1161.17 539.925 1159.02 527.751 C 1156.56 525.16 1152.65 524.826 1150.07 522.324 C 1150.28 522.02 1150.47 521.718 1150.65 521.415 Z" opacity="1" fill="rgb(92,139,87)" fill-rule="evenodd" style="" id="object-37"/>
  <path d="M 1241.04 522.048 C 1246.27 520.307 1252.22 521.105 1257.66 521.072 C 1269.15 521.011 1281.63 519.691 1291.84 526.151 C 1300.45 531.61 1301.85 544.433 1295.62 552.312 C 1292.52 556.229 1287.26 558.364 1282.95 560.663 C 1289.61 569.969 1294.97 580.37 1302.08 589.339 C 1304.79 592.806 1307.92 593.861 1311.63 595.932 C 1312.67 596.519 1313.87 597.497 1313.45 598.817 C 1307.83 599.257 1300.05 600.152 1294.62 598.457 C 1291.55 596.096 1289.54 592.377 1287.38 589.202 C 1281.85 580.935 1277.78 570.79 1270.89 563.566 C 1268.28 562.554 1265.3 563.042 1262.59 562.78 C 1260.54 568.876 1262.75 576.397 1262.2 582.724 C 1261.96 585.503 1261.48 589.312 1263.12 591.786 C 1265.38 595.126 1270.51 594.262 1272.46 597.155 C 1271.7 599.683 1267.45 598.732 1265.43 598.709 C 1258.94 598.633 1252.46 598.689 1245.98 598.726 C 1244.23 598.737 1240.34 598.96 1241.74 596.281 C 1244.3 594.712 1247.71 593.998 1249.56 591.499 C 1251.45 582.235 1249.88 572.018 1249.86 562.627 C 1249.84 551.433 1251.3 539.494 1249.71 528.395 C 1247.61 525.413 1243.49 524.73 1241.04 522.048 Z M 1262.08 525.565 C 1262.26 533.158 1261.84 540.846 1261.94 548.472 C 1261.98 551.448 1261.26 555.727 1262.45 558.473 C 1268.73 558.677 1275.88 558.775 1281.03 554.548 C 1288.92 548.044 1287.91 533.736 1279.52 528.189 C 1273.97 524.528 1268.23 525.749 1262.08 525.565 Z" opacity="1" fill="rgb(95,137,88)" fill-rule="evenodd" style="" id="object-38"/>
  <path d="M 941.727 421.717 C 941.801 421.429 941.875 421.145 941.948 420.86 C 947.856 419.899 955.137 420.344 961.118 420.75 C 962.738 421.804 963.998 423.954 965.201 425.446 C 967.868 428.724 970.536 432.004 973.162 435.314 C 980.992 445.185 989.237 454.734 997.117 464.56 C 1000.09 468.258 1003.06 471.963 1006.06 475.643 C 1006.6 476.313 1008.23 479.243 1009.01 479.251 C 1009.37 478.215 1009.07 476.901 1009.1 475.807 C 1009.17 472.95 1009.11 470.075 1009.12 467.216 C 1009.13 458.549 1009.35 449.885 1009.35 441.219 C 1009.35 437.323 1010.38 431.462 1008.4 427.943 C 1006.21 424.048 1002.49 424.535 998.687 423.87 C 998.327 422.999 998.437 422.13 998.427 421.191 C 1003.81 419.881 1010.39 420.835 1015.91 420.817 C 1018.09 420.809 1021.37 420.259 1023.35 421.191 C 1023.8 421.973 1023.72 422.58 1023.42 423.418 C 1022.49 424.553 1020.34 424.353 1019.02 424.679 C 1017.17 425.131 1015.8 426.667 1014.96 428.316 C 1013.88 430.441 1014.12 433.234 1014.11 435.545 C 1014.09 439.944 1014.11 444.342 1014.12 448.743 C 1014.14 459.957 1014.07 471.176 1014.17 482.391 C 1014.23 488.068 1014.86 494.158 1014.3 499.795 C 1008.25 500.537 1004.85 492.833 1001.51 488.69 C 991.507 476.254 981.876 463.468 971.575 451.267 C 968.376 447.47 965.389 443.494 962.19 439.699 C 961.437 438.812 959.973 435.947 958.877 436.635 C 958.312 450.085 958.664 463.604 958.68 477.064 C 958.688 481.689 957.314 489.181 960.423 493.011 C 963.18 496.408 966.69 494.765 969.938 496.425 C 970.02 497.379 970.004 498.296 970.037 499.251 C 963.745 498.738 957.052 499.139 950.736 499.225 C 949.451 499.242 945 500.013 944.067 498.91 C 943.789 498.576 943.732 497.058 943.667 496.696 C 946.776 495.835 951.333 495.72 953.117 492.562 C 953.967 491.043 953.877 488.956 953.959 487.268 C 954.107 483.825 954.09 480.372 954.107 476.927 C 954.164 466.438 954.098 455.949 954.049 445.459 C 954.033 440.994 955.031 434.753 953.485 430.496 C 951.758 425.75 945.884 424.583 941.637 423.767 C 941.629 423.076 941.67 422.403 941.727 421.717 Z" opacity="1" fill="rgb(95,139,85)" fill-rule="evenodd" style="" id="object-39"/>
  <path d="M 1321.24 596.196 C 1324 594.874 1328.04 594.312 1329.71 591.499 C 1330.74 586.03 1330.14 580.009 1330.12 574.46 C 1330.11 564.788 1330.12 555.134 1330.44 545.468 C 1330.56 540.847 1332.34 531.973 1329.81 527.965 C 1327.77 524.723 1323.39 524.528 1321 521.718 C 1325.02 520.187 1330.44 521.11 1334.72 521.115 C 1344.61 521.128 1354.51 521.17 1364.41 521.181 C 1367.64 521.187 1370.88 521.172 1374.11 521.144 C 1375.25 521.131 1377.46 520.691 1378.32 521.496 C 1378.49 525.932 1378.5 530.376 1378.64 534.816 C 1378.73 537.244 1379.5 539.778 1376.27 539.45 C 1373.63 536.031 1373.45 531.559 1369.99 528.62 C 1364.8 524.223 1356.68 525.769 1350.41 525.56 C 1347.99 525.479 1344.44 524.899 1342.64 526.641 C 1341.6 535.813 1342.42 545.739 1342.67 554.972 C 1346.76 557.081 1356.02 555.462 1360.68 555.345 C 1362.1 555.308 1364.77 555.82 1366.02 555.081 C 1367.26 551.835 1368.48 546.688 1372.25 545.939 C 1373.32 547.978 1372.85 550.642 1372.85 552.903 C 1372.87 558.18 1373.95 565.25 1372.44 570.307 C 1368.81 571.612 1366.77 562.663 1364.49 560.689 C 1357.52 559.662 1349.83 560.044 1342.84 560.402 C 1341.61 567.353 1342.11 574.928 1342.22 581.968 C 1342.28 585.721 1341.84 589.683 1343.22 593.249 C 1345.29 594.997 1351.16 594.291 1353.76 594.279 C 1360.4 594.246 1368.97 594.897 1373.93 589.62 C 1377.1 586.235 1378.24 581.63 1380.71 577.812 C 1381.08 577.87 1383.69 577.931 1383.87 578.719 C 1384.74 582.884 1382 589.41 1381.54 593.7 C 1381.41 595.049 1381.5 597.817 1380.61 598.824 C 1360.99 599.582 1340.88 599.584 1321.26 598.994 C 1320.46 597.259 1320.52 598.19 1321.24 596.196 Z" opacity="1" fill="rgb(95,140,89)" fill-rule="evenodd" style="" id="object-40"/>
  <path d="M 1030.08 421.49 C 1032.54 420.172 1036.75 420.964 1039.52 420.971 C 1046.81 420.997 1054.18 421.375 1061.46 420.845 C 1061.99 421.545 1061.79 423.065 1061.68 423.895 C 1059.36 424.096 1056.88 424.408 1055.33 426.284 C 1054.24 429.485 1057.45 432.974 1058.84 435.658 C 1063.03 443.848 1068.14 451.558 1072.26 459.766 C 1072.79 459.917 1073.4 458.336 1073.61 457.937 C 1074.67 456.076 1075.72 454.213 1076.76 452.344 C 1080.07 446.372 1083.4 440.417 1086.79 434.482 C 1087.96 432.42 1090.22 429.209 1089.21 426.731 C 1086.96 424.505 1084.73 424.26 1081.72 424.173 C 1081.11 423.44 1081.37 422.302 1081.44 421.39 C 1083.93 420.492 1087.06 420.97 1089.68 420.952 C 1094.54 420.92 1099.98 420.234 1104.77 420.929 C 1104.82 421.948 1104.73 422.944 1104.52 423.944 C 1102.51 425.489 1099.8 425.024 1097.73 427.045 C 1093.35 431.323 1090.53 437.706 1087.45 442.929 C 1084.42 448.026 1081.44 453.153 1078.5 458.286 C 1077.35 460.256 1075.56 462.372 1074.95 464.58 C 1074.11 467.612 1074.7 471.654 1074.71 474.782 C 1074.73 479.068 1074.7 483.357 1074.74 487.64 C 1074.77 490.514 1075.36 493.701 1078.16 495.24 C 1079.97 496.24 1082.2 495.769 1084.11 496.345 C 1084.19 497.363 1084.25 498.321 1084.23 499.342 C 1076.45 498.345 1067.85 499.176 1059.99 499.254 C 1058.04 499.273 1056.08 499.296 1054.14 499.23 C 1053.86 499.219 1052.41 499.371 1052.24 499.113 C 1051.9 498.597 1052.28 497.011 1052.39 496.44 C 1054.82 495.614 1057.68 495.963 1059.85 494.365 C 1061.91 492.853 1062.18 490.458 1062.2 488.088 C 1062.26 484.312 1062.19 480.531 1062.18 476.753 C 1062.17 473.395 1063.08 468.673 1062.12 465.468 C 1060.78 461.053 1056.92 456.534 1054.5 452.621 C 1050.07 445.441 1045.94 438.079 1041.56 430.874 C 1040.26 428.75 1038.77 426.541 1036.58 425.274 C 1033.84 423.703 1030.1 425.46 1030.08 421.49 Z" opacity="1" fill="rgb(96,140,84)" fill-rule="evenodd" style="" id="object-41"/>
</svg>