<svg xmlns="http://www.w3.org/2000/svg" xmlns:xlink="http://www.w3.org/1999/xlink" id="e5dfgS3esum1" shape-rendering="geometricPrecision" text-rendering="geometricPrecision" project-id="78e51781b38f4113966711bd866771aa" export-id="1af9580d6c16495fb7d978ef1f17d3b0" cached="false" viewBox="259.69 399.86 504.62 224.28"><path d="M473.925,379.27c2.362-.507,5.16.12,7.582.114c5.02-.014,10.505-.59,15.454.264.092.652.145,1.125.006,1.767-1.496,1.266-3.77-.211-4.96,2.117-.62,1.214-.388,2.721-.079,3.991.677,2.78,1.765,5.581,2.709,8.285c3.715,10.645,8.085,21.088,11.15,31.951.277.05.913-2.222,1.074-2.565c1.295-2.748,2.131-5.815,3.102-8.691c1.36-4.028,2.819-8.061,4.291-12.049.473-1.279,1.425-2.622,1.612-3.977.205-1.487-.743-3.412-1.193-4.788-1.3-3.976-2.478-9.415-5.256-12.643-1.675-.932-3.73-.871-5.456-1.698-.289-.669-.283-1.29-.13-1.999c5.875-.109,11.784.072,17.676.029c1.499-.011,3.002-.108,4.502-.064.44.013,1.395-.148,1.684.153.065.469.377,1.735.044,2.124-1.041-.035-2.261.008-3.28.225-4.776,1.019-1.915,8.037-.952,10.737c4.105,11.502,9.14,23.043,12.054,34.913.726-.145.935-2.162,1.16-2.796c1.035-2.917,2.079-5.858,2.988-8.816c2.366-7.696,5.305-15.194,7.529-22.935.724-2.524,2.43-6.166,1.502-8.809-.934-2.659-4.59-2.48-6.791-2.255-.26-.653.035-1.683.072-2.395.942-.821,3.723-.31,5.002-.244c4.437.227,8.916-.219,13.338.145.414.71.355,1.515.416,2.31-6.983-.89-8.601,8.083-10.256,13.056-5.24,15.739-11.088,31.293-16.229,47.05-.923.392-2.28.244-3.273.218-1.884-4.198-3.036-8.848-4.521-13.21-1.602-4.702-3.349-9.357-4.973-14.052-.832-2.405-1.778-4.807-2.545-7.226-.328-1.036-.615-2.432-1.53-3.094-1.547,7.658-5.248,15.145-7.853,22.5-1.229,3.468-2.345,6.957-3.632,10.403-.519,1.392-.857,3.047-1.693,4.286-.853.379-2.28.462-3.141.135-5.485-15.408-11.176-30.757-16.835-46.106-1.13-3.065-2.04-6.236-3.377-9.22-.539-1.203-1.074-2.918-2.19-3.723-1.102-.795-3.289-.944-4.621-.989-.421-.511-.185-1.834-.181-2.429Z" transform="translate(-214.167373 26.429134)" fill="#336a9f" fill-rule="evenodd"/><path d="M485.284,473.845c8.304-.056,16.683.069,24.981.185.021.432.2,2.229-.18,2.387-2.681-.135-5.666.232-6.918,3.038-.971,2.177-.646,5.318-.633,7.651.027,4.997.359,10.054.165,15.043c9.955.257,20.133.436,30.08-.034-.794-5.102.035-10.938.009-16.114-.011-1.995.454-5.005-.493-6.826-1.397-2.685-4.781-2.961-7.415-2.729-.103-.807.037-1.655.333-2.405c8.066.502,16.842.752,24.88-.217.137.447.33,2.418-.08,2.621-1.13-.062-2.331-.047-3.436.236-4.617,1.183-3.968,7.406-3.952,11.038.042,9.594.042,19.188.032,28.781-.002,2.834.02,5.667.017,8.501-.001,1.512-.241,3.247.245,4.701c1.158,3.462,4.132,3.736,7.212,3.993.438.687.62,1.489.7,2.295-.119.278-1.033.146-1.322.154-1.645.042-3.289-.022-4.934-.047-6.427-.098-12.843.013-19.262-.073-.144-.829-.189-1.445.003-2.27c2.385-.469,5.033-.222,6.753-2.249c1.295-1.526.653-5.122.674-7.005.072-6.222-.557-12.759.088-18.936-9.952.084-20.005-.599-29.955-.04-.506,1.838-.19,4.081-.189,5.978.003,4.167.042,8.334.038,12.501-.002,2.014-.556,5.273.538,7.059c1.467,2.398,4.963,2.828,7.468,2.731.221.605.092,1.862-.067,2.491-8.408-.941-16.993.114-25.422-.082.013-.822-.014-1.638.035-2.459c2.506-.636,5.949-.286,7.26-3.054.61-1.287.367-2.822.422-4.195.132-3.321-.005-6.668-.028-9.996-.058-7.997-.091-16-.093-23.998-.001-3.907.716-8.539-.183-12.361-.4-1.705-2.41-3.558-4.159-3.714-.491-.044-3.177.17-3.424-.221-.245-.387.088-1.971.212-2.359Z" transform="translate(-214.167373 26.429134)" fill="#346a9e" fill-rule="evenodd"/><path d="M485.206,595.885c1.076-.837,2.673-.812,3.562-1.886c1.684-2.037,2.421-5.128,3.396-7.543c2.009-4.979,3.938-9.977,5.856-14.989.773-2.022,1.438-4.084,2.22-6.102.427-1.101.826-1.96,2.137-1.522c3.382,8.565,6.601,17.216,10.292,25.672.727,1.665,1.426,3.518,2.614,4.92.517.61,2.697,1.424,2.486,2.181-3.199.154-6.444.068-9.655.17-1.054.033-2.655.513-2.904-.738.833-1.108,2.396-.662,3.572-1.216.495-2.771-1.681-6.073-2.624-8.589-3.82-.271-7.981-.429-11.793-.041-1.203,2.712-2.368,5.413-2.693,8.405c1.151.525,2.408.545,3.65.466-.205.535-.294,1.224-.745,1.605-2.29.32-4.746.084-7.064.159-1.199.039-2.024.365-2.307-.952Zm10.246-12.31c-.062.22-.124.44-.187.661.808.319,1.888.031,2.755.033c2.384.003,4.858-.138,7.227.046-1.088-3.386-2.393-6.687-3.506-10.066-.18-.547-1.185-3.391-1.475-3.156-1.993,4.019-3.036,8.39-4.814,12.482Z" transform="translate(-214.167373 26.429134)" fill="#518a4f" fill-rule="evenodd"/><path d="M521.43,579.104c.509-3.224,1.316-6.048,3.221-8.75c3.861-5.48,11.4-7.684,17.839-6.584c2.267.387,5.026.928,6.863,2.376.65,1.435.846,5.969.28,7.442-.462.122-1.36.262-1.755.003-1.305-7.666-9.894-10.493-15.983-5.81-8.689,6.682-5.61,24.526,5.25,27.03c2.96.683,6.373.208,9.001-1.319c1.487-.864,2.617-2.349,4.428-2.326.579,1.23-.79,2.381-1.728,3.057-2.41,1.737-5.433,2.722-8.378,3.01-10.854,1.064-20.019-7.001-19.038-18.129Z" transform="translate(-214.167373 26.429134)" fill="#538d51" fill-rule="evenodd"/><path d="M554.929,564.302c3.363-.044,6.719.066,10.082.006c1.076-.019,2.975-.405,2.873,1.088-1.246.554-2.474.307-3.602,1.251-1.013,2.033-.438,4.778-.396,6.976.069,3.662-.114,7.331.006,10.991.086,2.641.272,5.27,2.114,7.342c4.674,5.255,14.38,3.168,15.812-3.928.664-3.289.128-7.175.117-10.524-.011-3.442.416-7.41-.535-10.744-1.09-1.255-3.369-.441-3.795-2.348c2.439-.712,5.423-.32,7.953-.283.86.013,2.141-.129,2.812.431-.509,1.486-2.658,1.551-3.807,2.449-.804,5.085-.236,10.628-.273,15.771-.02,2.628.158,5.451-.946,7.913-3.548,7.919-18.099,9.761-22.58,1.693-2.927-5.27-2.268-11.581-2.072-17.389.076-2.25.973-6.346-.378-8.325-.786-1.152-2.798-1.047-3.866-1.818.16-.184.321-.368.481-.552Z" transform="translate(-214.167373 26.429134)" fill="#518652" fill-rule="evenodd"/><path d="M555.926,440.142c.101-.707.035-.336.21-1.111c2.019-1.352,4.373-.777,6.163-2.667c1.388-1.465,1.995-3.613,2.802-5.422c1.756-3.938,3.279-7.994,4.87-12c3.341-8.412,6.989-16.697,10.309-25.115c2.019-5.118,3.56-10.553,5.999-15.489.649-.594,1.482-.504,2.33-.441c1.15,1.536,1.771,3.66,2.474,5.436c1.062,2.681,2.221,5.325,3.346,7.981c4.245,10.026,8.363,20.15,12.355,30.278c1.98,5.025,3.5,12.226,7.711,15.919c1.22,1.07,3.024.744,4.35,1.606.208.522.203,1.168.027,1.701-5.904-.366-11.951.02-17.869.068-2.134.017-4.3.324-6.42.028-.121-.732-.147-1.431-.188-2.173c2.412-.145,4.647-.319,6.006-2.624.435-1.292-.184-2.788-.563-4.039-.834-2.756-1.705-5.527-2.66-8.243-.414-1.176-.706-2.665-1.623-3.558-5.5.145-11.044-.064-16.551-.049-1.851.005-3.979-.357-5.783-.101-.715,1.307-1.217,2.708-1.742,4.098-1.49,3.948-5.228,10.156-1.103,13.714c1.463,1.262,3.688-.005,5.061.923-.048.68-.103,1.349-.122,2.03-4.108.128-8.206.146-12.317.197-2.157.027-4.581.388-6.689-.134-.416-.421-.269-.159-.383-.813Zm18.431-23.419c-.009.093-.019.187-.028.28.962.161,2.084-.18,3.082-.137c3.357.146,6.737.055,10.098.081c1.525.012,3.158.191,4.667.03.279-.03,2.081.176,2.073.042-2.901-6.073-4.756-12.832-7.216-19.109-.773-1.972-1.162-5.161-2.601-6.698-1.036,4.929-3.685,9.867-5.524,14.565-1.347,3.44-2.426,7.933-4.551,10.946Z" transform="translate(-214.167373 26.429134)" fill="#306ba0" fill-rule="evenodd"/><path d="M555.78,534.438c.111-.158.223-.316.334-.474c1.882-1.033,4.241-.663,5.897-2.175c1.483-1.355,2.041-3.513,2.878-5.275c2.146-4.522,3.818-9.268,5.737-13.89c3.339-8.036,6.828-16.05,9.873-24.205c1.909-5.111,3.642-10.336,5.785-15.349.602-.61,2.036-.303,2.843-.326c1.39,4.958,3.769,9.768,5.735,14.535c3.778,9.16,7.754,18.224,11.403,27.438c1.406,3.55,2.792,7.093,4.273,10.613c1.14,2.713,2.444,5.647,4.852,7.496c1.198.919,2.748.572,4.044,1.186.271.674.317,1.45.39,2.171-6.222-.588-12.813-.168-19.066-.069-1.602.025-3.205.122-4.806.114-.285-.001-1.239.143-1.434-.154-.154-.235.021-1.708.02-1.947.73-.54,2.001-.333,2.893-.458c1.319-.185,2.481-1.102,3.147-2.224.437-1.802-.238-3.495-.742-5.22-1.098-3.755-2.479-7.437-3.864-11.091-1.634-.621-4.096-.246-5.839-.216-3.709.064-7.422.136-11.131.157-1.503.009-4.437-.578-5.662.288-1.605,3.055-2.679,6.457-3.833,9.702-.946,2.656-1.586,5.221.567,7.436.795.819,1.552,1.263,2.696,1.279.616.009,2.191-.315,2.621.135.002.718.158,1.641-.002,2.329-4.417-.254-8.962-.06-13.391-.045-2.015.007-4.278.316-6.249-.102-.033-.564-.029-1.097.031-1.659Zm19.602-23.898c-.233.777-.207.413-.153,1.087c6.36-.124,12.833.586,19.184.078.134-1.267-1.411-3.619-1.858-4.823-1.398-3.762-2.921-7.485-4.28-11.26-.868-2.408-1.754-4.835-2.709-7.205-.202-.504-.355-2.257-1.04-1.867-1.371,4.511-3.457,8.821-5.101,13.243-1.324,3.559-2.486,7.288-4.043,10.747Z" transform="translate(-214.167373 26.429134)" fill="#30699f" fill-rule="evenodd"/><path d="M593.15,564.29c2.554-.314,5.203.079,7.775.066c4.263-.021,8.66-.652,12.641,1.335c5.569,2.78,6.309,10.598,1.861,14.627-2.48,2.246-5.829,2.9-9.086,2.858-1.211-.016-2.836-.793-3.916-.305-.185,3.332-1.202,8.669.376,11.724c1.374,1.234,3.156-.063,3.436,2.082-3.213-.193-6.52-.115-9.734.094-1.489.097-3,.642-3.377-1.071c1.012-1.09,2.936-.4,3.996-1.808.493-2.099.197-4.498.189-6.643-.014-4.083-.058-8.165-.05-12.248.005-2.262.685-5.513-.141-7.641-.997-.903-3.881-1.787-3.97-3.07Zm9.317,2.159c-.393,4.701-.507,9.979.017,14.676c1.026.602,3.164-.002,4.291-.24c5.317-1.119,7.887-7.708,4.389-12.112-1.644-2.071-6.226-4.177-8.697-2.324Z" transform="translate(-214.167373 26.429134)" fill="#568a55" fill-rule="evenodd"/><path d="M622.295,378.902c3.907.037,7.784.259,11.697.149c1.399-.039,3.773-.573,4.994.128c3.873,5.65,8.679,10.854,12.969,16.2c8.052,10.035,15.999,20.156,24.136,30.119.773-3.277.046-7.498-.015-10.861-.121-6.606-.009-13.184.045-19.789.025-3.032.845-8.292-.867-10.976-1.506-2.361-5.509-2.396-7.973-2.317.049-.76-.064-1.65.223-2.365c3.901-.234,7.866.104,11.781.053c2.592-.034,5.688-.523,8.217.119.192.782.113,1.578.238,2.362-.493-.193-1.436-.046-1.975-.046-.734-.001-1.501-.035-2.21.186-4.221,1.308-3.902,5.604-3.883,9.13.064,11.835-.005,23.67.044,35.505.014,3.501.011,7.002.014,10.504.001,1.309-.355,3.388.053,4.606-1.005.027-2.191.053-3.135-.312-1.134-1.011-1.974-2.52-2.925-3.707-2.234-2.787-4.424-5.608-6.618-8.426-7-8.991-14.419-17.658-21.479-26.602-2.395-3.033-4.941-5.961-7.182-9.111-.184-.259-2.249-2.79-2.31-2.746-.094.067.071,2.873.061,3.28-.08,3.333.021,6.675.031,10.008.024,7.466.038,14.933.004,22.398-.012,2.497-.825,6.717.514,8.934c1.662,2.751,4.936,3.1,7.804,3.491.033.331.327,1.853-.039,2.003-6.417-.265-13.08.728-19.464.047-.597-.541-.518-1.231-.524-2.003c2.462-.399,6.067-.148,7.483-2.667.646-1.149.504-2.745.535-4.016.068-2.778.048-5.557.037-8.335-.035-8.45-.03-16.9-.028-25.35c0-2.425.031-4.848.059-7.272.014-1.242.209-2.679-.232-3.87-.954-2.577-3.834-4.648-6.352-5.491-.863-.288-1.76-.437-2.665-.509-.15-.012-1.074.008-1.17-.179-.233-.451.035-1.804.107-2.272Z" transform="translate(-214.167373 26.429134)" fill="#306ba0" fill-rule="evenodd"/><path d="M622.729,564.184c2.464-.104,4.919.117,7.384.088c1.797-.022,3.641-.252,5.414.109.225.387.359.692.241,1.14-1.398.236-2.684.583-3.906,1.311-.825,1.658-.24,4.486-.24,6.324-.001,5.69-1.716,14.255,2.36,18.875c4.273,4.845,13.403,3.428,14.997-3.154.868-3.585.372-7.719.393-11.381.019-3.472.576-7.538-.281-10.923-1.379-.385-3.652-.398-3.799-2.067.906-.517,2.007-.312,3.03-.292c2.219.045,5.529-.516,7.594.299-.341,1.198-2.917,1.633-3.877,2.424-.53,2.02-.25,4.379-.224,6.453.044,3.457.076,6.914-.004,10.371-.054,2.31-.025,4.768-.989,6.927-3.955,8.854-18.973,9.097-23.025.144-2.358-5.209-1.248-11.983-1.213-17.539.012-2.072.602-5.074-.461-6.952-1.371-.724-3.474-.369-3.394-2.157Z" transform="translate(-214.167373 26.429134)" fill="#548a55" fill-rule="evenodd"/><path d="M625.436,475.129c.081-.689.049-.312.08-1.131c1.041-.552,2.829-.156,3.994-.116c2.827.096,5.666.002,8.494-.017c8.172-.054,17.775-1.21,25.457,2.149c9.229,4.034,13.058,14.829,6.383,23.057-1.639,2.019-3.637,3.679-6.074,4.636-1.585.623-3.282.702-4.759,1.605c5.622,5.73,9.311,13.383,14.1,19.798c1.98,2.652,4.051,5.932,6.944,7.678c1.349.814,2.894.656,4.333,1.168.071.729.16,1.473.127,2.207-1.46.453-3.488.116-5.01.104-3.101-.025-7.263.704-10.218-.259-2.287-2.029-3.946-5.069-5.62-7.6-3.105-4.698-6.139-9.441-9.232-14.147-1.505-2.289-2.835-5.081-4.914-6.911-1.482-.333-4.798-.98-6.189-.278-.069,5.142-.018,10.285.02,15.428.017,2.284-.457,5.207.219,7.396.691,2.235,2.294,3.335,4.505,3.767.578.113,3.103.114,3.335.734.142.38.034,1.227.081,1.645-.307.324-1.046.108-1.473.107-1.672-.004-3.344-.045-5.016-.064-6.571-.072-13.215.336-19.773.002.093-.814.03-1.692.595-2.322c2.678-.557,5.132-.225,6.952-2.702.88-1.533.632-3.51.611-5.207-.034-2.786-.02-5.574-.024-8.36-.013-8.666.038-17.333.029-25.999-.004-3.583.782-8.522-.672-11.879-1.259-2.904-4.504-3.235-7.27-3.272-.102-.414-.047-.795-.015-1.217Zm17.766,2.128c.241,4.04-.022,8.191-.01,12.246.014,4.88.281,9.827.067,14.697.452.257,1.199.072,1.708.056c1.802-.054,3.64-.005,5.423-.306c2.876-.484,6.358-1.527,8.457-3.675c5.954-6.093,4.434-18.718-3.759-22.05-3.576-1.453-8.104-1.322-11.886-.968Z" transform="translate(-214.167373 26.429134)" fill="#3068a0" fill-rule="evenodd"/><path d="M660.814,564.364c2.387-.032,4.789-.07,7.175-.025c1.125,2.01,3.124,3.527,4.584,5.309c3.007,3.674,5.939,7.406,8.961,11.069c1.853,2.246,3.514,5.612,5.863,7.344.402-.44-.012-1.067-.025-1.597-.026-1.137.186-2.303.189-3.451.009-3.246.174-6.494.193-9.741.01-1.617.209-3.504-.31-5.058-.386-1.155-1.177-2.055-2.395-2.346-.303-.072-1.665-.006-1.84-.295-.114-.187.139-1.028.175-1.174c2.452-.432,5.129.023,7.616-.012.722-.01,2.52-.231,2.325.895-.92,1.026-2.414,1.249-3.264,2.424-1.075,2.536-.375,6.563-.382,9.291-.019,6.863-.417,13.87.098,20.713-2.634-.172-4.716-4.228-6.148-6.173-4.306-5.848-8.998-11.385-13.527-17.054-.988-1.182-1.957-2.418-2.889-3.64-.001,5.223-.212,10.43-.255,15.654-.022,2.669-.273,5.538.223,8.171c1.334.484,4.064.222,3.943,2.08-.662.343-1.827.063-2.566.019-1.754-.106-3.475.12-5.224.107-.548-.004-1.855.213-2.319-.1-.345-.233-.106-.837-.068-1.072c1.249-.618,2.543-.475,3.828-.892.892-5.568-.004-11.687-.004-17.314c0-2.716.849-6.225.342-8.851-.4-2.071-4.538-2.533-4.299-4.281Z" transform="translate(-214.167373 26.429134)" fill="#538a53" fill-rule="evenodd"/><path d="M688.968,534.606c.031-.198.062-.396.094-.594c2.681-1.717,6.17.018,7.891-3.646.662-1.41.585-3.25.593-4.779.013-2.696.009-5.391.026-8.087.052-8.618.185-17.244.406-25.859.075-2.915.112-5.805-.067-8.716-.063-1.031.062-2.417-.373-3.374-1.223-2.689-5.569-3.138-8.078-3.395.068-.812.16-1.641.326-2.439c3.909.106,7.804.144,11.717.11c1.744-.016,3.966-.451,5.642-.055c4.911,10.942,9.698,22.015,14.227,33.12c2.062,5.056,3.667,10.597,6.287,15.385c3.186-6.773,5.689-13.923,8.525-20.857c3.689-9.022,7.452-17.937,10.754-27.115c1.133-.719,3.682-.202,5.026-.206c4.373-.015,8.787.059,13.148-.169.01.325.241,2.337-.019,2.431-2.765-.298-6.481.062-7.555,3.126-.508,1.447-.302,3.267-.309,4.778-.016,3.246-.012,6.495.028,9.741.1,8.042.218,16.084.32,24.125.046,3.611-.653,8.32.405,11.789.682,2.235,2.926,3.447,5.07,3.792.544.087,2.466-.064,2.738.317-.056.782-.071,1.562-.112,2.345-6.469.396-13.171-.205-19.674-.113-1.644.024-3.287.042-4.931.051-.205.001-1.26.172-1.413-.097-.251-.442-.064-1.682-.069-2.16c2.497-1.041,5.452.01,7.37-2.572c1.559-2.099.921-6.22.897-8.685-.069-7.1-.134-14.197-.132-21.298.001-3.999.021-8,.002-11.999-.008-1.576-.082-3.158.109-4.726.033-.266.33-1.27-.02-1.448-.128-.065-.17.232-.24.357-2.911,5.797-5.102,11.904-7.558,17.906-2.402,5.869-5.06,11.632-7.566,17.457-2.457,5.715-4.316,11.707-6.868,17.384-.532.399-1.304.273-1.944.318-.854-1.14-1.149-2.728-1.722-4.028-1.49-3.384-2.752-6.857-4.138-10.286-3.502-8.664-7.781-17.023-10.982-25.814-1.168-3.206-2.68-6.36-4.078-9.47-.247-.55-.97-2.745-1.536-2.445.22,10.092.15,20.191.078,30.287-.022,3.103-.02,6.207-.046,9.31-.014,1.69-.268,3.587.195,5.233c1.002,3.561,4.7,4.032,7.695,4.354.301.67.418,1.654.476,2.393-2.916-.43-6.136-.081-9.085-.072-3.824.011-7.742-.29-11.547-.12-.088-.502-.021-.977.017-1.485Z" transform="translate(-214.167373 26.429134)" fill="#336a9e" fill-rule="evenodd"/><path d="M696.962,407.099c.603-3.695,1.265-7.182,2.949-10.573c4.705-9.474,13.24-16.058,23.669-17.968c4.366-.8,8.864-.53,13.241-.005c3.83.46,7.512,1.366,11.119,2.722c1.242.466,2.848.939,3.9,1.749-.556,4.599-.216,9.715.02,14.34-.71.072-2.016.328-2.57-.254-.656-.689-.739-2.733-1.139-3.653-1.201-2.758-2.834-5.453-5.139-7.417-6.226-5.303-16.369-6.312-23.507-2.134-3.93,2.3-6.963,6.017-8.845,10.118-5.332,11.614-3.617,28.858,5.608,38.161c5.164,5.207,12.725,8.004,20.003,6.116c2.141-.556,4.841-1.26,6.326-3.026.808-4.207.197-9.386.045-13.669-.051-1.432.175-3.513-.913-4.612-2.113-2.133-5.06-.573-7.24-1.915-.079-.727-.036-1.433-.032-2.163c1.798-.38,3.843.017,5.675.081c3.436.122,6.931-.06,10.373-.076c2.433-.011,5.714-.595,8.05.076.094.732.053,1.798-.411,2.389-1.95.511-3.75.793-5.379,2.06-1.389,6.366.154,13.283-.505,19.741-2.738,1.495-6.242,1.861-9.222,2.706-4.138,1.175-8.601,2.234-12.921,2.285-11.928.139-23.764-5.301-29.552-16.01-1.459-2.698-2.501-5.651-3.099-8.656-.677-3.404-.917-6.963-.504-10.413Z" transform="translate(-214.167373 26.429135)" fill="#306ba2" fill-rule="evenodd"/><path d="M698.458,580.608c.431-2.759.893-5.299,2.184-7.812c2.545-4.955,7.78-8.588,13.346-9.11c4.245-.398,9.132.82,13.2,2.003.114,2.014.027,4.027.191,6.039.051.626.335,1.947-.171,2.442-.478.2-.969.214-1.459.073-1.368-2.377-1.186-4.891-3.675-6.622-5.173-3.598-11.916-2.32-15.205,3.16-3.538,5.893-3.879,15.665,1.295,20.792c3.253,3.223,8.617,4.488,12.899,2.809c1.572-.616,3.114-1.513,4.397-2.617.753-.648,1.476-1.394,2.492-.807.021,1.587-1.752,2.935-2.988,3.69-2.834,1.73-6.26,2.697-9.573,2.753-9.259.158-17.626-7.19-16.933-16.793Z" transform="translate(-214.167373 26.429134)" fill="#558a51" fill-rule="evenodd"/><path d="M732.864,564.987c.1-.142.2-.283.3-.425c9.665.136,19.371-.279,29.028-.034.404,1.943-.055,4.171.027,6.164.028.671.185,1.718-.278,2.255-.459.208-.802.22-1.302.204-.499-2.679-1.446-5.102-4.02-6.471-2.157-.158-4.834-.359-6.968-.012.114,6.272.097,12.553.134,18.827.017,2.94-.493,6.544.653,9.309c1.108,1.04,3.792-.46,3.809,1.42-3.47.529-7.156.029-10.665.271-1.023.07-3.093.651-2.895-.913c1.159-.724,2.643-.661,3.8-1.493c1.078-1.672.311-5.629.319-7.592.027-6.457-.432-13.146.14-19.573-.464-.398-1.429-.154-2.032-.133-1.938.067-4.199-.226-6.005.57-1.305,1.194-1.712,2.849-2.579,4.328-.372.635-.679,1.254-1.487,1.089-.519-2.439-.055-5.301.021-7.791Z" transform="translate(-214.167373 26.429134)" fill="#588954" fill-rule="evenodd"/><path d="M766.564,564.435c4.2-.341,8.562-.085,12.769.023.338.43.313.754.305,1.283-1.533.299-2.943.363-4.369,1.101-.565,3.88-.126,8.037-.151,11.954-.019,2.967-.231,6.075.189,9.02.942,6.607,9.531,9.584,14.415,5.044c4.796-4.458,3.11-13.48,3.094-19.37-.004-1.677.603-5.573-.515-6.902-1.272-.307-3.599-.48-3.01-2.196c2.661-.289,7.08-.851,9.601.134-.002,1.833-2.392,1.405-3.43,2.402-.983,4.956-.195,10.727-.195,15.769c0,3.022.037,6.181-1.492,8.897-4.399,7.814-18.136,8.252-22.419.025-1.558-2.994-1.538-6.594-1.541-9.886-.003-4.914.159-9.813.105-14.719-.686-1.186-3.073-.974-4.071-2.23.238-.117.477-.233.715-.349Z" transform="translate(-214.167373 26.429134)" fill="#568855" fill-rule="evenodd"/><path d="M768.379,377.039c.539-1.083,1.111-2.321,2.202-2.957c3.224-1.883,7.286.626,8.637,3.647c2.36,5.274-.143,10.959-4.001,14.732-1.519,1.485-5.04,4.337-7.099,2.639-.128-1.755,2.193-2.689,3.389-3.592c2.27-1.714,4.339-4.8,3.228-7.751-1.305-.23-2.858-.1-4.102-.546-2.43-.871-2.889-4.074-2.254-6.172Z" transform="translate(-214.167374 26.429134)" fill="#356ea0" fill-rule="evenodd"/><path d="M775.469,501.598c1-9.755,6.757-19.591,15.44-24.42c15.804-8.789,37.814-3.145,45.35,13.982c2.483,5.644,3.097,11.859,2.48,17.962-.643,6.359-3.319,13.202-7.685,17.956-12.368,13.466-35.735,14.007-47.923-.048-2.857-3.295-4.901-7.311-6.168-11.468-1.365-4.478-1.972-9.292-1.494-13.964Zm11.477-5.999c-1.677,11.081.211,25.14,8.659,33.24c6.686,6.411,17.766,7.514,24.843.997c4-3.684,6.166-9.676,6.983-14.935c1.811-11.666-.067-26.338-9.436-34.518-1.682-1.468-3.657-2.351-5.738-3.099-1.79-.644-3.732-1.04-5.635-1.095-11.257-.322-18.113,9.085-19.676,19.41Z" transform="translate(-214.167373 26.429134)" fill="#30689f" fill-rule="evenodd"/><path d="M790.55,422.594c1.014-.147,2.023-.154,3.044-.21.278,1.013.102,2.117.344,3.154c1.206,5.174,4.393,9.865,9.297,12.127c8.327,3.842,18.849-1.483,17.537-11.309-.889-6.652-6.736-9.304-12.161-11.843-8.002-3.746-16.651-8.326-16.764-18.439-.022-1.97.249-3.994.824-5.879c4.182-13.719,22.83-14.147,33.274-7.869.759,4.192.243,8.829.388,13.081-.738.079-1.463.016-2.202-.015-.867-1.537-1.069-3.434-1.693-5.083-1.365-3.608-3.583-6.302-7.215-7.817-6.534-2.726-14.921.078-15.414,7.943-.08,1.281.045,2.582.44,3.805c1.525,4.72,5.522,6.962,9.665,9.093c5.905,3.037,13.476,5.801,17.048,11.806c4.329,7.279,2.74,16.252-3.654,21.828-3.226,2.814-7.76,4.374-11.933,5.048-6.804,1.1-14.143-1.517-20.282-4.206-.443-1.489-.168-3.259-.218-4.807-.113-3.463-.058-6.956-.325-10.408Z" transform="translate(-214.167373 26.429134)" fill="#306aa0" fill-rule="evenodd"/><path d="M803.554,595.981c1.075-1.009,2.692-.887,3.814-1.876.969-1.79.274-5.572.281-7.602.022-6.376.503-12.887-.037-19.241-.889-1.385-2.791-.844-3.536-2.575c2.062-.439,4.284-.013,6.388-.051c4.231-.076,9.303-.821,13.121,1.462.948.567,1.842,1.284,2.574,2.112c4.467,5.051.553,10.901-4.883,12.805-.086,1.19,2.034,3.334,2.769,4.366c2.656,3.729,4.619,9.063,9.502,10.045.397.374.255.837.25,1.343-2.013-.008-4.913.808-6.806-.139-1.607-.803-2.919-2.89-3.943-4.304-2.433-3.36-4.434-6.999-7.093-10.204-1.013-.517-2.327-.388-3.331.07-.136,2.728-.161,5.433-.175,8.165-.006,1.29-.203,2.924.686,4.006.983,1.198,2.945.365,3.64,1.133-.285,1.227-1.763.903-2.784.864-2.454-.095-4.955.004-7.406.145-1.02.059-2.458.41-3.031-.524Zm9.348-29.504c-.067.138-.135.276-.202.413-.272,4.3-.439,9.011.094,13.291c1.934.154,4.083.255,5.883-.625c4.6-2.25,4.855-8.07,1.226-11.364-1.986-1.801-4.443-2.071-7.001-1.715Z" transform="translate(-214.167373 26.429134)" fill="#578a56" fill-rule="evenodd"/><path d="M836.815,595.321c1.148-.525,2.786-.315,3.789-1.132.886-2.23.247-5.805.242-8.193-.012-6.152.624-12.683-.139-18.787-1.259-1.112-2.817-.76-3.203-2.6c1.567-.917,4.698-.172,6.497-.184c5.721-.04,11.453.045,17.171-.087.299.496.085,1.507.106,2.098.061,1.702.456,3.493.312,5.183-.432.226-.805.144-1.272.086-1.181-1.462-1.745-3.412-2.801-4.989-3.426-.243-8.384-1.241-11.626.138-.109,3.906-.104,7.81-.049,11.717c3.422.547,7.046-.288,10.496.144.579-1.425.6-3.179,1.528-4.441c1.381.012.931,1.23.981,2.341.11,2.457.15,5.056.005,7.511-.028.462.024,2.782-.972,1.955-.509-1.613-.798-3.774-1.9-5.094-3.205-.479-6.782-.303-10.011-.131-.008,3.209-.158,6.424-.134,9.641.01,1.27-.187,2.898.735,3.874c3.856.238,8.157.349,11.972-.297c1.898-1.049,2.901-3.992,3.922-5.789.318.004,1.162-.055,1.354.309.203.386-.36,1.483-.45,1.884-.452,2.009-.553,4.122-1.081,6.105-2.165.35-4.582.089-6.775.08-4.17-.016-8.341-.063-12.51-.038-1.473.009-2.952.072-4.424.03-.249-.007-1.317.043-1.493-.084-.214-.154-.257-1.134-.27-1.25Z" transform="translate(-214.167373 26.429134)" fill="#578958" fill-rule="evenodd"/><path d="M847.313,474.234c3.185-.603,6.942-.094,10.196-.099c1.877-.004,4.276-.356,6.076.105c3.04,5.258,8.033,9.91,11.87,14.619c8.606,10.562,17.152,21.183,25.816,31.694.278.03.145-.887.143-1.041-.017-1.505-.049-3.007-.102-4.512-.121-3.496-.091-7.002-.08-10.499.02-6.246.117-12.493.063-18.738-.023-2.666.126-5.991-2.072-7.913-1.726-1.509-4.474-1.076-6.589-1.499-.27-.747-.187-1.405-.168-2.196c4.057-.203,8.133.064,12.196.09c2.706.017,5.643-.314,8.312.161.007.621-.081,1.239-.218,1.845-1.283.173-2.792-.019-3.994.546-5.224,2.455-3.696,10.032-3.668,14.697.068,11.071.008,22.142.014,33.213.003,4.069-.491,8.154-.241,12.227-.86.199-2.368.248-3.184-.113-1.442-1.186-2.46-3.14-3.6-4.614-1.964-2.539-3.99-5.038-5.979-7.558-6.981-8.842-14.159-17.517-21.223-26.291-3.279-4.072-6.261-8.805-10.062-12.371.487,10.115.046,20.382.077,30.515.009,2.736-.007,5.471-.008,8.207c0,1.484-.192,3.196.363,4.604c1.49,3.781,4.874,4.462,8.493,4.809.344.533.106,1.572.104,2.212-6.812-.706-13.921.229-20.777-.051-.099-.897-.076-1.678.304-2.51c2.6-.178,6.485-.429,7.511-3.414c1.125-3.273.319-7.925.327-11.357.017-8-.031-16,0-24c.011-2.782.026-5.565.057-8.347.016-1.431.273-3.241-.258-4.603-1.007-2.58-3.993-4.383-6.493-5.184-.554-.177-3.064-.364-3.356-.786-.204-.295.113-1.53.15-1.848Z" transform="translate(-214.167373 26.429134)" fill="#306aa0" fill-rule="evenodd"/><path d="M882.295,595.385c1.334-.479,2.9-.395,4.182-.989.403-.446.306-1.393.31-1.955.011-1.648.029-3.296.044-4.944.057-6.771.369-13.631-.048-20.389-.76-1.197-4.764-.976-3.921-2.68c3.315-.309,6.741-.006,10.077-.106c1.164-.035,2.813-.268,3.034,1.17-1.013.793-2.507.528-3.647,1.563-.959,2.644-.352,6.163-.351,8.945.003,6.205-.09,12.399.344,18.587.871.42,2.351.054,3.308.039c3.177-.05,7.056.56,9.591-1.761c1.179-1.079,1.965-3.93,3.336-4.476c1.814.606.214,5.197-.093,6.634-.126.59-.173,1.362-.558,1.843-6.452-.18-12.947-.198-19.403-.178-1.867.006-6.268,1.242-6.205-1.303Z" transform="translate(-214.167373 26.429134)" fill="#548755" fill-rule="evenodd"/><path d="M913.352,564.335c3.368-.252,6.773.061,10.149.001.734-.013,3.135-.209,2.876.983-.935.967-2.863.757-3.681,1.974-.292,4.212-.012,8.478-.068,12.699-.063,4.835-.404,9.81.142,14.606.966.408,2.323.17,3.36.18c2.899.029,6.461.437,8.994-1.268c1.856-1.25,1.709-3.389,3.004-4.934.369-.439,1.294-.437,1.69-.054-.609,2.733-1.207,5.559-1.568,8.334-1.966.316-4.25.049-6.247.036-4.296-.029-8.61-.208-12.904-.106-1.43.034-6.03,1.035-5.52-1.19c1.011-.817,2.344-.391,3.418-.986.956-1.809.444-4.87.435-6.864-.022-4.781.176-9.544.167-14.324-.003-1.79.512-4.935-.596-6.462-1.268-1.234-4.107-.512-3.651-2.625Z" transform="translate(-214.167373 26.429134)" fill="#538954" fill-rule="evenodd"/><path d="M918.43,475.642c.078-.721.07-.297-.078-1.271c8.322-.899,16.947.34,25.318-.172.12.707.048,1.45.052,2.167-2.078.214-3.759.429-5.175,2.162-.742,3.052,1.412,6.021,2.913,8.485c2.541,4.169,5.1,8.36,7.491,12.616c1.043,1.856,1.867,4.02,3.083,5.747c1.727-1.417,2.841-4.903,3.884-6.863c2.342-4.398,4.773-8.798,7.453-13.002c1.031-1.618,3.167-4.787,2.339-6.82-1.033-2.536-4.435-1.797-6.524-2.153-.164-.818-.319-1.609.063-2.369c6.336-.138,12.69.08,19.032-.038.331.538.159,1.641.109,2.272-6.222.439-8.794,5.529-11.71,10.399-2.869,4.792-5.759,9.575-8.645,14.359-1.282,2.126-3.655,4.848-4.186,7.286-.557,2.551-.208,5.626-.197,8.229.014,3.401-.037,6.804.015,10.205.038,2.436.271,4.877,2.709,6.135c1.517.782,3.693.82,5.358.756.278.749.079,1.799.107,2.603-3.04-.354-6.277-.03-9.34-.036-5.509-.011-11.052-.145-16.555.039-.581-.417-.273-1.634-.234-2.279.428-.425,1.928-.289,2.519-.338c1.89-.154,4.324-.934,5.106-2.885c1.002-2.503.247-6.572.245-9.251-.002-2.61-.01-5.221.028-7.831.019-1.31.296-2.843.019-4.131-.458-2.132-2.59-4.515-3.751-6.36-2.8-4.447-5.537-8.951-8.236-13.461-3.332-5.567-5.57-12.561-12.907-13.131-.414-.3-.309-.583-.305-1.069Z" transform="translate(-214.167373 26.429134)" fill="#356b9f" fill-rule="evenodd"/><path d="M943.437,579.601c.624-2.901,1.134-5.615,2.743-8.175c3.882-6.174,11.507-8.138,18.331-7.273c1.834.232,3.436.896,5.189,1.418.631.188,1.414.111,1.949.487.048,1.894.018,3.795.169,5.685.053.665.256,1.731-.163,2.315-.398.143-.841.155-1.25.047-.659-1.998-1.08-4.358-2.64-5.891-4.32-4.243-12.132-3.127-15.75,1.395-6.705,8.382-2.487,25.28,9.507,25.608c2.526.069,5.063-.539,7.189-1.936c1.154-.758,1.969-2.121,3.301-2.565c1.829.932-1.23,3.399-2.139,3.967-3.404,2.127-7.608,2.877-11.578,2.522-8.773-.783-16.069-8.489-14.858-17.604Z" transform="translate(-214.167373 26.429134)" fill="#52874c" fill-rule="evenodd"/></svg>