<svg xmlns="http://www.w3.org/2000/svg" viewBox="0 16.700000762939453 476.1499938964844 47.14999771118164" data-asc="1.036" width="476.1499938964844" height="47.14999771118164"><defs/><g fill="#3b6255"><g transform="translate(0, 0)"><path d="M0 51.80L0 50.75L0.95 50.45Q1.95 50.10 2.30 49.53Q2.65 48.95 2.65 47.95L2.65 22.65Q2.65 21.65 2.33 21.05Q2 20.45 1.00 20.10L0 19.80L0 18.75L12.35 18.75L12.35 19.80L11.50 20.05Q10.55 20.40 10.20 20.98Q9.85 21.55 9.85 22.55L9.85 34.05L22.30 34.05L22.30 22.55Q22.30 21.55 21.95 20.98Q21.60 20.40 20.60 20.05L19.80 19.80L19.80 18.75L32.15 18.75L32.15 19.80L31.20 20.10Q30.25 20.45 29.88 21.03Q29.50 21.60 29.50 22.60L29.50 47.95Q29.50 48.95 29.88 49.53Q30.25 50.10 31.20 50.45L32.15 50.75L32.15 51.80L19.80 51.80L19.80 50.75L20.60 50.50Q21.60 50.15 21.95 49.58Q22.30 49.00 22.30 48.00L22.30 35.55L9.85 35.55L9.85 48.00Q9.85 49.00 10.22 49.58Q10.60 50.15 11.55 50.50L12.35 50.75L12.35 51.80L0 51.80ZM41.60 52.50Q38.75 52.50 36.78 50.88Q34.80 49.25 34.80 46.20Q34.80 43.80 37.13 41.78Q39.45 39.75 44.45 38.80Q45.30 38.60 46.43 38.43Q47.55 38.25 48.65 38.05L48.65 34.50Q48.65 31.10 47.80 29.80Q46.95 28.50 45.10 28.50L44.95 28.50Q43.80 28.50 43.13 29.23Q42.45 29.95 42.25 31.60L42.10 32.25Q41.95 34.25 41.05 35.18Q40.15 36.10 38.80 36.10Q37.55 36.10 36.73 35.33Q35.90 34.55 35.90 33.30Q35.90 31.25 37.30 29.85Q38.70 28.45 41.03 27.75Q43.35 27.05 46.05 27.05Q50.50 27.05 52.85 29.20Q55.20 31.35 55.20 36.20L55.20 47.35Q55.20 49.50 57.25 49.50L58.40 49.50L58.90 50.05Q58.00 51.20 56.90 51.83Q55.80 52.45 53.90 52.45Q51.75 52.45 50.48 51.43Q49.20 50.40 48.80 48.70Q47.20 50.40 45.65 51.45Q44.10 52.50 41.60 52.50M44.50 49.30Q45.50 49.30 46.40 48.85Q47.30 48.40 48.65 47.35L48.65 39.35Q47.35 39.55 46.00 39.85Q43.85 40.35 42.53 41.70Q41.20 43.05 41.20 45.35Q41.20 47.35 42.13 48.33Q43.05 49.30 44.50 49.30ZM60.05 51.80L60.05 50.85L60.80 50.60Q61.80 50.35 62.18 49.75Q62.55 49.15 62.55 48.15L62.55 33.50Q62.50 32.40 62.15 31.83Q61.80 31.25 60.80 31.05L60.05 30.85L60.05 29.95L68.20 27.05L68.80 27.60L69.25 32L69.25 32.35Q70 30.95 71.15 29.75Q72.30 28.55 73.65 27.80Q75 27.05 76.35 27.05Q78.25 27.05 79.20 28.05Q80.15 29.05 80.15 30.60Q80.15 32.30 79.20 33.18Q78.25 34.05 76.90 34.05Q74.90 34.05 73.45 32.25L73.35 32.15Q72.85 31.55 72.23 31.48Q71.60 31.40 71 32.10Q70.50 32.60 70.08 33.28Q69.65 33.95 69.30 34.85L69.30 47.95Q69.30 48.90 69.70 49.53Q70.10 50.15 71.05 50.40L72.55 50.85L72.55 51.80L60.05 51.80ZM81.80 51.80L81.80 50.80L82.90 50.50Q83.70 50.25 83.95 49.78Q84.20 49.30 84.25 48.50L84.25 38.60Q84.25 36.95 84.25 35.80Q84.25 34.65 84.20 33.10Q84.20 32.25 83.95 31.78Q83.70 31.30 82.85 31.10L81.80 30.85L81.80 29.95L89.90 27.05L90.50 27.60L90.85 30.95Q92.60 29.35 94.75 28.20Q96.90 27.05 99.15 27.05Q101.65 27.05 103.05 28.05Q104.45 29.05 105.20 31.10Q107.10 29.20 109.40 28.13Q111.70 27.05 113.95 27.05Q117.35 27.05 119.05 28.75Q120.75 30.45 120.75 34.10L120.75 48.55Q120.75 50.15 122.15 50.55L123.10 50.80L123.10 51.80L111.85 51.80L111.85 50.80L112.75 50.55Q114.10 50.10 114.10 48.50L114.10 33.85Q114.10 31.70 113.33 30.93Q112.55 30.15 110.80 30.15Q109.45 30.15 108.25 30.70Q107.05 31.25 105.60 32.40Q105.90 33.90 105.90 35.85L105.90 48.55Q105.95 49.40 106.22 49.88Q106.50 50.35 107.30 50.55L108.15 50.80L108.15 51.80L96.85 51.80L96.85 50.80L97.90 50.50Q98.70 50.25 98.97 49.78Q99.25 49.30 99.25 48.50L99.25 33.90Q99.25 31.85 98.50 31.00Q97.75 30.15 95.95 30.15Q93.65 30.15 91 32.35L91 48.55Q91 50.20 92.40 50.55L93.25 50.80L93.25 51.80L81.80 51.80ZM137.65 52.50Q133.95 52.50 131.17 50.95Q128.40 49.40 126.88 46.55Q125.35 43.70 125.35 39.75Q125.35 35.80 126.97 32.95Q128.60 30.10 131.38 28.58Q134.15 27.05 137.65 27.05Q141.15 27.05 143.93 28.58Q146.70 30.10 148.32 32.93Q149.95 35.75 149.95 39.75Q149.95 43.70 148.43 46.58Q146.90 49.45 144.15 50.98Q141.40 52.50 137.65 52.50M137.65 51.10Q139.45 51.10 140.57 50.13Q141.70 49.15 142.20 46.70Q142.70 44.25 142.70 39.85Q142.70 35.40 142.20 32.93Q141.70 30.45 140.57 29.48Q139.45 28.50 137.65 28.50Q135.85 28.50 134.75 29.48Q133.65 30.45 133.13 32.93Q132.60 35.40 132.60 39.85Q132.60 44.25 133.13 46.70Q133.65 49.15 134.75 50.13Q135.85 51.10 137.65 51.10ZM152.25 51.80L152.25 50.85L153.05 50.65Q154.70 50.15 154.70 48.20L154.70 33.45Q154.65 32.40 154.35 31.83Q154.05 31.25 153.05 31.05L152.25 30.85L152.25 29.95L160.35 27.05L160.95 27.60L161.30 30.70Q163.10 29.10 165.32 28.08Q167.55 27.05 169.70 27.05Q173 27.05 174.77 28.85Q176.55 30.65 176.55 34.35L176.55 48.25Q176.55 50.20 178.35 50.70L178.90 50.85L178.90 51.80L167.40 51.80L167.40 50.85L168.15 50.65Q169.80 50.10 169.80 48.20L169.80 33.35Q169.80 31.60 169.05 30.80Q168.30 30.00 166.55 30.00Q164.10 30.00 161.45 32.15L161.45 48.25Q161.45 50.20 163.20 50.70L163.70 50.85L163.70 51.80L152.25 51.80ZM185.35 63.85Q183.35 63.85 182.20 62.90Q181.05 61.95 181.05 60.40Q181.05 59.00 182.02 58.18Q183.00 57.35 184.20 57.35Q185.45 57.35 186.25 57.80Q187.05 58.25 187.65 59.10L187.95 59.50Q189.10 60.90 190.10 59.45Q190.75 58.60 191.37 57.35Q192.00 56.10 192.75 54.05L183.25 31.35Q182.90 30.40 182.45 29.88Q182.00 29.35 181.10 29.00L180.25 28.70L180.25 27.80L192.60 27.80L192.60 28.70L191.55 29.00Q190.45 29.35 190.37 30.08Q190.30 30.80 190.70 31.95L195.80 45.25L200.70 31.85Q201.10 30.75 201.00 30.00Q200.90 29.25 199.75 29.00L198.65 28.70L198.65 27.80L206.10 27.80L206.10 28.70L205.00 29.05Q203.90 29.35 203.42 29.93Q202.95 30.50 202.55 31.60L194.55 53.10Q192.55 58.60 190.47 61.23Q188.40 63.85 185.35 63.85ZM207.85 51.80L207.85 50.75L208.80 50.45Q209.80 50.10 210.15 49.53Q210.50 48.95 210.50 47.95L210.50 22.65Q210.50 21.65 210.17 21.05Q209.85 20.45 208.85 20.10L207.85 19.80L207.85 18.75L220.20 18.75L220.20 19.80L219.35 20.05Q218.40 20.40 218.05 20.98Q217.70 21.55 217.70 22.55L217.70 34.05L230.15 34.05L230.15 22.55Q230.15 21.55 229.80 20.98Q229.45 20.40 228.45 20.05L227.65 19.80L227.65 18.75L240 18.75L240 19.80L239.05 20.10Q238.10 20.45 237.72 21.03Q237.35 21.60 237.35 22.60L237.35 47.95Q237.35 48.95 237.72 49.53Q238.10 50.10 239.05 50.45L240 50.75L240 51.80L227.65 51.80L227.65 50.75L228.45 50.50Q229.45 50.15 229.80 49.58Q230.15 49.00 230.15 48.00L230.15 35.55L217.70 35.55L217.70 48.00Q217.70 49.00 218.07 49.58Q218.45 50.15 219.40 50.50L220.20 50.75L220.20 51.80L207.85 51.80ZM254.70 27.05Q257.85 27.05 260.10 28.35Q262.35 29.65 263.57 31.93Q264.80 34.20 264.80 37.15Q264.80 37.80 264.75 38.38Q264.70 38.95 264.55 39.45L249.50 39.45Q249.55 44.60 251.42 46.85Q253.30 49.10 256.90 49.10Q259.40 49.10 260.95 48.28Q262.50 47.45 263.80 45.95L264.60 46.70Q263.10 49.45 260.52 50.98Q257.95 52.50 254.40 52.50Q250.85 52.50 248.15 51.00Q245.45 49.50 243.92 46.68Q242.40 43.85 242.40 39.90Q242.40 35.80 244.17 32.95Q245.95 30.10 248.77 28.58Q251.60 27.05 254.70 27.05M254.45 28.50Q253.00 28.50 251.92 29.33Q250.85 30.15 250.22 32.23Q249.60 34.30 249.50 38.05L258.45 38.05Q259 33 258.05 30.75Q257.10 28.50 254.45 28.50ZM274.60 52.50Q271.75 52.50 269.77 50.88Q267.80 49.25 267.80 46.20Q267.80 43.80 270.12 41.78Q272.45 39.75 277.45 38.80Q278.30 38.60 279.42 38.43Q280.55 38.25 281.65 38.05L281.65 34.50Q281.65 31.10 280.80 29.80Q279.95 28.50 278.10 28.50L277.95 28.50Q276.80 28.50 276.12 29.23Q275.45 29.95 275.25 31.60L275.10 32.25Q274.95 34.25 274.05 35.18Q273.15 36.10 271.80 36.10Q270.55 36.10 269.72 35.33Q268.90 34.55 268.90 33.30Q268.90 31.25 270.30 29.85Q271.70 28.45 274.02 27.75Q276.35 27.05 279.05 27.05Q283.50 27.05 285.85 29.20Q288.20 31.35 288.20 36.20L288.20 47.35Q288.20 49.50 290.25 49.50L291.40 49.50L291.90 50.05Q291.00 51.20 289.90 51.83Q288.80 52.45 286.90 52.45Q284.75 52.45 283.47 51.43Q282.20 50.40 281.80 48.70Q280.20 50.40 278.65 51.45Q277.10 52.50 274.60 52.50M277.50 49.30Q278.50 49.30 279.40 48.85Q280.30 48.40 281.65 47.35L281.65 39.35Q280.35 39.55 279.00 39.85Q276.85 40.35 275.52 41.70Q274.20 43.05 274.20 45.35Q274.20 47.35 275.12 48.33Q276.05 49.30 277.50 49.30ZM293.15 51.80L293.15 50.85L293.90 50.65Q295.55 50.10 295.55 48.15Q295.55 46.45 295.57 44.73Q295.60 43 295.60 41.30L295.60 22.30Q295.60 21.25 295.25 20.73Q294.90 20.20 293.90 19.95L293.15 19.75L293.15 18.80L301.90 16.70L302.55 17.15L302.35 24.20L302.35 48.15Q302.40 49.15 302.77 49.78Q303.15 50.40 304.10 50.65L304.80 50.85L304.80 51.80L293.15 51.80ZM316.45 52.50Q313.35 52.50 311.57 50.98Q309.80 49.45 309.80 46Q309.80 44.80 309.82 43.73Q309.85 42.65 309.85 41.20L309.85 29.35L306.30 29.35L306.30 28.25L307.65 28.05Q309.10 27.80 310.12 27.15Q311.15 26.50 312.00 25.35L315.25 20.85L316.75 20.85L316.60 27.80L322.30 27.80L322.30 29.35L316.55 29.35L316.55 46.40Q316.55 48.20 317.32 49.10Q318.10 50.00 319.25 50.00Q320.25 50.00 321.05 49.53Q321.85 49.05 322.65 48.25L323.30 49.00Q322.35 50.65 320.65 51.58Q318.95 52.50 316.45 52.50ZM325.05 51.80L325.05 50.80L325.70 50.60Q327.50 50.05 327.50 48.10L327.50 22.35Q327.50 21.30 327.15 20.78Q326.80 20.25 325.80 20.00L325.05 19.80L325.05 18.85L333.50 16.70L334.30 17.15L334.10 24.20L334.10 30.60Q335.85 29.15 337.92 28.10Q340.00 27.05 342.40 27.05Q345.70 27.05 347.57 28.90Q349.45 30.75 349.45 34.60L349.45 48.15Q349.45 49.15 349.85 49.75Q350.25 50.35 351.25 50.65L351.70 50.80L351.70 51.80L340.30 51.80L340.30 50.80L340.90 50.60Q342.70 50.10 342.70 48.10L342.70 33.65Q342.70 31.60 342.00 30.80Q341.30 30.00 339.55 30.00Q338.35 30.00 337.02 30.45Q335.70 30.90 334.25 31.95L334.25 48.20Q334.25 49.20 334.65 49.80Q335.05 50.40 336.00 50.65L336.45 50.80L336.45 51.80L325.05 51.80ZM370.90 52.65Q366.05 52.65 362.15 50.65Q358.25 48.65 355.97 44.75Q353.70 40.85 353.70 35.25Q353.70 31.05 355.07 27.80Q356.45 24.55 358.87 22.33Q361.30 20.10 364.45 18.98Q367.60 17.85 371.15 17.85Q373.90 17.85 376.30 18.48Q378.70 19.10 380.90 20.30L381.10 26.85L379.75 26.85L377.65 22.90Q377.15 21.90 376.57 21.10Q376.00 20.30 375.10 19.95Q373.85 19.35 372.15 19.35Q369.20 19.35 366.77 20.85Q364.35 22.35 362.90 25.83Q361.45 29.30 361.45 35.30Q361.45 41.25 362.82 44.75Q364.20 48.25 366.55 49.73Q368.90 51.20 371.85 51.20Q373.20 51.20 374.05 51.00Q374.90 50.80 375.75 50.45Q376.75 50.05 377.30 49.28Q377.85 48.50 378.25 47.50L380.15 42.95L381.50 42.95L381.30 50.15Q379.15 51.35 376.55 52.00Q373.95 52.65 370.90 52.65ZM383.95 51.80L383.95 50.85L384.70 50.65Q386.35 50.10 386.35 48.15Q386.35 46.45 386.37 44.73Q386.40 43 386.40 41.30L386.40 22.30Q386.40 21.25 386.05 20.73Q385.70 20.20 384.70 19.95L383.95 19.75L383.95 18.80L392.70 16.70L393.35 17.15L393.15 24.20L393.15 48.15Q393.20 49.15 393.57 49.78Q393.95 50.40 394.90 50.65L395.60 50.85L395.60 51.80L383.95 51.80ZM403.65 24.30Q402.00 24.30 400.85 23.25Q399.70 22.20 399.70 20.60Q399.70 18.95 400.85 17.93Q402.00 16.90 403.65 16.90Q405.30 16.90 406.45 17.93Q407.60 18.95 407.60 20.60Q407.60 22.20 406.45 23.25Q405.30 24.30 403.65 24.30M397.90 51.80L397.90 50.85L398.65 50.65Q399.65 50.35 400.00 49.75Q400.35 49.15 400.40 48.15L400.40 38.95Q400.40 37.40 400.40 36.08Q400.40 34.75 400.35 33.35Q400.35 32.35 399.97 31.78Q399.60 31.20 398.60 31.00L397.90 30.85L397.90 29.95L406.65 27.05L407.25 27.60L407.10 34.70L407.10 48.20Q407.10 49.20 407.47 49.80Q407.85 50.40 408.80 50.70L409.35 50.85L409.35 51.80L397.90 51.80ZM411.55 51.80L411.55 50.85L412.35 50.65Q414.00 50.15 414.00 48.20L414.00 33.45Q413.95 32.40 413.65 31.83Q413.35 31.25 412.35 31.05L411.55 30.85L411.55 29.95L419.65 27.05L420.25 27.60L420.60 30.70Q422.40 29.10 424.62 28.08Q426.85 27.05 429.00 27.05Q432.30 27.05 434.07 28.85Q435.85 30.65 435.85 34.35L435.85 48.25Q435.85 50.20 437.65 50.70L438.20 50.85L438.20 51.80L426.70 51.80L426.70 50.85L427.45 50.65Q429.10 50.10 429.10 48.20L429.10 33.35Q429.10 31.60 428.35 30.80Q427.60 30.00 425.85 30.00Q423.40 30.00 420.75 32.15L420.75 48.25Q420.75 50.20 422.50 50.70L423.00 50.85L423.00 51.80L411.55 51.80ZM446.05 24.30Q444.40 24.30 443.25 23.25Q442.10 22.20 442.10 20.60Q442.10 18.95 443.25 17.93Q444.40 16.90 446.05 16.90Q447.70 16.90 448.85 17.93Q450.00 18.95 450.00 20.60Q450.00 22.20 448.85 23.25Q447.70 24.30 446.05 24.30M440.30 51.80L440.30 50.85L441.05 50.65Q442.05 50.35 442.40 49.75Q442.75 49.15 442.80 48.15L442.80 38.95Q442.80 37.40 442.80 36.08Q442.80 34.75 442.75 33.35Q442.75 32.35 442.37 31.78Q442.00 31.20 441.00 31.00L440.30 30.85L440.30 29.95L449.05 27.05L449.65 27.60L449.50 34.70L449.50 48.20Q449.50 49.20 449.87 49.80Q450.25 50.40 451.20 50.70L451.75 50.85L451.75 51.80L440.30 51.80ZM466.20 52.50Q462.80 52.50 460.05 51.03Q457.30 49.55 455.72 46.73Q454.15 43.90 454.15 39.85Q454.15 35.80 455.90 32.95Q457.65 30.10 460.57 28.58Q463.50 27.05 467.00 27.05Q469.85 27.05 471.85 28.00Q473.85 28.95 474.90 30.43Q475.95 31.90 475.95 33.55Q475.95 34.95 475.12 35.70Q474.30 36.45 473.00 36.45Q471.60 36.45 470.72 35.45Q469.85 34.45 469.70 32.90Q469.65 31.90 469.72 31.20Q469.80 30.50 469.70 29.85Q469.50 29.00 469.02 28.70Q468.55 28.40 467.70 28.40Q464.55 28.40 462.87 30.93Q461.20 33.45 461.20 39.10Q461.20 43.95 463.05 46.55Q464.90 49.15 468.80 49.15Q471.10 49.15 472.60 48.28Q474.10 47.40 475.35 45.75L476.15 46.35Q474.90 49.35 472.32 50.93Q469.75 52.50 466.20 52.50Z"/></g></g></svg>