<svg xmlns="http://www.w3.org/2000/svg" viewBox="0 17.850000381469727 96.5999984741211 34.80000305175781" data-asc="1.036" width="96.5999984741211" height="34.80000305175781"><defs/><g fill="#3b6255"><g transform="translate(0, 0)"><path d="M0 51.80L0 50.75L0.95 50.45Q1.95 50.10 2.30 49.53Q2.65 48.95 2.65 47.95L2.65 22.65Q2.65 21.65 2.33 21.05Q2 20.45 1.00 20.10L0 19.80L0 18.75L12.35 18.75L12.35 19.80L11.50 20.05Q10.55 20.40 10.20 20.98Q9.85 21.55 9.85 22.55L9.85 34.05L22.30 34.05L22.30 22.55Q22.30 21.55 21.95 20.98Q21.60 20.40 20.60 20.05L19.80 19.80L19.80 18.75L32.15 18.75L32.15 19.80L31.20 20.10Q30.25 20.45 29.88 21.03Q29.50 21.60 29.50 22.60L29.50 47.95Q29.50 48.95 29.88 49.53Q30.25 50.10 31.20 50.45L32.15 50.75L32.15 51.80L19.80 51.80L19.80 50.75L20.60 50.50Q21.60 50.15 21.95 49.58Q22.30 49.00 22.30 48.00L22.30 35.55L9.85 35.55L9.85 48.00Q9.85 49.00 10.22 49.58Q10.60 50.15 11.55 50.50L12.35 50.75L12.35 51.80L0 51.80ZM34.45 51.80L34.45 50.75L35.40 50.45Q36.40 50.10 36.75 49.53Q37.10 48.95 37.10 47.95L37.10 22.65Q37.10 21.65 36.78 21.05Q36.45 20.45 35.45 20.10L34.45 19.80L34.45 18.75L46.80 18.75L46.80 19.80L45.95 20.05Q45.00 20.40 44.65 20.98Q44.30 21.55 44.30 22.55L44.30 34.05L56.75 34.05L56.75 22.55Q56.75 21.55 56.40 20.98Q56.05 20.40 55.05 20.05L54.25 19.80L54.25 18.75L66.60 18.75L66.60 19.80L65.65 20.10Q64.70 20.45 64.33 21.03Q63.95 21.60 63.95 22.60L63.95 47.95Q63.95 48.95 64.33 49.53Q64.70 50.10 65.65 50.45L66.60 50.75L66.60 51.80L54.25 51.80L54.25 50.75L55.05 50.50Q56.05 50.15 56.40 49.58Q56.75 49.00 56.75 48.00L56.75 35.55L44.30 35.55L44.30 48.00Q44.30 49.00 44.68 49.58Q45.05 50.15 46.00 50.50L46.80 50.75L46.80 51.80L34.45 51.80ZM86 52.65Q81.15 52.65 77.25 50.65Q73.35 48.65 71.08 44.75Q68.80 40.85 68.80 35.25Q68.80 31.05 70.17 27.80Q71.55 24.55 73.97 22.33Q76.40 20.10 79.55 18.98Q82.70 17.85 86.25 17.85Q89 17.85 91.40 18.48Q93.80 19.10 96 20.30L96.20 26.85L94.85 26.85L92.75 22.90Q92.25 21.90 91.67 21.10Q91.10 20.30 90.20 19.95Q88.95 19.35 87.25 19.35Q84.30 19.35 81.88 20.85Q79.45 22.35 78 25.83Q76.55 29.30 76.55 35.30Q76.55 41.25 77.92 44.75Q79.30 48.25 81.65 49.73Q84 51.20 86.95 51.20Q88.30 51.20 89.15 51.00Q90 50.80 90.85 50.45Q91.85 50.05 92.40 49.28Q92.95 48.50 93.35 47.50L95.25 42.95L96.60 42.95L96.40 50.15Q94.25 51.35 91.65 52.00Q89.05 52.65 86 52.65Z"/></g></g></svg>