<svg xmlns="http://www.w3.org/2000/svg" xmlns:xlink="http://www.w3.org/1999/xlink" id="ePdN8rp6Zyg1" shape-rendering="geometricPrecision" text-rendering="geometricPrecision" project-id="78e51781b38f4113966711bd866771aa" export-id="587327730839431780f95ae0df2289d9" cached="false" viewBox="308.52 331.95 406.97 360.1"><path d="M121.577,609.93c-25.512-11.213-48.132-28.624-63.578-52.055-3.889-5.899-6.371-12.141-9.406-18.448-.469-.975-1.625,1.287-1.996-.425.098-5.015-.391-10.007-.206-15.037.419-11.377,2.218-22.924,5.163-33.919c9.237-34.492,31.357-65.651,60.233-86.542c5.991-4.334,12.052-8.701,18.542-12.197.353.008-.15.648-.217.731-.537.66-1.275,1.188-1.973,1.664-1.748,1.194-3.367,2.554-5.021,3.875-4.988,3.986-9.354,9.059-13.401,13.979-12.247,14.888-22.166,32.798-27.514,51.385-3.311,11.507-5.602,23.093-6.295,35.069-1.681,29.061,6.837,59.225,21.975,83.929c4.768,7.781,10.638,15.08,16.955,21.66c2.121,2.209,4.73,4.047,6.739,6.331Z" transform="translate(262.168314 -5.662872)" fill="#3779a9" fill-rule="evenodd"/><path d="M46.597,539.002c.371,1.712,1.527-.55,1.996.425c3.035,6.307,5.517,12.549,9.406,18.448c15.446,23.431,38.066,40.842,63.578,52.055c2.85,2.106,5.456,4.559,8.206,6.793.483.393,1.997,2.052,2.562,1.77.554,1.685,3.427,2.772,4.867,3.651c4.29,2.619,8.822,4.787,12.817,7.789c6.987,4.608,15.506,7.698,23.344,10.502c23.303,8.337,47.894,10.459,72.337,6.616c5.709-.897,11.5-1.933,17.051-3.562c2.786-.817,5.487-1.934,8.29-2.68-.373,1.648-2.945,2.649-4.147,3.698-4.633,4.044-10.083,7.271-15.278,10.53-22.511,14.122-49.861,21.552-76.413,19.831-35.516-2.301-70.733-19.003-94.145-46.016-16.289-18.794-27.182-42.28-31.521-66.744-1.363-7.681-2.827-15.267-2.95-23.106Z" transform="translate(262.168314 -5.662872)" fill="#2e6ba5" fill-rule="evenodd"/><path d="M87.067,482.63c1.991-7.986,3.51-15.965,6.047-23.847c3.764-11.693,10.119-23.367,17.328-33.287c9.846-13.548,21.507-26.089,35.931-34.858c33.68-20.476,78.41-20.703,114.267-5.823c15.981,6.631,30.328,15.813,43.337,27.207c3.007,2.634,5.805,5.455,8.595,8.313c1.005,1.03,2.916,2.261,3.366,3.668-4.115-2.571-7.48-6.232-11.425-9.065-9.356-6.721-19.474-12.463-30.119-16.885-25.117-10.433-54.051-13.585-80.828-8.729-21.781,3.95-42.206,13.676-59.639,27.163-14.275,11.043-27.106,25.54-35.632,41.467-2.178,4.068-4.332,8.215-6.089,12.485-1.026,2.493-1.612,5.144-2.684,7.62-.628,1.45-1.204,2.94-1.796,4.401-.108.266-.355,1.548-.725,1.532.019-.455.031-.909.066-1.362Z" transform="translate(262.168314 -5.662872)" fill="#69ada4" fill-rule="evenodd"/><path d="M89.922,531.596c1.639-8.745,2.056-18.648,6.333-26.613c7.057-13.144,24.859-17.81,37.97-10.911c4.851,2.552,9.331,5.669,12.933,9.839c2.568,2.974,5.157,8.317,9.066,9.68c2.722.949,7.008-1.032,9.616-1.792c5.494-1.601,10.902-2.587,16.582-3.114.608-.63.26-3.398.277-4.264.083-4.239.274-8.537.197-12.771-4.455-1.717-5.845-8.805-.147-9.931c3.72-.736,7.171,2.746,6.026,6.457-.696,2.254-2.067,2.673-3.888,3.759.45,3.665-.538,7.431-.999,11.048-.236,1.848-.176,3.79-.592,5.601c1.692.389,3.953-.164,5.707-.189c3.676-.051,7.307.114,10.953.547.561,1.565-.641,2.881-.48,4.399.052.495.359.893.389,1.401-7.909-.761-16.078-.43-23.893,1.034-5.532,1.036-10.933,2.964-16.577,3.335-1.87.123-3.538-.782-5.344-.751-1.985.72-3.075,2.931-5.058,3.809-2.873,1.272-5.557.998-8.503,1.647-.503-.41-.717-1.552-1.163-2.139-1.517-1.999-3.094-4.17-5.417-5.273-3.493-1.659-7.42.009-6.246,4.228.43,1.545,1.319,2.908,1.724,4.45-3.863,2.617-10.23,3.371-14.731,2.376-1.457-.322-2.622-1.191-4.006-1.629-.712,3.398-1.177,6.81-2.352,10.096-.744,2.077-2.175,4.091-2.735,6.181c3.39,2.254,6.426,4.908,10.078,6.808c6.25,3.251,13.385,4.286,20.331,3.994c3.841-.162,8.711-.068,11.161-3.598c3.138-4.521,2.003-9.939,2.056-15.043c1.486.063,1.361.817,1.857,2.067.816,2.057.848,4.382,1.713,6.397.279.649,2.002,2.438,2.819,1.941.929-1.554,2.427-2.768,3.754-3.968c1.793-1.621,3.721-3.919,6.288-4.127-.105.862-1.002,1.493-1.518,2.154-1.029,1.319-1.878,2.816-2.681,4.28-2.604,4.753-3.203,11.453-.556,16.342c5.196,9.6,18.277,8.595,27.507,9.623c13.446,1.496,27.275.551,40.785.923c9.942.274,19.896.52,29.848.533c4.118.006,8.514.498,12.597.065-5.54-7.786-16.948-12.066-25.848-14.193-11.622-2.778-23.465-5.271-35.19-7.584-3.75-.74-7.449-1.692-11.182-2.505-2.427-.529-5.206-.765-7.465-1.796.879-.811,1.786-.631,2.938-.642c2.45-.025,4.955.31,7.4.483c10.179.717,20.308,2.005,30.391,3.561c9.689,1.494,20.497,3.168,29.274,7.74c6.67,3.475,12.259,9.74,19.697,11.515c7.485,1.786,15.23,2.122,22.889,2.395c11.274.4,22.583.398,33.865.215c4.497-.072,9.106-.505,13.593-.261.021,1.292-.017,3.06.321,4.29-14.463.487-28.998.655-43.472.418-10.575-.174-21.153-.74-31.729-.724-26.36.039-52.706,1.088-79.081.978-2.632-.011-5.262-.085-7.894-.092-12.896-.032-32.125.083-36.07-15.465-.857-3.376-.205-6.702.085-10.071-.974-.641-2.126-1.295-3.254-1.573-1.318,6.37-6.179,7.64-11.864,8.252-8.571.924-17.595-.12-25.289-4.225-2.492-1.329-4.824-2.902-7.082-4.592-.724-.542-2.121-2.241-2.994-2.268-.993.668-1.912,1.264-3.123,1.392-8.116.858-11.548-7.147-10.597-14.149Zm4.507.016c-.322,2.854-.479,11.152,4.386,10.271c5.615-5.269,8.514-14.154,8.951-21.72c2.317.148,4.105,2.071,6.19,2.932c2.17.897,5.316.497,7.599.242.782-.088,2.683.044,3.272-.35-.682-1.868-1.629-3.285-1.429-5.376.494-5.164,6.066-7.868,10.65-6.119c2.208.842,4.299,2.327,5.712,4.232c1.057,1.426,1.733,3.228,2.967,4.505.755-.074,1.47-.681,2.177-.955c1.89-.73,4.934-1.835,5.961-3.734-8.147-10.812-19.031-20.579-33.419-19.01-2.681.292-5.186.984-7.589,2.233-2.453,1.276-4.603,2.988-6.361,5.127-2.972,3.618-4.258,7.988-5.529,12.405-1.464,5.087-2.598,10.113-3.538,15.317Z" transform="translate(262.168314 -5.662872)" fill="#488f79" fill-rule="evenodd"/><path d="M98.915,563.081c1.462-5.182,5.47-5.244,10.085-5.289c9.5-.093,19.003-.142,28.502-.07c2.577.02,5.15-.001,7.726-.044c1.354-.022,2.925-.145,4.184.447c4.012,1.888,3.884,7.077,3.357,10.767-.15,1.054-.165,3.208-1.102,3.904-10.837.707-21.801.225-32.669.282-3.499.018-7.001-.03-10.495-.092-1.865-.033-4.012.183-5.802-.438-3.693-1.281-4.378-6.145-3.786-9.467Z" transform="translate(262.168314 -5.662872)" fill="#3f867c" fill-rule="evenodd"/><path d="M150.029,629.933c-3.995-3.002-8.527-5.17-12.817-7.789-1.44-.879-4.313-1.966-4.867-3.651-.713-7.991.033-16.401.073-24.428-5.351-1.103-11.348.072-16.785-.233-1.229-.751-2.073-2.719-2.954-3.865-2.67-3.472-5.848-7.289-7.886-11.142c16.56-.447,33.146.158,49.704-.309c39.903-1.123,79.952-.152,119.871-.071c17.712.036,35.422.177,53.134.125c5.675-.016,11.35-.144,17.026-.145c2.559-.001,5.567-.432,8.051.212-.161,5.006.595,10.157.803,15.168-.284.396-.936.159-1.38.144-1.496-.052-3.001-.003-4.498-.007-6.232-.018-12.551-.069-18.772.249.028,8.339-.056,16.734-.177,25.065c1.289.029,2.593-.775,3.823-1.135c3.728-1.091,8.479-2.726,12.401-2.526-1.183,3.268-3.488,6.475-5.324,9.419-4.809,7.712-10.273,15-16.34,21.765-35.99,40.122-91.762,58.894-144.66,47.778-13.706-2.88-26.967-7.843-39.525-13.999-2.885-1.414-5.655-3.006-8.446-4.59-1.91-1.085-4.052-2.073-5.419-3.846c5.057,1.669,9.864,4.082,14.951,5.747c9.866,3.229,20.325,5.337,30.68,6.099c25.125,1.849,50.699-4.586,73.018-15.91c14.887-7.553,27.704-17.956,41.677-26.922c8.439-5.415,17.024-10.23,25.883-14.897.919-2.914.13-7.182.127-10.241-.008-7.262.28-14.572.065-21.822-4.313-.639-9.04-.053-13.402-.097-9.354-.096-18.706-.217-28.066-.212-27,.013-54-.025-81-.097-9.833-.027-19.666.011-29.499.018-2.499.002-4.998.006-7.496.028-.756.006-1.891-.238-2.383.379-.09,8.762-.008,17.535-.038,26.302-.008,2.169.007,4.339-.008,6.507-.007.991-.216,2.115.455,2.929Z" transform="translate(262.168314 -5.662872)" fill="#4d8762" fill-rule="evenodd"/><path d="M179.76,521.478c1.794-3.49,7.267-1.908,6.228,2.013-1.603,3.92-7.112,2.098-6.228-2.013Z" transform="translate(262.168314 -5.662872)" fill="#4c8f75" fill-rule="evenodd"/><path d="M191.929,521.068c.697-3.629,6.912-3.218,6.416.505-.196,1.468-1.971,3.485-3.614,3.197-1.235-.217-3.046-2.432-2.802-3.702Z" transform="translate(262.168314 -5.662872)" fill="#438a75" fill-rule="evenodd"/><path d="M234.805,516.624c.603-.002,1.139.047,1.732.142c2.403.329,4.724,1.221,7.127,1.608c4.718.762,9.489.69,14.157-.372c5.493-1.25,10.518-4.059,15.887-5.71c5.249-1.613,10.991-2.001,16.433-1.443c11.66,1.195,21.428,9.194,31.902,13.745c6.149,2.672,12.551,4.489,19.103,5.885c3.056.652,6.287.755,9.303,1.507.256,2.302.351,5.001.165,7.307-10.91-.699-22.595-3.608-32.418-8.424-9.552-4.684-18.835-11.762-29.674-13.052-4.115-.489-8.443-.408-12.481.596-6.908,1.717-13.465,4.941-20.589,5.767-12.406,1.437-24.919-3.671-36.897-6.04-4.032-.797-8.031-1.802-12.084-2.488-1.981-.335-4.502-.184-6.325-1.003-.18-1.497.063-4.003.963-5.215c2.821-.245,5.855.781,8.629,1.308c5.549,1.053,11.038,2.346,16.525,3.671c2.019.488,4.116.85,6.091,1.489.798.258,1.61.946,2.451.722Z" transform="translate(262.168314 -5.662872)" fill="#5c9465" fill-rule="evenodd"/><path d="M202.057,507.614c1.017-2.188,1.355-5.213,1.985-7.581.852-3.203,2.537-6.729,2.742-10.044.067-1.082-1.587-2.225-2.104-3.133-1.277-2.241-.083-5.179,2.022-6.452c2.914-1.762,6.822.67,7.546,3.723.438,1.848-.509,3.803-1.903,4.992-.966.824-2.145,1.062-3.364,1.243-1.301,4.096-2.662,8.235-4.258,12.226-.47,1.174-1.248,5.046-2.423,5.664-.202.106-.22-.411-.243-.638Z" transform="translate(262.168314 -5.662872)" fill="#5d9982" fill-rule="evenodd"/><path d="M204.344,521.026c1.312-2.902,6.182-2.31,6.468.995.184,2.124-3.058,4.184-4.891,3.026-.974-1.091-1.747-2.517-1.577-4.021Z" transform="translate(262.168314 -5.662872)" fill="#4a9376" fill-rule="evenodd"/><path d="M216.899,523.008c.1-.133.2-.266.301-.399c2.104-2.283,6.935-.002,5.554,3.169-1.738,3.99-7.37,1.143-5.855-2.77Z" transform="translate(262.168314 -5.662872)" fill="#46896b" fill-rule="evenodd"/><path d="M220.05,510.633c1.672-4.41,3.78-8.872,5.867-13.108.741-1.505,1.731-2.998,2.247-4.596.049-.879-.568-1.422-.914-2.188-.537-1.188-.545-2.535-.045-3.738c2.639-6.35,11.636-2.026,8.64,3.991-.335.674-.736,1.318-1.308,1.819-1.352,1.181-3.122.491-4.605.995-1.48,4.042-3.894,7.91-6.025,11.64-.893,1.563-1.752,3.177-2.719,4.695-.319.5-1,1.658-1.138.49Z" transform="translate(262.168314 -5.662872)" fill="#5d9c7d" fill-rule="evenodd"/><path d="M227.91,527.059c.246-.626.527-1.121,1.004-1.602c3.692-3.723,7.792,2.529,3.842,4.99-2.411.574-5.087-.566-4.846-3.388Z" transform="translate(262.168314 -5.662872)" fill="#408664" fill-rule="evenodd"/><path d="M236.537,516.766c-.593-.095-1.129-.144-1.732-.142.722-1.394,2.148-2.353,3.065-3.61c2.19-3.003,4.345-6.039,6.547-9.038.967-1.318,2.302-2.6,3.031-4.059.175-1.784-1.125-2.975-.247-5c.345-.794.945-1.583,1.596-2.151c5.675-4.957,11.918,5.919,5.252,8.485-1.772.682-3.393-.075-5.168-.088-3.141,4.079-6.468,7.995-9.905,11.827-.529.589-3.399,2.905-2.439,3.776Z" transform="translate(262.168314 -5.662872)" fill="#5d9b75" fill-rule="evenodd"/><path d="M268.835,438.499c.099-.167.198-.334.297-.501c1.849-1.543,4.631-.117,6.565.676c3.781,1.551,7.507,3.217,11.161,5.057.991.499,3.277,2.151,4.355,2.067.239-1.766.514-3.497.837-5.254c1.722.143,3.248,1.273,4.672,2.193c2.085,1.348,4.226,2.629,6.444,3.748c7.024,3.545,15.607,4.232,23.013,1.511c8.775-3.224,15.234-10.049,21.042-17.087c4.302-5.212,8.099-10.716,13.672-14.709c8.234-5.9,19.223-7.709,29.072-8.627c11.226-1.045,23.417-.375,34.266,2.836c4.768,1.411,9.603,3.247,13.606,6.27c4.974,3.755,8.536,8.89,11.198,14.467c2.162,4.528,3.427,9.391,4.027,14.358.439,3.632.301,7.307-.374,10.898-.429,2.282-1.234,4.539-2.301,6.598-8.436,16.297-29.731,15.775-45.362,13.679-3.422-.459-6.87-1.057-10.217-1.908-3.991-1.015-7.994-1.951-11.921-3.203-7.239-2.307-15.193-4.24-21.229-9.105-2.705-2.18-5.434-5.059-5.568-8.721c1.339-1.539,4.538-.944,6.359-.814c4.329.306,8.702.92,12.988,1.607c1.61.258,3.216.81,4.842.906.025-1.777-.041-3.508.393-5.245c1.608-.076,3.42.69,4.952,1.185c2.552.824,5.148,1.526,7.735,2.227c10.891,2.954,23.125,2.215,29.36-8.523c1.341-2.311,3.321-6.056,2.856-8.782-2.339,3.155-3.902,6.61-6.824,9.344-5.548,5.191-13.883,6.167-21.085,4.715-4.856-.978-9.477-2.867-14.315-3.907-1.52-.327-3.786-1.128-5.248-.383-.787,1.471-1.323,3.108-1.687,4.739-1.584.154-3.723-.813-5.292-1.145-1.201-.254-2.403-.539-3.618-.718-5.565-.818-16.85-2.159-15.827,6.532.217,1.845,1.058,3.436,1.983,5.021.364.623,1.083,1.25,1.246,1.952-.629,1.235-2.173,2.27-3.237,3.12-3.409,2.723-7.504,4.57-11.632,5.881-18.483,5.868-37.189-2.991-53.498-10.968-.226-.877.737-1.619.484-2.445-1.724-.334-3.541-1.719-5.089-2.542-4.785-2.541-9.237-5.825-11.718-10.803-.917-1.839-1.788-4.121-1.383-6.197Z" transform="translate(262.168314 -5.662872)" fill="#7ea85a" fill-rule="evenodd"/><path d="M311.281,666.927c3.732-3.549,7.663-6.859,11.289-10.531c1.81-1.833,3.671-4.611,5.949-5.832.173,9.47.173,18.958.171,28.434-.002,5.89.224,11.827-.176,17.701-.997.576-3.342.144-4.515.142-4.095-.007-8.255.235-12.341-.041-.978-2.345-.281-6.259-.308-8.798-.049-4.667-.11-9.333-.136-14.001-.013-2.267-.395-4.856.067-7.074Z" transform="translate(262.168314 -5.662872)" fill="#40806c" fill-rule="evenodd"/><path d="M356.456,520.62c.594-4.851.244-9.949.425-14.837.327-8.804.934-17.598,1.359-26.398.157-3.255.565-6.523.604-9.78.005-.467-.253-2.939.461-3.082.416-.084,1.569.929,1.942,1.158c1.607.988,3.37,1.778,5.089,2.546c6.054,2.706,12.611,4.664,19,6.397c11.568,3.137,23.847,5.538,35.873,5.328c3.584-.063,7.109-.322,10.646-.903c1.795-.295,3.888-1.349,5.685-1.287c2.228,43.383,2.305,87.338.022,130.719-.665,12.646-1.597,25.282-2.306,37.922-.715,12.773-1.654,26.266-4.712,38.716-1.152,4.687-3.754,11.808-9.944,10.055-2.902-.821-4.7-4.157-5.843-6.704-3.141-6.995-3.879-15.235-4.952-22.75-3.023-21.189-5.921-42.453-8.351-63.718-.53-4.639-1.189-9.292-1.572-13.945-.346-4.198-.497-8.647-1.547-12.731-1.045,8.026-1.415,16.225-2.135,24.3-.977,10.969-2.223,21.927-3.324,32.876-1.178,11.704-1.824,23.472-3.291,35.143-.888,7.058-1.249,14.497-3.903,21.185-1.138,2.868-3.217,6.281-6.62,6.538-4.86.367-7.204-4.743-8.591-8.588-3.528-9.775-4.205-21.083-5.19-31.364-2.82-29.451-4.965-58.898-7.178-88.391-.512-6.823-.551-13.681-1.029-20.51-.645-9.217-1.068-18.653-.618-27.895Z" transform="translate(262.168314 -5.662872)" fill="#68965a" fill-rule="evenodd"/><path d="M369.956,362.091c.749-5.913,3.29-12.148,7.546-16.441c8.781-8.857,23.975-10.944,34.351-3.49c9.459,6.796,12.772,19.118,11.193,30.285-.715,5.056-2.174,9.842-4.573,14.351-1.692,3.18-4.085,6.238-6.799,8.61-2.179,1.904-4.624,3.715-7.345,4.771-2.156.837-4.445,1.371-6.758,1.472-7.06.307-13.711-3.506-18.314-8.649-7.329-8.188-10.679-20.039-9.301-30.909Z" transform="translate(262.168314 -5.662872)" fill="#89b15a" fill-rule="evenodd"/></svg>