<svg xmlns="http://www.w3.org/2000/svg"
shape-rendering="geometricPrecision"
width="4000" height="4000" viewBox="0 0 1024 1024">
  <metadata>null</metadata>

<path d="
M 305.119 673.874
C 304.397 675.305 303.02 674.377 301.893 673.844
C 298.841 672.398 295.742 671.073 292.667 669.676
C 279.543 663.715 266.945 656.74 255.204 648.354
C 221.721 624.439 193.181 594.962 170.782 560.396
C 164.603 550.861 159.083 540.819 154.015 530.658
C 151.731 526.077 149.541 521.443 147.27 516.86
C 146.796 515.901 146.741 514.823 146.228 513.908
C 145.43 505.511 145.832 496.978 146.098 488.568
C 146.654 470.957 148.528 453.53 151.683 436.195
C 161.414 382.73 184.048 332.266 216.244 288.594
C 228.025 272.614 241.511 257.965 255.594 244.006
C 273.008 226.746 292.649 210.833 313.398 197.75
C 318.351 194.626 323.329 191.418 328.47 188.62
C 329.373 188.128 332.391 185.833 333.358 186.376
C 332.452 187.703 330.867 188.599 329.603 189.552
C 327.495 191.141 325.49 192.942 323.449 194.622
C 316.049 200.715 309.032 207.563 302.44 214.515
C 281.787 236.297 264.39 261.381 250.598 288.027
C 234.176 319.756 222.589 354.287 216.921 389.573
C 200.601 491.166 231.645 600.624 305.119 673.874 Z"
opacity="1" fill="rgb(56,117,162)" fill-rule="evenodd" />
<path d="
M 146.228 513.908
C 146.741 514.823 146.796 515.901 147.27 516.86
C 149.541 521.443 151.731 526.077 154.015 530.658
C 159.083 540.819 164.603 550.861 170.782 560.396
C 193.181 594.962 221.721 624.439 255.204 648.354
C 266.945 656.74 279.543 663.715 292.667 669.676
C 295.742 671.073 298.841 672.398 301.893 673.844
C 303.02 674.377 304.397 675.305 305.119 673.874
C 342.81 706.19 385.274 733.716 432.182 750.652
C 455.183 758.956 478.783 763.814 502.883 767.475
C 518.067 769.782 534.159 770.352 549.491 769.541
C 571.952 768.352 593.913 765.596 615.849 760.46
C 623.994 758.553 632.004 756.15 640.013 753.747
C 642.184 753.096 644.397 752.524 646.515 751.714
C 647.741 751.245 649.35 750.497 650.668 750.642
C 650.55 751.732 648.697 752.705 647.913 753.373
C 645.071 755.796 642.182 758.168 639.251 760.48
C 626.866 770.244 613.889 779.322 600.197 787.17
C 580.345 798.547 559.97 808.532 538.189 815.699
C 495.668 829.691 449.477 832.647 405.314 825.909
C 372.277 820.869 339.242 810.486 309.746 794.652
C 243.841 759.271 193.019 698.58 167.392 628.48
C 158.619 604.482 152.17 579.136 149.123 553.742
C 148.058 544.871 147.167 535.987 146.638 527.066
C 146.381 522.732 146.714 518.19 146.228 513.908 Z"
opacity="1" fill="rgb(46,101,158)" fill-rule="evenodd" />
<path d="
M 237.469 393.116
C 238.04 391.208 238.039 389.033 238.42 387.065
C 239.298 382.516 240.272 377.976 241.229 373.442
C 243.261 363.817 246.131 354.36 249.037 344.972
C 259.386 311.536 276.837 279.559 297.554 251.471
C 315.227 227.51 336.717 205.308 361.44 188.583
C 428.138 143.46 514.758 134.617 592.046 152.234
C 605.684 155.342 618.987 159.582 632.142 164.291
C 671.646 178.431 708.862 201.006 740.095 228.988
C 747.618 235.727 754.781 242.912 761.686 250.282
C 763.553 252.275 765.547 254.194 767.218 256.358
C 767.841 257.165 769.031 257.949 769.368 258.925
C 765.308 256.273 761.763 252.566 758.086 249.411
C 752.928 244.987 747.474 240.872 741.969 236.891
C 724.316 224.126 705.287 212.845 685.387 203.941
C 636.468 182.053 583.094 171.932 529.542 174.064
C 504.175 175.074 478.436 178.728 454.03 185.895
C 429.993 192.954 406.799 202.611 384.97 214.941
C 339.025 240.892 299.186 278.473 271.333 323.342
C 262.061 338.28 253.842 353.831 247.166 370.108
C 244.918 375.587 242.693 381.072 240.699 386.648
C 240.031 388.517 239.353 390.382 238.679 392.249
C 238.546 392.618 237.529 395.204 237.421 394.905
C 237.355 394.282 237.404 393.734 237.469 393.116 Z"
opacity="1" fill="rgb(102,169,154)" fill-rule="evenodd" />
<path d="
M 317.636 822.75
C 320.759 823.153 323.742 824.73 326.629 825.951
C 331.077 827.832 335.617 829.517 340.161 831.149
C 354.491 836.296 369.147 840.661 384.038 843.872
C 439.461 855.824 498.391 850.014 551.19 829.795
C 577.874 819.577 603.364 805.916 627.146 790.103
C 650.184 774.785 671.312 756.823 694.465 741.661
C 716.651 727.133 740.657 714.801 765.226 704.854
C 778.893 699.32 792.932 694.561 807.241 690.984
C 813.816 689.34 820.599 687.514 827.367 686.926
C 823.674 695.327 818.191 703.4 813.207 711.086
C 801.296 729.454 787.889 746.689 773.064 762.786
C 737.713 801.171 695.732 831.959 648.145 853.471
C 629.808 861.76 610.476 867.398 591.035 872.369
C 536.692 886.264 476.952 885.351 422.946 870.318
C 396.04 862.828 369.925 852.578 345.329 839.286
C 338.922 835.823 332.683 832.186 326.459 828.409
C 323.602 826.675 320.063 825.032 317.636 822.75 Z"
opacity="1" fill="rgb(74,130,91)" fill-rule="evenodd" />
<path d="
M 724.997 697.534
C 733.96 688.66 742.63 679.587 750.841 670.003
C 768.991 648.821 784.196 624.907 797.033 600.195
C 803.341 588.051 808.464 575.262 813.269 562.467
C 835.268 503.881 840.796 437.48 828.059 376.152
C 823.113 352.334 815.342 329.27 805.358 307.102
C 802.725 301.255 799.991 295.41 796.916 289.781
C 795.258 286.747 793.28 283.789 791.893 280.625
C 797.433 285.79 801.806 292.789 806.272 298.913
C 818.018 315.02 828.424 332.474 837.076 350.433
C 872.686 424.354 882.719 509.516 863.917 589.543
C 859.256 609.383 853.315 628.591 845.801 647.533
C 843.528 653.261 841.147 658.995 838.477 664.55
C 837.339 666.916 836.417 669.702 834.85 671.82
C 832.653 671.986 830.296 671.514 828.091 671.4
C 823.315 671.154 818.398 671.022 813.627 671.419
C 795.179 672.956 777.662 676.704 760.074 682.495
C 751.987 685.157 743.74 688.499 736.157 692.368
C 733.406 693.771 730.664 695.197 727.963 696.697
C 727.23 697.104 725.755 698.473 724.933 698.38
C 724.415 698.321 724.935 697.629 724.997 697.534 Z"
opacity="1" fill="rgb(118,159,87)" fill-rule="evenodd" />

</svg>