<svg xmlns="http://www.w3.org/2000/svg" xmlns:bx="https://boxy-svg.com" shape-rendering="geometricPrecision" viewBox="301.35 320.2 900 281.57">
  <defs>
    <bx:export>
      <bx:file format="svg"/>
      <bx:file format="svg" href="#object-18" path="Untitled 20.svg"/>
      <bx:file format="svg" href="#object-19" path="Untitled 21.svg"/>
      <bx:file format="svg" href="#object-20" path="Untitled 22.svg"/>
      <bx:file format="svg" href="#object-21" path="Untitled 23.svg"/>
      <bx:file format="svg" href="#object-22" path="Untitled 24.svg"/>
      <bx:file format="svg" href="#object-23" path="Untitled 25.svg"/>
      <bx:file format="svg" href="#object-24" path="Untitled 26.svg"/>
      <bx:file format="svg" href="#object-25" path="Untitled 27.svg"/>
      <bx:file format="svg" href="#object-26" path="Untitled 28.svg"/>
      <bx:file format="svg" href="#object-27" path="Untitled 29.svg"/>
      <bx:file format="svg" href="#object-28" path="Untitled 30.svg"/>
      <bx:file format="svg" href="#object-29" path="Untitled 31.svg"/>
      <bx:file format="svg" href="#object-30" path="Untitled 32.svg"/>
      <bx:file format="svg" href="#object-31" path="Untitled 33.svg"/>
      <bx:file format="svg" href="#object-32" path="Untitled 34.svg"/>
      <bx:file format="svg" href="#object-33" path="Untitled 35.svg"/>
      <bx:file format="svg" href="#object-34" path="Untitled 36.svg"/>
      <bx:file format="svg" href="#object-35" path="Untitled 37.svg"/>
      <bx:file format="svg" href="#object-36" path="Untitled 38.svg"/>
      <bx:file format="svg" href="#object-37" path="Untitled 39.svg"/>
      <bx:file format="svg" href="#object-38" path="Untitled 40.svg"/>
      <bx:file format="svg" href="#object-39" path="Untitled 41.svg"/>
      <bx:file format="svg" href="#object-40" path="Untitled 42.svg"/>
      <bx:file format="svg" href="#object-41" path="Untitled 43.svg"/>
      <bx:file format="svg" href="#object-18" path="Untitled 62.svg"/>
      <bx:file format="svg" href="#object-19" path="Untitled 63.svg"/>
      <bx:file format="svg" href="#object-20" path="Untitled 64.svg"/>
      <bx:file format="svg" href="#object-21" path="Untitled 65.svg"/>
      <bx:file format="svg" href="#object-22" path="Untitled 66.svg"/>
      <bx:file format="svg" href="#object-23" path="Untitled 67.svg"/>
      <bx:file format="svg" href="#object-24" path="Untitled 68.svg"/>
      <bx:file format="svg" href="#object-25" path="Untitled 69.svg"/>
      <bx:file format="svg" href="#object-26" path="Untitled 70.svg"/>
      <bx:file format="svg" href="#object-27" path="Untitled 71.svg"/>
      <bx:file format="svg" href="#object-28" path="Untitled 72.svg"/>
      <bx:file format="svg" href="#object-29" path="Untitled 73.svg"/>
      <bx:file format="svg" href="#object-30" path="Untitled 74.svg"/>
      <bx:file format="svg" href="#object-31" path="Untitled 75.svg"/>
      <bx:file format="svg" href="#object-32" path="Untitled 76.svg"/>
      <bx:file format="svg" href="#object-33" path="Untitled 77.svg"/>
      <bx:file format="svg" href="#object-34" path="Untitled 78.svg"/>
      <bx:file format="svg" href="#object-35" path="Untitled 79.svg"/>
      <bx:file format="svg" href="#object-36" path="Untitled 80.svg"/>
      <bx:file format="svg" href="#object-37" path="Untitled 81.svg"/>
      <bx:file format="svg" href="#object-38" path="Untitled 82.svg"/>
      <bx:file format="svg" href="#object-39" path="Untitled 83.svg"/>
      <bx:file format="svg" href="#object-40" path="Untitled 84.svg"/>
      <bx:file format="svg" href="#object-41" path="Untitled 85.svg"/>
    </bx:export>
  </defs>
  <path d="M 301.557 328.114 C 310.401 327.692 319.383 328.084 328.234 328.139 C 328.375 329.004 328.424 329.771 328.381 330.644 C 326.067 331.782 322.99 331.132 321.972 334.313 C 321.533 335.676 322.099 337.244 322.488 338.557 C 323.45 341.804 324.569 345.024 325.672 348.23 C 329.773 360.139 334.844 371.909 338.282 384.01 C 339.181 383.427 339.173 382.004 339.459 381.067 C 340.368 378.099 341.549 375.247 342.602 372.332 C 344.328 367.564 346.13 362.793 348.008 358.087 C 348.668 356.439 350.451 353.963 350.355 352.196 C 350.099 347.379 347.057 341.405 345.31 336.918 C 344.626 335.171 343.62 333.201 341.897 332.263 C 339.239 330.815 336.631 332.121 336.554 328.313 C 337.9 327.385 341.429 328.201 343.101 328.159 C 348.059 328.037 353.015 328.096 357.973 328.047 C 359.845 328.027 362.913 327.436 364.521 328.375 C 364.6 329.246 364.75 330.147 364.618 331.018 C 361.998 330.809 357.839 331.648 357.59 334.918 C 357.263 339.231 359.792 344.279 361.246 348.242 C 364.242 356.422 366.935 364.729 370.015 372.878 C 370.99 375.459 371.93 378.068 372.843 380.668 C 373.205 381.702 373.36 383.65 374.186 384.368 C 374.724 383.79 374.741 382.06 375.037 381.244 C 376.1 378.295 377.109 375.314 378.097 372.339 C 381.137 363.15 384.746 354.112 387.511 344.84 C 388.353 342.013 390.6 337.777 389.852 334.782 C 388.792 330.536 385.116 331.262 381.743 330.86 C 381.654 329.795 381.629 328.747 381.713 327.68 C 386.875 327.644 392.076 327.838 397.237 327.613 C 398.578 327.556 402.047 326.885 403.047 327.801 C 403.262 328.677 403.433 329.558 403.586 330.448 C 395.086 330.114 393.091 341.267 391.24 347.469 C 387.538 359.883 382.805 372.046 378.716 384.344 C 377.333 388.502 375.865 392.632 374.29 396.723 C 373.723 398.186 373.577 399.988 372.549 401.214 C 371.195 401.525 369.664 401.776 368.387 401.147 C 364.712 391.678 361.403 382.018 357.912 372.474 C 356.598 368.885 355.296 365.298 353.91 361.736 C 353.683 361.151 353.317 358.325 352.733 358.129 C 352.425 358.024 352.379 358.676 352.2 358.946 C 347.201 373.017 341.492 386.831 336.936 401.063 C 335.71 401.589 333.931 401.329 332.618 401.262 C 331.251 399.215 330.645 396.148 329.817 393.821 C 328.157 389.151 326.472 384.5 324.861 379.812 C 320.585 367.345 316.132 354.927 311.795 342.479 C 310.792 339.603 309.866 335.806 307.843 333.482 C 306.284 331.691 303.051 332.347 301.638 330.817 C 301.068 330.206 301.519 328.829 301.557 328.114 Z" opacity="1" fill="rgb(54,100,156)" fill-rule="evenodd" style="" id="object-18"/>
  <path d="M 301.352 598.475 C 301.501 598.077 301.652 597.681 301.8 597.279 C 304.203 596.184 307.289 595.39 309.202 593.484 C 314.243 588.468 316.484 579.142 319.093 572.68 C 326.005 555.543 331.846 537.148 340.027 520.609 C 340.93 520.573 342.872 520.051 343.556 520.927 C 346.513 524.715 348.153 531.425 349.854 535.964 C 355.991 552.349 362.651 568.583 369.216 584.798 C 370.855 588.845 372.473 592.798 376.455 595.027 C 377.859 595.817 381.345 596.831 380.823 598.864 C 372.941 600.507 364.323 598.483 356.3 599.311 C 354.68 599.477 348.927 600.491 350.215 597.503 C 352.681 596.412 355.739 595.483 357.762 593.636 C 358.792 589.191 355.103 582.234 353.572 578.073 C 352.972 576.447 352.44 574.232 351.157 573.042 C 342.525 574.563 333.279 572.421 324.545 573.405 C 321.149 576.38 319.838 584.465 318.31 588.654 C 317.763 590.152 316.535 592.108 317.442 593.562 C 319.46 594.452 326.824 596.373 324.549 599.532 C 319.417 600.374 313.746 599.685 308.544 599.793 C 306.01 599.847 303.267 600.292 301.352 598.475 Z M 326.195 567.722 C 326.133 568.122 326.077 568.521 326.019 568.92 C 331.923 568.826 337.821 568.758 343.726 568.683 C 345.448 568.66 348.851 569.386 350.319 568.651 C 347.943 561.961 344.878 555.462 342.393 548.794 C 341.116 545.37 340.252 541.184 338.213 538.159 C 336.51 540.505 335.8 544.213 334.726 546.96 C 332.026 553.863 329.694 561.188 326.195 567.722 Z" opacity="1" fill="rgb(90,137,88)" fill-rule="evenodd" style="" id="object-19"/>
  <path d="M 301.518 422.263 C 308.828 421.619 316.407 422.336 323.757 422.302 C 326.316 422.292 330.785 421.38 333.128 422.388 C 333.284 423.202 333.134 424.664 332.745 425.385 C 329.798 425.821 327.21 425.294 324.999 427.808 C 323.068 430.004 323.524 433.823 323.518 436.54 C 323.503 443.592 323.469 450.649 323.64 457.698 C 326.73 458.361 331.089 457.508 334.313 457.495 C 343.099 457.458 351.922 457.254 360.706 457.43 C 361.075 457.26 360.876 455.849 360.884 455.476 C 360.912 453.753 360.869 452.025 360.869 450.3 C 360.871 445.263 360.943 440.226 360.879 435.187 C 360.85 432.911 361.21 430.069 359.774 428.121 C 357.338 424.812 354.223 426.782 351.271 425.458 C 351.235 424.407 351.198 423.358 351.146 422.307 C 357.838 422.123 364.557 422.283 371.261 422.277 C 374.764 422.272 378.484 421.809 381.96 422.244 C 382.059 423.298 382.111 424.346 382.153 425.404 C 381.304 425.299 380.328 425.435 379.475 425.513 C 372.359 426.15 373.15 433.5 373.07 438.765 C 372.843 453.383 372.941 468.014 373.066 482.633 C 373.113 488.119 371.994 495.614 379.034 496.958 C 380.276 497.196 381.508 497.336 382.772 497.303 C 382.79 498.268 382.7 499.218 382.674 500.18 C 372.377 500.114 361.78 499.484 351.511 500.157 C 350.884 499.747 351.198 498.222 351.173 497.508 C 354.087 497.012 357.491 496.922 359.558 494.494 C 361.533 492.178 360.837 488.071 360.858 485.264 C 360.915 477.617 360.556 469.873 361.028 462.239 C 360.613 461.777 359.345 462.048 358.728 462.05 C 356.308 462.058 353.888 462.048 351.468 462.047 C 342.233 462.042 332.979 462.185 323.753 462.133 C 323.161 464.683 323.447 467.478 323.439 470.085 C 323.426 474.705 323.431 479.322 323.44 483.943 C 323.447 486.585 322.716 490.618 323.841 493.047 C 325.41 496.439 328.848 497.11 332.198 497.201 C 332.431 498.004 332.953 499.499 332.52 500.311 C 324.793 499.302 316.376 500.175 308.581 500.203 C 306.794 500.208 305.005 500.224 303.216 500.18 C 302.987 500.175 301.74 500.259 301.56 500 C 301.163 499.429 301.445 498.083 301.502 497.445 C 304.859 496.83 308.509 496.634 310.376 493.29 C 311.281 491.67 311.069 489.518 311.055 487.732 C 311.033 484.709 311.08 481.685 311.085 478.662 C 311.1 466.378 311.051 454.092 311.114 441.808 C 311.138 437.15 312.894 427.394 306.607 425.798 C 305.177 425.434 303.499 425.243 302.026 425.285 C 301.43 424.449 301.563 423.246 301.518 422.263 Z" opacity="1" fill="rgb(96,138,83)" fill-rule="evenodd" style="" id="object-20"/>
  <path d="M 388.728 558.897 C 389.456 553.93 389.838 549.09 391.915 544.433 C 399.819 526.737 418.785 518.768 437.326 520.411 C 443.48 520.957 452.865 522.681 457.696 526.864 C 457.343 531.904 458.939 539.963 457.058 544.558 C 455.984 544.966 454.868 544.978 453.752 545.187 C 451.344 540.139 451.381 534.779 446.804 530.719 C 435.232 520.454 415.268 524.181 407.838 537.48 C 395.56 559.46 406.019 600.139 436.978 595.419 C 445.022 594.19 449.519 589.532 455.97 585.388 C 458.135 585.651 459.59 587.831 458.647 589.932 C 436.863 609.265 397.816 602.7 390.193 572.204 C 389.09 567.8 388.41 563.446 388.728 558.897 Z" opacity="1" fill="rgb(92,136,85)" fill-rule="evenodd" style="" id="object-21"/>
  <path d="M 399.336 397.106 C 401.579 396.698 403.9 396.341 405.789 394.966 C 410.608 391.46 412.413 382.554 414.342 377.187 C 418.904 364.494 424.484 352.124 429.47 339.592 C 431.014 335.717 432.096 329.232 435.083 326.251 C 436.09 326.205 436.947 326.065 437.855 326.532 C 444.1 340.878 450.018 355.487 455.82 370.026 C 457.835 375.078 459.84 380.131 461.825 385.191 C 463.111 388.473 464.368 392.276 467.049 394.714 C 468.92 396.413 471.447 396.422 473.498 397.727 C 473.932 398.433 473.818 398.858 473.758 399.645 C 466.097 399.922 458.42 399.67 450.754 399.839 C 448.235 399.892 443.21 401.189 444.062 397.235 C 446.928 396.955 449.315 396.59 451.138 394.154 C 451.463 392.27 450.627 390.231 450.11 388.424 C 448.907 384.216 447.272 380.162 445.806 376.044 C 443.727 375.202 440.274 375.78 438.011 375.766 C 431.897 375.732 425.677 375.454 419.588 375.923 C 417.3 379.669 416.127 384.776 414.709 388.926 C 414.144 390.583 413.612 392.132 414.561 393.772 C 416.331 396.835 418.824 396.704 421.9 397.068 C 422.237 397.499 422.237 399.555 421.766 399.938 C 414.468 400.335 407.081 399.858 399.772 399.957 C 399.156 399.185 399.243 398.057 399.336 397.106 Z M 421.642 370.529 C 421.563 370.822 421.478 371.115 421.401 371.409 C 423.657 372.018 426.46 371.633 428.795 371.652 C 433.9 371.692 439.02 371.511 444.112 371.55 C 444.024 369.544 442.374 367.207 441.655 365.343 C 440.024 361.124 438.323 356.933 436.767 352.685 C 435.799 350.043 434.857 347.324 433.766 344.74 C 433.543 344.208 433.02 342.579 432.635 342.402 C 432.363 342.278 432.372 342.938 432.242 343.206 C 428.993 352.4 425.406 361.528 421.642 370.529 Z" opacity="1" fill="rgb(54,102,156)" fill-rule="evenodd" style="" id="object-22"/>
  <path d="M 390.35 498.612 C 390.345 498.303 390.342 497.993 390.336 497.682 C 392.9 496.426 395.782 496.476 398.041 494.493 C 400.493 492.341 401.85 488.713 403.112 485.781 C 405.427 480.413 407.532 474.964 409.711 469.539 C 413.785 459.401 417.919 449.289 421.945 439.128 C 424.341 433.081 427.38 427.062 429.224 420.822 C 430.356 420.568 431.431 420.547 432.588 420.59 C 435.193 425.859 436.964 431.594 439.144 437.046 C 443.504 447.946 448.18 458.717 452.478 469.641 C 454.287 474.238 456.231 478.787 457.989 483.406 C 459.39 487.089 460.858 491.387 463.71 494.226 C 465.801 496.307 468.484 496.314 470.857 497.754 C 470.905 498.518 471.039 499.465 470.746 500.177 C 460.894 499.634 450.417 499.683 440.562 500.263 C 440 499.644 439.95 498.456 440.101 497.659 C 442.384 497.206 446.316 496.735 447.316 494.172 C 448.063 492.255 446.891 489.762 446.344 487.943 C 444.889 483.089 443.003 478.333 441.001 473.679 C 439.396 472.51 435.285 473.193 433.281 473.181 C 426.676 473.139 420.071 473.24 413.468 473.235 C 410.842 478.591 407.632 485.383 406.702 491.303 C 406.393 493.263 408.013 495.796 409.791 496.606 C 411.154 497.227 413.09 496.961 414.558 497.166 C 414.828 498.2 414.794 499.165 414.608 500.208 C 406.739 500.675 398.458 500.718 390.595 500.213 C 390.378 499.657 390.356 499.214 390.35 498.612 Z M 415.415 468.322 C 415.38 468.521 415.342 468.722 415.305 468.923 C 420.828 468.733 426.423 468.882 431.954 468.904 C 433.883 468.91 437.475 469.616 439.187 468.788 C 437.358 462.953 434.65 457.296 432.436 451.591 C 430.77 447.295 429.422 442.689 427.344 438.58 C 425.316 440.824 424.426 445.174 423.354 448.01 C 420.811 454.739 418.444 461.799 415.415 468.322 Z" opacity="1" fill="rgb(95,139,83)" fill-rule="evenodd" style="" id="object-23"/>
  <path d="M 469.023 522.85 C 478.461 520.943 489.908 521.879 499.509 522.422 C 502.503 525.674 494.599 526.51 492.548 527.75 C 489.701 531.766 490.807 539.054 490.796 543.799 C 490.777 552.725 490.446 561.686 490.713 570.608 C 490.915 577.441 491.57 584.445 496.762 589.518 C 508.392 600.883 529.826 594.362 532.069 578.096 C 533.191 569.929 532.573 561.372 532.544 553.149 C 532.523 547.828 532.692 542.511 532.708 537.195 C 532.716 534.311 532.855 531.158 531.153 528.7 C 528.301 526.121 524.491 526.656 522.811 523.059 C 525.179 522.164 527.099 522.577 529.573 522.456 C 535.313 522.173 541.573 521.773 547.277 522.592 C 548.753 525.079 540.246 527.972 538.789 529.738 C 537.219 542.069 538.125 555.007 537.967 567.422 C 537.88 574.334 538.401 581.518 535.209 587.887 C 526.086 606.088 492.277 605.744 482.096 588.906 C 478.639 583.197 478.413 576.627 478.31 570.137 C 478.173 561.175 478.356 552.218 478.46 543.257 C 478.508 539.275 479.315 534.327 478.178 530.472 C 476.756 525.65 470.961 526.748 469.023 522.85 Z" opacity="1" fill="rgb(93,140,88)" fill-rule="evenodd" style="" id="object-24"/>
  <path d="M 558.829 598.205 C 560.916 595.696 565.544 596.391 567.814 593.645 C 568.934 588.716 568.35 583.211 568.354 578.189 C 568.364 569.474 568.465 560.768 568.623 552.056 C 568.757 544.781 570.2 535.726 567.832 528.75 C 565.411 526.343 560.132 526.415 559.45 522.944 C 563.125 520.308 572.414 522.064 576.908 522.015 C 588.164 521.893 599.773 520.927 610.058 526.388 C 621.17 532.291 622.088 549.687 614.108 558.557 C 608.495 564.794 599.008 567.585 590.85 567.781 C 587.844 567.854 584.197 566.506 581.398 567.491 C 580.91 574.959 579.358 584.794 581.398 592.042 C 583.79 595.467 587.284 596.064 591.044 597.226 C 592.556 601.014 586.847 599.783 584.541 599.767 C 578.309 599.729 572.091 599.608 565.858 599.726 C 563.402 599.77 560.191 600.398 558.829 598.205 Z M 581.022 527.972 C 580.592 535.592 580.968 543.326 581.022 550.961 C 581.045 554.54 580.457 559.38 581.561 562.775 C 587.869 562.996 595.122 563.04 600.156 558.624 C 608.414 551.381 607.762 535.133 598.634 528.933 C 593.842 525.687 587.119 526.113 581.656 526.79 C 581.446 527.185 581.233 527.578 581.022 527.972 Z" opacity="1" fill="rgb(90,135,86)" fill-rule="evenodd" style="" id="object-25"/>
  <path d="M 478.709 327.706 C 482.517 327.725 486.33 327.811 490.144 327.756 C 492.278 327.727 494.916 327.462 496.948 328.166 C 510.56 346.719 526.457 363.63 540.816 381.599 C 541.948 378.403 540.996 373.099 541.013 369.686 C 541.054 361.899 541.011 354.109 541.013 346.321 C 541.016 343.019 541.825 338.268 540.586 335.146 C 539.61 332.687 536.991 331.466 534.568 331.119 C 533.79 331.007 532.099 331.141 531.447 330.702 C 530.766 330.252 531 328.676 530.984 328.052 C 532.652 327.05 535.851 327.635 537.773 327.677 C 543.028 327.787 548.325 327.294 553.568 327.628 C 554.194 328.384 554.123 329.664 554.086 330.606 C 553.011 330.515 551.915 330.559 550.855 330.778 C 544.122 332.171 545.373 340.485 545.356 345.597 C 545.317 357.399 545.427 369.204 545.405 381.009 C 545.396 387.481 544.894 394.258 545.511 400.697 C 544.215 400.687 542.979 400.799 541.69 400.59 C 540.201 399.662 539.118 397.428 538.072 396.023 C 535.976 393.216 533.767 390.489 531.588 387.746 C 524.316 378.61 516.8 369.684 509.431 360.624 C 506.067 356.492 502.693 352.369 499.359 348.214 C 498.23 346.805 497.282 345.277 496.156 343.872 C 495.76 343.375 495.397 342.777 494.923 342.35 C 494.776 342.218 494.638 341.771 494.517 341.927 C 494.317 342.179 494.361 342.551 494.284 342.864 C 494.967 354.539 494.295 366.475 494.272 378.176 C 494.269 381.567 494.27 384.961 494.335 388.354 C 494.361 389.791 494.186 391.514 494.881 392.836 C 496.662 396.234 500.475 396.718 503.838 397.177 C 503.991 397.73 504.454 399.589 503.923 399.995 C 497.429 399.818 490.915 399.757 484.423 399.812 C 482.962 399.825 478.088 400.251 480.236 397.165 C 483.657 396.874 487.664 396.805 489.352 393.185 C 490.187 391.385 489.924 389.159 489.915 387.236 C 489.893 383.985 489.874 380.735 489.868 377.483 C 489.851 368.75 489.894 360.018 489.937 351.282 C 489.957 346.895 490.589 341.701 489.68 337.406 C 489.167 334.985 485.653 332.075 483.371 331.365 C 482.592 331.124 478.957 330.918 478.637 330.195 C 478.361 329.571 478.585 328.359 478.709 327.706 Z" opacity="1" fill="rgb(55,102,158)" fill-rule="evenodd" style="" id="object-26"/>
  <path d="M 478.726 422.419 C 480.023 421.651 482.015 421.957 483.48 421.978 C 486.62 422.022 489.75 421.834 492.891 421.843 C 505.853 421.877 522.23 419.217 532.799 428.647 C 540.011 435.082 540.107 446.724 534.075 453.937 C 530.742 457.925 525.966 459.953 521.139 461.48 C 523.121 465.021 526.26 468.077 528.434 471.568 C 533.049 478.978 537.925 488.813 545.018 494.154 C 547.508 496.029 550.488 496.719 553.339 497.809 C 553.343 498.597 553.249 499.378 553.098 500.15 C 548.632 500.255 544.159 500.319 539.684 500.304 C 537.764 500.298 535.106 500.634 533.32 499.848 C 530.75 497.889 528.845 493.983 527.151 491.26 C 523.787 485.843 520.303 480.502 516.973 475.064 C 514.704 471.361 512.531 467.124 509.03 464.411 C 507.354 463.83 502.302 463.127 500.93 464.295 C 500.5 471.028 500.71 477.85 500.727 484.599 C 500.733 487.093 500.142 490.797 501.395 493.03 C 503.493 496.762 506.861 497.084 510.734 497.291 C 510.897 498.047 511.282 499.376 510.685 500.014 C 503.383 499.812 495.995 500.059 488.685 500.099 C 485.619 500.114 482 500.684 479.014 499.952 C 478.833 499.055 478.578 498.285 479.14 497.524 C 482.56 496.794 486.492 496.465 487.99 492.754 C 488.776 490.807 488.526 488.445 488.507 486.395 C 488.471 482.717 488.496 479.04 488.486 475.362 C 488.455 465.246 488.448 455.13 488.473 445.013 C 488.486 440.444 489.452 434.574 488.092 430.171 C 486.81 426.026 482.601 425.402 478.852 425.257 C 478.663 424.306 478.708 423.387 478.726 422.419 Z M 500.949 426.352 C 500.273 430.012 500.649 434.031 500.636 437.748 C 500.608 445.124 500.678 452.502 500.762 459.874 C 507.006 460.413 514.015 459.946 519.156 455.97 C 526.359 450.402 527.154 435.739 519.782 429.874 C 514.601 425.749 507.223 425.502 500.949 426.352 Z" opacity="1" fill="rgb(95,138,82)" fill-rule="evenodd" style="" id="object-27"/>
  <path d="M 628.775 522.75 C 635.974 521.213 644.294 522.145 651.647 522.121 C 654.096 522.112 657.631 521.424 659.83 522.511 C 660.58 526.566 654.795 525.82 651.927 527.863 C 650.632 530.633 651.002 534.271 650.963 537.287 C 650.889 543.238 651.063 549.188 650.954 555.14 C 650.824 562.226 650.405 569.392 651.219 576.447 C 653.293 594.443 677.138 602.517 688.901 587.703 C 696.664 577.929 693.19 560.056 693.195 548.431 C 693.199 539.017 696.452 526.798 683.707 525.279 C 681.05 522.008 686.849 522.218 688.699 522.112 C 694.529 521.78 702.538 521.497 708.193 522.944 C 708.828 525.748 701.385 527.151 699.616 529.097 C 697.627 533.445 698.837 539.976 699 544.676 C 699.411 556.705 701.27 571.85 697.734 583.449 C 690.54 607.034 650.695 607.61 640.847 585.916 C 638.982 581.805 638.831 577.374 638.548 572.958 C 637.97 563.938 638.075 554.842 638.427 545.803 C 638.634 540.55 639.809 533.711 637.562 528.81 C 635.139 525.704 629.553 526.607 628.775 522.75 Z" opacity="1" fill="rgb(91,140,87)" fill-rule="evenodd" style="" id="object-28"/>
  <path d="M 566.067 359.205 C 566.941 354.251 568.112 349.401 570.606 344.975 C 579.459 329.293 597.731 323.649 614.766 326.818 C 619.987 327.789 626.273 328.684 630.533 332.148 C 630.005 337.627 630.654 343.214 630.909 348.682 C 629.965 348.582 628.835 348.744 627.886 348.864 C 627.255 348.345 627.197 347.183 626.977 346.408 C 626.475 344.654 625.715 342.99 624.923 341.347 C 622.621 336.559 618.461 333.291 613.583 331.356 C 610.612 330.18 606.954 329.771 603.778 329.805 C 575.828 330.1 572.474 369.917 586.258 387.462 C 592.261 395.11 600.507 398.295 610.079 397.217 C 613.287 396.855 616.934 396.183 619.437 393.991 C 620.15 392.586 619.683 390.344 619.669 388.807 C 619.632 385.188 619.677 381.569 619.666 377.951 C 619.659 376.112 619.987 373.965 618.624 372.513 C 616.532 370.277 613.517 370.529 610.7 370.115 C 610.159 369.202 610.363 368.12 610.353 367.081 C 613.715 366.539 617.305 367.084 620.705 367.074 C 626.582 367.06 632.522 366.833 638.389 367.151 C 638.69 368.008 638.803 368.991 638.556 369.877 C 636.222 370.124 633.181 370.953 632.123 373.306 C 631.291 375.155 631.698 378.024 631.672 380.017 C 631.603 385.385 631.822 390.766 631.723 396.128 C 627.198 399.003 620.224 399.819 615.012 400.67 C 597.746 403.486 578.11 399.618 569.682 382.593 C 568.233 379.666 567.067 376.501 566.47 373.285 C 565.603 368.624 565.468 363.906 566.067 359.205 Z" opacity="1" fill="rgb(54,102,159)" fill-rule="evenodd" style="" id="object-29"/>
  <path d="M 718.02 523.639 C 719.157 521.952 720.253 522.285 722.168 522.121 C 726.308 521.766 733.385 521.024 737.165 522.707 C 746.149 534.886 756.45 546.308 766.047 558.012 C 771.709 564.909 776.544 572.76 782.419 579.408 C 783.933 577.14 782.861 570.295 782.918 567.497 C 783.073 558.194 783.401 548.848 783.172 539.544 C 783.09 536.316 783.663 531.529 781.854 528.735 C 779.637 526.513 771.823 525.407 773.255 522.118 C 778.614 521.904 783.973 522.175 789.349 522.116 C 792.123 522.088 795.011 521.65 797.703 522.519 C 797.784 525.309 790.683 526.916 788.833 528.938 C 786.845 533.219 788.228 540.731 788.244 545.441 C 788.302 557.906 788.31 570.372 788.326 582.835 C 788.343 587.236 788.326 591.639 788.334 596.04 C 788.334 597.034 788.719 599.608 787.983 600.315 C 781.282 600.585 776.61 590.442 772.805 585.708 C 760.148 569.965 748.039 553.712 735.046 538.246 C 733.213 539.632 734.032 548.354 734.032 550.94 C 733.999 560.711 734.064 570.48 733.974 580.248 C 733.942 584.328 733.123 589.998 735.627 593.489 C 737.861 595.717 740.953 596.05 743.719 597.363 C 744.447 600.499 741.109 599.783 738.859 599.8 C 734.04 599.834 729.237 599.842 724.418 599.96 C 722.217 600.014 719.975 600.576 719.01 598.369 C 721.26 595.738 725.58 595.672 728.182 592.97 C 730.497 589.001 729.196 581.81 729.196 577.347 C 729.196 566.749 729.147 556.151 729.245 545.557 C 729.286 541.406 730.432 535.478 728.803 531.568 C 726.946 527.081 721.832 525.768 718.02 523.639 Z" opacity="1" fill="rgb(89,137,87)" fill-rule="evenodd" style="" id="object-30"/>
  <path d="M 558.575 423.405 C 558.61 423.087 558.644 422.77 558.676 422.451 C 560.681 421.421 563.037 421.882 565.235 421.877 C 570.123 421.87 576.009 420.892 580.785 421.92 C 583.817 428.344 586.282 435.052 589.117 441.575 C 595.018 455.146 601.134 468.656 606.722 482.347 C 607.873 481.428 608.239 478.886 608.772 477.563 C 610.259 473.873 611.967 470.269 613.481 466.589 C 617.46 456.903 621.731 447.346 625.531 437.584 C 626.845 434.207 628.086 430.806 629.383 427.424 C 630.064 425.659 630.425 423.588 631.457 421.998 C 636.909 421.488 642.514 421.848 647.99 421.772 C 649.006 421.758 652.711 421.242 653.302 422.002 C 653.485 422.997 653.347 423.883 653.309 424.874 C 650.091 425.25 645.954 425.648 644.441 429.088 C 643.725 430.715 644.035 433.05 644.037 434.79 C 644.04 438.421 644.06 442.048 644.068 445.679 C 644.092 456.39 644.189 467.096 644.314 477.808 C 644.364 482.184 643.462 488.344 645.022 492.475 C 646.888 497.412 650.897 495.61 654.479 497.422 C 654.498 498.335 654.663 499.216 654.715 500.128 C 651.339 499.548 647.19 500.141 643.738 500.153 C 636.755 500.177 629.769 500.05 622.789 500.204 C 622.011 499.654 622.183 498.325 622.25 497.433 C 625.244 496.769 629.162 496.804 631.088 493.951 C 632.834 491.369 632.079 486.058 632.131 483.077 C 632.293 473.693 631.979 464.297 632.005 454.911 C 632.018 449.98 632.182 445.05 632.146 440.119 C 632.132 438.151 632.348 436.25 632.504 434.299 C 632.535 433.893 632.463 432.273 631.976 433.293 C 628.922 439.757 626.606 446.763 623.965 453.42 C 619.862 463.77 615.005 473.822 610.799 484.127 C 609.103 488.282 607.621 492.596 605.658 496.634 C 604.744 498.51 604.547 500.301 602.141 500.266 C 600.703 499.163 600.173 496.695 599.499 495.071 C 597.687 490.712 595.871 486.347 594.117 481.963 C 590.082 471.877 585.32 462.072 581.102 452.065 C 579.356 447.926 577.688 443.756 575.913 439.631 C 575.103 437.753 574.728 435.996 573.487 434.317 C 572.358 447.813 573.427 461.807 573.427 475.362 C 573.427 479.201 573.412 483.037 573.418 486.874 C 573.422 488.791 573.167 491.163 574.039 492.935 C 575.985 496.898 579.647 496.447 583.235 497.262 C 583.314 498.237 583.335 499.203 583.39 500.178 C 575.261 500.066 566.729 499.573 558.627 500.278 C 558.175 499.429 558.201 498.192 558.8 497.449 C 561.861 496.261 566.648 496.716 568.147 492.881 C 569.803 488.649 568.858 482.468 568.88 478.015 C 568.93 467.456 568.972 456.894 568.972 446.336 C 568.972 442.515 568.936 438.693 568.893 434.873 C 568.874 433.362 569.162 431.41 568.596 429.976 C 567.116 426.227 562.363 425.577 558.974 425.076 C 558.631 424.472 558.575 424.093 558.575 423.405 Z" opacity="1" fill="rgb(97,140,83)" fill-rule="evenodd" style="" id="object-31"/>
  <path d="M 809.792 555.554 C 811.162 549.007 812.872 542.416 817.042 536.999 C 831.075 518.797 857.845 515.561 877.375 526.493 C 878.055 527.351 877.665 529.444 877.665 530.522 C 877.655 533.958 879.005 541.824 877.325 544.643 C 876.305 545.127 875.395 545.146 874.295 544.929 C 871.525 539.483 870.905 534.175 865.885 529.928 C 854.835 520.567 836.135 524.859 828.885 536.688 C 817.715 554.89 822.745 590.996 847.595 595.014 C 854.855 596.186 861.645 594.815 868.035 591.219 C 871.125 589.478 873.595 586.056 877.095 585.34 C 878.365 586.128 879.135 586.834 879.705 588.211 C 878.395 590.982 875.355 592.775 872.865 594.325 C 866.305 598.389 859.135 600.651 851.425 600.975 C 825.985 602.038 805.762 581.242 809.792 555.554 Z" opacity="1" fill="rgb(89,135,85)" fill-rule="evenodd" style="" id="object-32"/>
  <path d="M 650.885 324.378 C 653.562 318.684 661.064 318.869 663.863 324.578 C 667.166 331.314 663.857 340.256 658.17 344.621 C 656.572 345.851 653.414 348.236 651.273 347.612 C 650.851 346.684 650.754 345.818 650.75 344.802 C 654.109 341.958 657.799 340.621 658.53 335.731 C 658.664 334.835 658.954 333.332 658.36 332.597 C 656.83 332.414 654.911 332.441 653.454 331.905 C 650.574 330.849 650.136 326.87 650.885 324.378 Z" opacity="1" fill="rgb(54,100,156)" fill-rule="evenodd" style="" id="object-33"/>
  <path d="M 677.732 378.641 C 678.724 378.484 680 378.134 680.901 378.61 C 683.135 385.532 684.119 392.467 691.382 396.084 C 701.573 401.158 715.115 395.325 713.479 382.861 C 712.382 374.563 703.965 371.171 697.271 368.184 C 687.85 363.976 679.481 357.705 679.505 346.472 C 679.553 326.9 706.127 320.257 719.942 330.782 C 720.221 335.725 720.515 341.116 720.147 346.059 C 719.329 346.208 718.453 346.145 717.627 346.152 C 716.432 345.257 716.31 342.591 715.884 341.198 C 714.935 338.145 713.454 335.214 710.926 333.178 C 703.16 326.927 689.811 329.717 688.996 340.739 C 688.87 342.449 689.01 344.16 689.525 345.802 C 691.219 351.237 696.659 353.906 701.384 356.296 C 709.93 360.62 720.744 365.075 723.191 375.367 C 723.763 377.748 723.862 380.262 723.51 382.685 C 721.178 398.858 704.036 403.902 689.921 400.993 C 686.097 400.205 680.987 399.03 678.137 396.161 C 677.543 394.42 677.859 392.21 677.842 390.377 C 677.809 386.464 677.63 382.554 677.732 378.641 Z" opacity="1" fill="rgb(56,102,159)" fill-rule="evenodd" style="" id="object-34"/>
  <path d="M 889.125 531.41 C 889.395 528.468 889.055 525.264 890.105 522.487 C 898.535 520.913 908.115 522.182 916.685 522.215 C 930.525 522.27 944.665 521.139 958.425 522.22 C 958.595 528.076 959.945 534.857 959.045 540.614 C 957.765 540.888 956.415 541.315 955.125 541.112 C 953.985 537.985 953.325 534.848 951.265 532.146 C 946.685 526.091 937.465 526.109 930.665 527.496 C 929.965 538.931 930.395 550.497 930.405 561.951 C 930.425 570.761 929.855 579.784 930.525 588.569 C 930.765 592.072 932.025 594.076 935.335 595.369 C 936.845 595.95 940.705 596.655 940.195 598.59 C 938.225 599.704 935.335 599.106 933.165 599.091 C 927.375 599.045 921.545 599.027 915.775 599.325 C 913.285 599.453 909.605 600.274 908.035 598.149 C 909.955 594.551 916.355 596.543 917.825 591.398 C 919.335 586.036 918.325 579.561 918.335 574.049 C 918.335 563.419 918.335 552.787 918.395 542.157 C 918.395 537.294 917.785 531.888 918.505 527.1 C 912.025 527.14 903.395 525.592 897.885 529.91 C 893.675 533.232 895.195 537.617 892.875 541.652 C 892.445 542.381 889.965 541.964 889.305 541.934 C 887.975 538.921 888.865 534.609 889.125 531.41 Z" opacity="1" fill="rgb(92,135,85)" fill-rule="evenodd" style="" id="object-35"/>
  <path d="M 668.06 454.383 C 668.659 449.613 670.262 445.089 672.443 440.827 C 682.93 420.325 710.982 414.286 730.071 426.429 C 737.876 431.397 743.521 439.827 746.099 448.609 C 747.784 454.365 748.267 460.778 747.416 466.716 C 746.082 476.086 741.672 485.653 734.489 491.969 C 719.336 505.3 693.806 505.146 679.288 490.829 C 669.872 481.544 666.449 467.201 668.06 454.383 Z M 681.917 451.091 C 680.407 464.693 682.804 481.919 693.513 491.576 C 702.505 499.686 717.896 499.833 726.135 490.613 C 730.905 485.28 733.016 477.457 733.736 470.507 C 735.168 456.599 732.689 439.47 721.537 429.816 C 713.052 422.469 698.187 422.077 690.207 430.46 C 685.032 435.896 682.727 443.797 681.917 451.091 Z" opacity="1" fill="rgb(96,139,83)" fill-rule="evenodd" style="" id="object-36"/>
  <path d="M 967.965 522.302 C 975.065 522.082 982.185 522.011 989.245 522.068 C 992.145 522.089 995.915 521.497 998.455 522.994 C 998.635 523.434 999.345 524.507 998.615 524.874 C 994.995 526.667 989.875 525.662 989.165 531.234 C 987.845 541.453 988.885 552.479 988.855 562.781 C 988.825 569.76 988.205 577.251 991.315 583.723 C 998.365 598.357 1021.63 599.386 1029.12 584.433 C 1031.95 578.72 1031.6 571.995 1031.79 565.789 C 1032.11 553.863 1032.72 541.228 1031.28 529.376 C 1028.9 526.001 1022.37 526.641 1021.85 522.463 C 1027.34 520.82 1034.31 522.008 1040.03 521.965 C 1042.04 521.952 1045.51 521.481 1047.13 522.679 C 1046.73 525.227 1040.49 526.636 1038.49 528.011 C 1035.85 532.211 1037.33 540.565 1037.36 545.428 C 1037.43 558.659 1040.29 575.999 1034.03 588.161 C 1024.48 606.78 989.175 605.995 979.845 587.661 C 976.555 581.201 976.545 573.972 976.525 566.882 C 976.525 554.526 978.485 540.812 976.335 528.638 C 973.875 526.047 969.965 525.713 967.385 523.211 C 967.595 522.907 967.785 522.605 967.965 522.302 Z" opacity="1" fill="rgb(92,139,87)" fill-rule="evenodd" style="" id="object-37"/>
  <path d="M 1058.36 522.935 C 1063.59 521.194 1069.54 521.992 1074.97 521.959 C 1086.46 521.898 1098.94 520.578 1109.15 527.038 C 1117.77 532.497 1119.16 545.32 1112.93 553.199 C 1109.84 557.116 1104.58 559.251 1100.27 561.55 C 1106.92 570.856 1112.29 581.257 1119.39 590.226 C 1122.11 593.693 1125.23 594.748 1128.94 596.819 C 1129.98 597.406 1131.18 598.384 1130.77 599.704 C 1125.14 600.144 1117.37 601.039 1111.93 599.344 C 1108.87 596.983 1106.86 593.264 1104.69 590.089 C 1099.16 581.822 1095.1 571.677 1088.2 564.453 C 1085.6 563.441 1082.62 563.929 1079.9 563.667 C 1077.86 569.763 1080.07 577.284 1079.52 583.611 C 1079.28 586.39 1078.8 590.199 1080.43 592.673 C 1082.69 596.013 1087.83 595.149 1089.78 598.042 C 1089.02 600.57 1084.77 599.619 1082.74 599.596 C 1076.26 599.52 1069.78 599.576 1063.3 599.613 C 1061.55 599.624 1057.65 599.847 1059.06 597.168 C 1061.62 595.599 1065.03 594.885 1066.88 592.386 C 1068.77 583.122 1067.19 572.905 1067.17 563.514 C 1067.15 552.32 1068.62 540.381 1067.03 529.282 C 1064.92 526.3 1060.81 525.617 1058.36 522.935 Z M 1079.39 526.452 C 1079.58 534.045 1079.15 541.733 1079.26 549.359 C 1079.3 552.335 1078.58 556.614 1079.77 559.36 C 1086.05 559.564 1093.19 559.662 1098.35 555.435 C 1106.23 548.931 1105.22 534.623 1096.84 529.076 C 1091.29 525.415 1085.55 526.636 1079.39 526.452 Z" opacity="1" fill="rgb(95,137,88)" fill-rule="evenodd" style="" id="object-38"/>
  <path d="M 759.042 422.604 C 759.116 422.316 759.19 422.032 759.263 421.747 C 765.171 420.786 772.452 421.231 778.433 421.637 C 780.053 422.691 781.313 424.841 782.516 426.333 C 785.183 429.611 787.851 432.891 790.477 436.201 C 798.307 446.072 806.552 455.621 814.432 465.447 C 817.405 469.145 820.375 472.85 823.375 476.53 C 823.915 477.2 825.545 480.13 826.325 480.138 C 826.685 479.102 826.385 477.788 826.415 476.694 C 826.485 473.837 826.425 470.962 826.435 468.103 C 826.445 459.436 826.665 450.772 826.665 442.106 C 826.665 438.21 827.695 432.349 825.715 428.83 C 823.525 424.935 819.805 425.422 816.002 424.757 C 815.642 423.886 815.752 423.017 815.742 422.078 C 821.125 420.768 827.705 421.722 833.225 421.704 C 835.405 421.696 838.685 421.146 840.665 422.078 C 841.115 422.86 841.035 423.467 840.735 424.305 C 839.805 425.44 837.655 425.24 836.335 425.566 C 834.485 426.018 833.115 427.554 832.275 429.203 C 831.195 431.328 831.435 434.121 831.425 436.432 C 831.405 440.831 831.425 445.229 831.435 449.63 C 831.455 460.844 831.385 472.063 831.485 483.278 C 831.545 488.955 832.175 495.045 831.615 500.682 C 825.565 501.424 822.165 493.72 818.825 489.577 C 808.822 477.141 799.191 464.355 788.89 452.154 C 785.691 448.357 782.704 444.381 779.505 440.586 C 778.752 439.699 777.288 436.834 776.192 437.522 C 775.627 450.972 775.979 464.491 775.995 477.951 C 776.003 482.576 774.629 490.068 777.738 493.898 C 780.495 497.295 784.005 495.652 787.253 497.312 C 787.335 498.266 787.319 499.183 787.352 500.138 C 781.06 499.625 774.367 500.026 768.051 500.112 C 766.766 500.129 762.315 500.9 761.382 499.797 C 761.104 499.463 761.047 497.945 760.982 497.583 C 764.091 496.722 768.648 496.607 770.432 493.449 C 771.282 491.93 771.192 489.843 771.274 488.155 C 771.422 484.712 771.405 481.259 771.422 477.814 C 771.479 467.325 771.413 456.836 771.364 446.346 C 771.348 441.881 772.346 435.64 770.8 431.383 C 769.073 426.637 763.199 425.47 758.952 424.654 C 758.944 423.963 758.985 423.29 759.042 422.604 Z" opacity="1" fill="rgb(95,139,85)" fill-rule="evenodd" style="" id="object-39"/>
  <path d="M 1138.56 597.083 C 1141.32 595.761 1145.36 595.199 1147.03 592.386 C 1148.06 586.917 1147.45 580.896 1147.43 575.347 C 1147.42 565.675 1147.43 556.021 1147.76 546.355 C 1147.88 541.734 1149.65 532.86 1147.13 528.852 C 1145.09 525.61 1140.7 525.415 1138.32 522.605 C 1142.34 521.074 1147.76 521.997 1152.04 522.002 C 1161.92 522.015 1171.83 522.057 1181.72 522.068 C 1184.95 522.074 1188.19 522.059 1191.42 522.031 C 1192.57 522.018 1194.78 521.578 1195.63 522.383 C 1195.81 526.819 1195.82 531.263 1195.95 535.703 C 1196.05 538.131 1196.82 540.665 1193.59 540.337 C 1190.94 536.918 1190.77 532.446 1187.31 529.507 C 1182.12 525.11 1173.99 526.656 1167.72 526.447 C 1165.31 526.366 1161.76 525.786 1159.95 527.528 C 1158.91 536.7 1159.73 546.626 1159.98 555.859 C 1164.08 557.968 1173.34 556.349 1177.99 556.232 C 1179.41 556.195 1182.09 556.707 1183.34 555.968 C 1184.58 552.722 1185.8 547.575 1189.57 546.826 C 1190.63 548.865 1190.16 551.529 1190.16 553.79 C 1190.18 559.067 1191.27 566.137 1189.76 571.194 C 1186.13 572.499 1184.09 563.55 1181.81 561.576 C 1174.84 560.549 1167.14 560.931 1160.15 561.289 C 1158.92 568.24 1159.42 575.815 1159.54 582.855 C 1159.6 586.608 1159.15 590.57 1160.54 594.136 C 1162.61 595.884 1168.47 595.178 1171.08 595.166 C 1177.71 595.133 1186.29 595.784 1191.24 590.507 C 1194.41 587.122 1195.56 582.517 1198.03 578.699 C 1198.39 578.757 1201.01 578.818 1201.18 579.606 C 1202.06 583.771 1199.32 590.297 1198.86 594.587 C 1198.72 595.936 1198.82 598.704 1197.92 599.711 C 1178.31 600.469 1158.19 600.471 1138.58 599.881 C 1137.78 598.146 1137.84 599.077 1138.56 597.083 Z" opacity="1" fill="rgb(95,140,89)" fill-rule="evenodd" style="" id="object-40"/>
  <path d="M 847.395 422.377 C 849.855 421.059 854.065 421.851 856.835 421.858 C 864.125 421.884 871.495 422.262 878.775 421.732 C 879.305 422.432 879.105 423.952 878.995 424.782 C 876.675 424.983 874.195 425.295 872.645 427.171 C 871.555 430.372 874.765 433.861 876.155 436.545 C 880.345 444.735 885.455 452.445 889.575 460.653 C 890.105 460.804 890.715 459.223 890.925 458.824 C 891.985 456.963 893.035 455.1 894.075 453.231 C 897.385 447.259 900.715 441.304 904.105 435.369 C 905.275 433.307 907.535 430.096 906.525 427.618 C 904.275 425.392 902.045 425.147 899.035 425.06 C 898.425 424.327 898.685 423.189 898.755 422.277 C 901.245 421.379 904.375 421.857 906.995 421.839 C 911.855 421.807 917.295 421.121 922.085 421.816 C 922.135 422.835 922.045 423.831 921.835 424.831 C 919.825 426.376 917.115 425.911 915.045 427.932 C 910.665 432.21 907.845 438.593 904.765 443.816 C 901.735 448.913 898.755 454.04 895.815 459.173 C 894.665 461.143 892.875 463.259 892.265 465.467 C 891.425 468.499 892.015 472.541 892.025 475.669 C 892.045 479.955 892.015 484.244 892.055 488.527 C 892.085 491.401 892.675 494.588 895.475 496.127 C 897.285 497.127 899.515 496.656 901.425 497.232 C 901.505 498.25 901.565 499.208 901.545 500.229 C 893.765 499.232 885.165 500.063 877.305 500.141 C 875.355 500.16 873.395 500.183 871.455 500.117 C 871.175 500.106 869.725 500.258 869.555 500 C 869.215 499.484 869.595 497.898 869.705 497.327 C 872.135 496.501 874.995 496.85 877.165 495.252 C 879.225 493.74 879.495 491.345 879.515 488.975 C 879.575 485.199 879.505 481.418 879.495 477.64 C 879.485 474.282 880.395 469.56 879.435 466.355 C 878.095 461.94 874.235 457.421 871.815 453.508 C 867.385 446.328 863.255 438.966 858.875 431.761 C 857.575 429.637 856.085 427.428 853.895 426.161 C 851.155 424.59 847.415 426.347 847.395 422.377 Z" opacity="1" fill="rgb(96,140,84)" fill-rule="evenodd" style="" id="object-41"/>
</svg>